<svg width="457" height="729" viewBox="0 0 457 729" fill="none" xmlns="http://www.w3.org/2000/svg">
<path d="M86 41.5L358 0L331 284L86 335V41.5Z" fill="black"/>
<path d="M139.92 196.374L176.416 139.138C172.077 128.762 167.076 118.234 155.313 119.36C134.034 121.399 134.99 158.429 137.172 181.206C137.684 186.553 139.246 193.849 139.92 196.374ZM181.755 153.195L144.969 210.783C148.722 220.675 154.084 229.334 165.954 228.197C188.089 226.077 186.064 191.415 183.82 167.997C183.319 162.757 182.603 157.538 181.755 153.195ZM153.639 103.01C186.04 99.9066 197.527 136.468 200.59 168.441C203.683 200.735 201.525 241.301 167.521 244.558C135.441 247.631 123.527 213.376 120.413 180.869C117.3 148.361 121.239 106.113 153.639 103.01ZM267.691 92.7334L288.986 91.9886L302.291 230.894L284.754 232.574L273.642 118.818C267.241 128.604 254.568 140.501 242.337 151.385L229.99 136.272C260.761 113.901 266.765 94.3329 267.691 92.7334Z" fill="white"/>
<path d="M192 260.225L456.05 242L434.858 498.845H211.496L192 260.225Z" fill="black"/>
<path d="M278.074 444.528C295.186 443.029 304.399 433.185 303.189 419.372C301.817 403.704 287.618 396.949 273.469 391.956C260.404 399.333 247.596 408.453 248.968 424.121C250.178 437.934 260.963 446.026 278.074 444.528ZM271.989 375.051C282.878 371.293 289.932 362.884 289.336 356.081C288.622 347.938 281.308 341.515 268.938 342.598C256.569 343.682 250.482 351.278 251.196 359.422C251.792 366.225 260.612 373.243 271.989 375.051ZM267.521 326.415C290.096 324.437 303.994 337.243 305.556 355.076C306.485 365.693 298.981 377.257 290.262 382.072C302.294 386.627 317.845 398.145 319.489 416.906C321.493 439.79 306.181 458.27 279.483 460.608C252.785 462.947 234.493 447.41 232.488 424.526C230.845 405.765 244.157 391.719 255.214 385.141C245.791 381.916 235.978 371.869 235.048 361.251C233.486 343.418 244.946 328.392 267.521 326.415ZM351.033 316.919C352.162 301.343 364.572 293.608 379.931 292.263C395.187 290.926 409.274 297.587 410.664 313.461C412.001 328.717 404.218 333.554 386.898 344.523C379.716 349.1 372.78 352.927 372.196 356.925L415.341 352.627L416.669 367.78L355.026 373.179C354.634 369.889 354.26 366.806 353.962 363.404C353.556 358.766 353.895 355.516 356.28 350.737C359.383 344.648 370.485 338.586 378.765 333.498C395.427 323.313 396.487 320.001 396.045 314.95C395.539 309.177 388.532 306.259 381.523 306.873C371.008 307.794 367.089 311.669 366.399 319.208L351.033 316.919Z" fill="white"/>
<path d="M0 475.331L214.786 405.894L357.561 608.576L243.798 659.123L127.124 704.424L0 475.331Z" fill="black"/>
<path d="M101.434 518.322C89.9685 524.684 82.3119 535.623 89.2612 548.147C95.6232 559.612 109.025 558.404 119.609 552.531C130.897 546.267 133.852 534.13 132.239 527.066C125.709 518.001 111.752 512.596 101.434 518.322ZM75.0917 555.663C64.5699 536.702 72.3091 517.181 91.888 506.317C125.49 487.671 146.137 515.317 161.748 543.451C177.604 572.026 187.012 603.947 156.409 620.929C134.802 632.919 119.296 628.258 103.727 613.712L115.018 602.256C126.083 612.841 132.635 616.127 148.775 607.171C168.265 596.355 161.154 574.809 149.996 554.701C148.234 551.526 146.296 548.449 144.495 545.412C142.071 554.139 137.189 560.308 125.812 566.621C106.939 577.094 86.1028 575.507 75.0917 555.663ZM216.296 560.475C211.121 546.16 219.101 534.349 232.242 527.058C245.294 519.815 260.479 520.155 268.015 533.737C275.258 546.79 270.249 554.184 259.18 570.822C254.602 577.746 249.945 583.906 251.011 587.698L287.719 566.751L294.913 579.716L242.174 608.981C240.52 606.208 238.963 603.611 237.348 600.701C235.146 596.732 234.158 593.704 234.386 588.502C234.732 581.851 242.212 572.048 247.565 564.233C258.358 548.554 257.988 545.184 255.59 540.863C252.849 535.924 245.453 536.106 239.456 539.434C230.46 544.426 228.508 549.431 230.885 556.417L216.296 560.475Z" fill="white"/>
</svg>
