<svg width="1440" height="338" viewBox="0 0 1440 338" fill="none" xmlns="http://www.w3.org/2000/svg">
<g clip-path="url(#clip0_169_19)">
<path d="M798.003 -148.717L681.493 -38.8923L816.416 56.7798L640.7 91.3624L678.92 231.612L511.124 177.732L438.012 309L342.234 187.234L185.721 259.385L198.534 116.257L18.4292 101.717L-78.5 91.3624L0 -103.78L175.716 -138.362L137.496 -278.612L305.292 -224.732L378.403 -356L474.198 -234.234L630.695 -306.385L617.882 -163.257L798.003 -148.717Z" fill="#F03971"/>
<path d="M1412.71 -215.997L1291.6 -87.7399L1422.36 33.0312L1245.29 68.1005L1277.52 239.041L1112.13 167.515L1033.48 323.343L942.95 172.537L783.471 253.738L802.367 81.2713L623.003 56.8133L744.11 -71.4437L613.333 -192.215L790.403 -227.285L758.178 -398.225L923.568 -326.699L1002.22 -482.527L1092.76 -331.721L1252.23 -412.923L1233.33 -240.456L1412.71 -215.997Z" fill="#F03971"/>
</g>
<defs>
<clipPath id="clip0_169_19">
<rect width="1440" height="338" fill="white"/>
</clipPath>
</defs>
</svg>
