<svg width="1440" height="1024" viewBox="0 0 1440 1024" fill="none" xmlns="http://www.w3.org/2000/svg">
<rect y="404" width="1440" height="211" fill="#C8102E"/>
<rect x="826" width="1024" height="211" transform="rotate(90 826 0)" fill="#C8102E"/>
<path d="M1006 342.5H890V328.5L1440 -2V79L1006 342.5Z" fill="#C8102E"/>
<path d="M890.5 286.5V-2H1373L890.5 286.5Z" fill="#012169"/>
<path d="M1440 342.5H1205.5L1440 199V342.5Z" fill="#012169"/>
<path d="M434 676L550 676L550 690L0 1020.5L7.08124e-06 939.5L434 676Z" fill="#C8102E"/>
<path d="M549.5 732L549.5 1020.5L67 1020.5L549.5 732Z" fill="#012169"/>
<path d="M1.25452e-05 676L234.5 676L0 819.5L1.25452e-05 676Z" fill="#012169"/>
<path d="M434 342.5H550V328.5L0 -2V79L434 342.5Z" fill="#C8102E"/>
<path d="M549.5 286.5V-2H67L549.5 286.5Z" fill="#012169"/>
<path d="M0 342.5H234.5L0 199V342.5Z" fill="#012169"/>
<path d="M1006 676L890 676L890 690L1440 1020.5L1440 939.5L1006 676Z" fill="#C8102E"/>
<path d="M890.5 732L890.5 1020.5L1373 1020.5L890.5 732Z" fill="#012169"/>
<path d="M1440 676L1205.5 676L1440 819.5L1440 676Z" fill="#012169"/>
<g filter="url(#filter0_d_124_20609)">
<path d="M422.841 441C333.241 471.8 179.508 509.833 113.841 525C111.508 539.167 105.841 574 101.841 600C96.841 632.5 86.341 684 95.841 748.5C103.441 800.1 111.008 817.333 113.841 819.5C137.174 816.167 190.541 808.7 217.341 805.5C250.841 801.5 452.841 778 534.841 760C616.841 742 796.341 676 905.841 640.5C1015.34 605 1128.34 550 1202.34 503.5C1261.54 466.3 1322.01 427.333 1344.84 412.5L1263.84 129C1204.84 153.333 1067.24 209.5 988.841 239.5C890.841 277 805.341 316.5 726.341 343.5C647.341 370.5 534.841 402.5 422.841 441Z" fill="#FFF200"/>
<path d="M227.276 709.886L194.849 718.241L151.547 557.691L234.799 535.236C247.196 531.893 253.223 532.484 257.912 533.436L255.087 560.664C251.468 559.815 248.368 558.956 236.424 562.047L227.917 564.342C215.277 567.751 212.36 568.538 190.151 574.658L198.609 606.014C213.193 602.081 208.509 603.083 223.337 599.084C234.275 596.134 243.008 596.125 248.459 597.002L246.816 623.781C241.762 622.928 235.522 623.959 230.052 625.435L219.722 628.221C216.076 629.204 213.523 629.893 205.689 632.266C209.721 647.215 224.162 698.34 227.276 709.886Z" fill="#F03971"/>
<path d="M560.215 670C553.186 667.779 546.19 662.006 544.746 651.411C542.61 635.735 555.221 626.846 570.534 624.76L571.187 624.671C587.4 622.683 600.489 626.517 605.294 641.163L594.042 644.84C590.028 636 583.596 634.363 572.42 635.886C565.018 636.895 560.798 639.022 557.905 642.743C556.411 644.794 555.899 647.008 556.235 649.475C557.046 655.426 560.761 657.729 565.092 659.134C571.893 661.312 585.52 660.416 595.693 663.465C604.045 666.17 612.614 673.725 614.335 686.352C616.996 705.874 604.618 717.023 587.201 719.396L585.822 719.584C560.115 722.422 550.544 709.682 548.338 693.499L559.804 691.936C561.377 703.475 568.508 710.782 584.764 708.566C599.641 706.539 604.217 698.893 602.803 688.515C601.745 680.75 596.79 676.399 590.721 674.713C581.808 672.231 570.461 673.039 560.215 670Z" fill="#F03971"/>
<path d="M762.783 665.115C750.441 649.273 733.18 631.93 718.729 619.898L723.628 634.323C730.67 655.059 733.543 663.289 737.193 674.038L720.133 679.832L688.853 587.733L703.652 583.249C716.818 593.319 742.279 614.994 751.258 630.044L744.319 611.207C739.844 598.03 735.648 584.991 732.173 572.711L749.119 567.034C751.411 575.15 754.853 585.739 758.763 597.251C764.204 613.271 770.581 631.139 776.117 647.437C777.483 651.459 778.779 655.505 780.051 659.25L762.783 665.115Z" fill="#F03971"/>
<path d="M785.346 602.265C776.54 601.388 769.518 596.657 765.703 585.422C760.521 570.165 769.492 559.228 787.177 553.222L787.801 553.01C804.445 547.357 819.97 548.427 827.047 559.018L810.517 572.522C804.948 566.601 798.018 565.783 793.163 567.432C787.199 569.458 782.499 573.839 784.101 578.555C786.409 585.351 790.858 585.697 795.398 585.856C805.059 586.288 810.195 585.24 820.786 586.361C829.525 587.493 839.488 592.231 844.151 605.963C851.218 626.768 838.849 639.091 822.205 644.743L820.887 645.191C796.194 652.881 783.164 642.301 777.794 626.489L796.288 620.362C799.657 630.279 805.77 634.159 816.311 630.579C823.801 628.035 830.027 623.136 826.588 613.01C824.021 605.451 817.778 603.24 811.475 602.673C802.229 601.869 796.007 603.363 785.346 602.265Z" fill="#F03971"/>
<path d="M674.926 653.033L645.705 610.848L645.139 663.543C649.611 661.1 654.07 659.786 660.585 657.52L674.926 653.033ZM633.793 596.272L647.409 592.259L704 673.282C705.744 675.97 709.078 681.997 710.504 686.249L697.446 690.098C696.906 688.266 694.261 682.815 692.991 680.853L682.489 665.775C671.333 669.323 653.784 674.668 645.579 679.423L645.082 695.06C644.966 697.604 645.354 703.028 646.011 705.257L633.112 709.059C632.534 706.806 631.903 699.377 631.929 695.648L633.793 596.272Z" fill="#F03971"/>
<path d="M877.913 525.303L888.495 521.19C895.783 530.041 900.65 534.573 908.64 541.018C914.473 545.798 917.619 548.569 919.938 550.644C921.408 537.851 924.001 518.546 923.631 507.27L934.321 503.035L969.351 591.256L958.661 595.491L933.571 532.559C932.336 544.157 929.872 561.204 930.094 563.952L921.706 567.039C920.73 566.165 913.813 560.24 903.262 551.106C900.645 548.677 901.228 549.155 899.451 547.653L923.865 609.277L913.107 613.539L877.913 525.303Z" fill="#F03971"/>
<path d="M979.876 487.864C990.838 483.52 1012.62 480.641 1029.96 523.404L1030.26 524.154C1034.76 535.525 1036.89 547.052 1036.18 554.816C1035.04 566.849 1027.14 576.751 1015.91 581.202C1007.6 584.494 996.35 585.721 988.083 580.961C978.933 575.763 972.545 566.003 967.582 553.474C958.086 529.505 957.882 517.06 960.032 508.567C962.044 500.522 969.334 492.276 979.876 487.864ZM997.178 565.541C1002.37 569.311 1005.39 569.376 1010.43 567.38C1015.81 565.248 1017.48 559.705 1017.51 553.625C1017.76 548.879 1014.98 537.69 1012.38 530.922L1011.92 529.765C1009.03 522.479 1004.4 512.576 999.357 507.01C993.773 500.871 989.369 500.095 985.284 501.714C980.858 503.467 978.945 506.194 978.136 512.108C977.175 519.028 978.448 529.001 985.003 545.548C987.62 552.153 992.633 562.221 997.178 565.541Z" fill="#F03971"/>
<path d="M1101.88 412.864C1112.84 408.52 1134.62 405.641 1151.96 448.404L1152.26 449.154C1156.76 460.525 1158.89 472.052 1158.18 479.816C1157.04 491.849 1149.14 501.751 1137.91 506.202C1129.6 509.494 1118.35 510.721 1110.08 505.961C1100.93 500.763 1094.55 491.003 1089.58 478.474C1080.09 454.505 1079.88 442.06 1082.03 433.567C1084.04 425.522 1091.33 417.276 1101.88 412.864ZM1119.18 490.541C1124.37 494.311 1127.39 494.376 1132.43 492.38C1137.81 490.248 1139.48 484.705 1139.51 478.625C1139.76 473.879 1136.98 462.69 1134.38 455.922L1133.92 454.765C1131.03 447.479 1126.4 437.576 1121.36 432.01C1115.77 425.871 1111.37 425.095 1107.28 426.714C1102.86 428.467 1100.94 431.194 1100.14 437.108C1099.17 444.028 1100.45 454.001 1107 470.548C1109.62 477.153 1114.63 487.221 1119.18 490.541Z" fill="#F03971"/>
<path d="M1092.15 537.313C1078.93 525.991 1061.28 514.244 1046.93 506.523L1053.58 517.927C1063.14 534.321 1067 540.814 1071.96 549.312L1058.47 557.181L1016 484.367L1027.79 478.002C1040.71 484.28 1066.08 498.289 1076.3 509.52L1067.16 494.72C1061.08 484.303 1055.26 473.954 1050.19 464.125L1063.6 456.376C1066.95 462.873 1071.7 471.271 1077.01 480.373C1084.4 493.039 1092.9 507.111 1100.42 519.996C1102.28 523.176 1104.08 526.388 1105.8 529.349L1092.15 537.313Z" fill="#F03971"/>
<path d="M346.118 624.437L311.806 574.761L311.058 636.754C316.324 633.887 321.571 632.348 329.239 629.692L346.118 624.437ZM297.816 557.594L313.84 552.895L380.29 648.304C382.338 651.469 386.251 658.565 387.922 663.57L372.554 668.077C371.922 665.922 368.819 659.505 367.327 657.194L354.996 639.439C341.865 643.595 321.21 649.856 311.551 655.437L310.941 673.833C310.801 676.825 311.248 683.207 312.018 685.831L296.837 690.283C296.161 687.632 295.429 678.891 295.466 674.504L297.816 557.594Z" fill="#F03971"/>
<path d="M711.229 485.2C705.1 472.398 690.705 456.387 686.648 441.905C690.405 457.886 686.919 479.591 686.916 493.663C692.234 490.895 703.538 487.807 711.229 485.2ZM668.154 413.853L689.256 408.089L748.535 501.331C752.881 508.345 757.491 515.589 759.524 523.031L733.523 530.133C732.005 524.575 729.648 519.651 726.871 515.044L720.923 505.128C706.681 509.321 698.571 511.132 688.038 517.045L687.528 526.296C687.213 532.557 687.104 538.458 687.928 542.586L663.434 549.276C662.242 543.427 662.393 535.084 662.784 526.879L668.154 413.853Z" fill="#F03971"/>
<path d="M781.788 453.006C766.579 452.826 753.848 445.777 745.63 427.114C734.471 401.768 748.191 381.698 777.569 368.763L778.605 368.307C806.255 356.132 832.995 355.637 846.701 372.709L820.424 398.309C810.001 389.006 798.014 388.645 789.949 392.196C780.041 396.558 772.651 404.764 776.1 412.598C781.071 423.888 788.74 423.812 796.538 423.405C813.143 422.696 821.78 420.131 840.081 420.463C855.212 421.09 872.981 427.709 883.024 450.52C898.242 485.082 878.914 508.034 851.264 520.208L849.075 521.172C807.951 538.041 784.055 521.879 772.489 495.612L803.236 482.35C810.489 498.824 821.538 504.55 839.05 496.84C851.492 491.362 861.417 482.04 854.011 465.22C848.482 452.662 837.462 449.812 826.585 449.787C810.634 449.796 800.205 453.287 781.788 453.006Z" fill="#F03971"/>
<path d="M1023.79 465.143C1010.23 470.228 993.997 471.747 985.318 457.928C980.972 461.037 976.449 463.674 971.735 465.443C958.063 470.571 943.433 470.278 930.541 464.224C914.157 456.387 900.409 436.941 890.638 410.894C881.487 386.497 876.416 362.585 882.219 344.006C887.875 325.751 897.996 317.249 912.493 311.811C932.176 304.428 948.721 306.961 964.266 320.087C981.166 334.317 988.652 352.482 993.56 365.565C1000.24 383.362 1005.5 404.916 1002.4 422.478C1000.61 432.025 999.799 437.035 997.545 442.855C1002.07 450.972 1006.43 451.487 1015.99 448.304L1017.29 447.818C1021.65 446.182 1024.18 444.694 1026.75 442.926L1033.29 460.369C1030.92 461.931 1029.09 463.154 1023.79 465.143ZM952.709 414.365C965.085 409.723 976.267 410.503 984.062 421.964C987.523 411.12 982.734 393.692 975.483 374.362L974.289 371.18C969.647 358.805 964.209 345.383 951.479 335.101C942.653 328.059 930.925 325.467 919.022 329.933C897.689 337.935 893.728 362.142 906.637 396.557C911.147 408.579 921.344 434.331 934.355 443.568C932.953 426.212 944.341 417.504 952.709 414.365ZM976.712 440.72C971.982 429.185 966.412 426.165 956.63 429.834C948.851 432.752 944.535 440.959 947.409 448.62L947.586 449.091C952.536 451.537 958.871 450.505 963.939 448.604C968.064 447.056 972.676 444.654 976.712 440.72Z" fill="#F03971"/>
<path d="M1069.26 271.874L1093.47 266.23C1094.45 271.062 1095.5 274.318 1096.86 278.186L1097.81 280.856C1102.62 294.486 1107.12 306.36 1110.79 316.766L1112.71 322.199C1120.41 344.025 1127.29 365 1121.27 380.795C1116.87 392.393 1105.93 399.256 1094.22 403.909C1065.85 413.919 1051.33 401.54 1040.02 374.775C1037.06 367.846 1032.85 356.492 1028.36 343.784C1022.68 327.668 1016.52 309.337 1011.84 294.315L1035.6 285.93C1040.69 301.531 1047.76 322.75 1053.9 340.155L1058.49 353.14C1060.57 359.033 1062.38 363.882 1064.04 367.126C1068.39 375.328 1074.18 388.816 1087.21 384.635C1105.33 377.306 1098.39 356.765 1089.07 330.335C1084.97 318.732 1079.67 305.173 1074.05 289.241C1071.71 282.611 1070.39 278.001 1069.26 271.874Z" fill="#F03971"/>
<path d="M1128.32 241.322C1133.26 238.947 1139.62 236.433 1146.7 233.631L1155.6 230.112L1165.59 226.161C1179.12 220.809 1191.58 216.197 1198.3 213.539L1199.75 212.964L1205.14 226.586L1148.02 249.178L1159.8 278.964L1199.58 263.232L1204.96 276.854L1165.19 292.586L1166.26 295.31C1173.56 313.745 1180.79 332.832 1183.56 339.825L1231.16 320.787C1236.25 318.775 1240.85 314.223 1240.85 314.223L1250.16 326.083C1246.27 328.988 1243.7 331.789 1236.8 334.518L1174.87 359.013L1128.32 241.322Z" fill="#F03971"/>
<path d="M501.654 645.194C474.615 603.849 449.831 569.801 418.014 529.692L421.873 555.08C427.416 591.543 434.257 635.704 437.133 654.621L417.345 657.629L392.731 495.719L412.595 493.209C431.757 513.724 475.659 571.35 494.911 600C492.203 583.859 489.506 566.953 486.97 550.276C483.451 527.129 480.363 504.298 478.248 482.846L497.413 479.933C498.804 494.109 501.374 512.69 504.458 532.976C508.734 561.101 514.037 592.636 518.388 621.259C519.466 628.353 520.42 635.466 521.423 642.062L501.654 645.194Z" fill="#F03971"/>
<path d="M602.139 601.587L561.256 466.922C537.407 474.163 532.384 475.819 523.23 478.598L515.661 453.665C530.356 449.203 585.004 432.481 607.649 425.606C616.442 422.937 625.203 421.461 628.349 421.427L628.546 448.073C628.546 448.073 621.843 448.529 614.616 450.723L592.574 457.415L633.456 592.079L602.139 601.587Z" fill="#F03971"/>
</g>
<defs>
<filter id="filter0_d_124_20609" x="92" y="129" width="1271.84" height="713.5" filterUnits="userSpaceOnUse" color-interpolation-filters="sRGB">
<feFlood flood-opacity="0" result="BackgroundImageFix"/>
<feColorMatrix in="SourceAlpha" type="matrix" values="0 0 0 0 0 0 0 0 0 0 0 0 0 0 0 0 0 0 127 0" result="hardAlpha"/>
<feOffset dx="15" dy="19"/>
<feGaussianBlur stdDeviation="2"/>
<feComposite in2="hardAlpha" operator="out"/>
<feColorMatrix type="matrix" values="0 0 0 0 0 0 0 0 0 0 0 0 0 0 0 0 0 0 0.25 0"/>
<feBlend mode="normal" in2="BackgroundImageFix" result="effect1_dropShadow_124_20609"/>
<feBlend mode="normal" in="SourceGraphic" in2="effect1_dropShadow_124_20609" result="shape"/>
</filter>
</defs>
</svg>
