<svg width="1242" height="693" viewBox="0 0 1242 693" fill="none" xmlns="http://www.w3.org/2000/svg">
<rect x="3" y="3" width="1236" height="687" rx="17" fill="white" stroke="black" stroke-width="6"/>
<path d="M120.015 188.921L106.822 178.071C112.257 166.664 149.108 115.94 158.115 99.8547L172.34 108.892C165.075 120.628 160.772 126.083 158.055 129.721C147.582 143.684 132.706 161.549 128.931 167.255C128.931 167.255 162.458 139.766 166.028 136.095C167.178 137.04 168.795 138.645 170.601 140.131C172.736 141.887 175.215 143.559 177.478 144.043C169.251 157.283 153.208 186.945 153.208 186.945C160.397 180.101 172.189 165.204 183.635 152.96C186.78 149.582 192.333 142.495 202.868 133.814L213.419 145.979C199.047 157.652 155.909 201.738 145.909 210.215L132.442 199.14C132.442 199.14 146.483 174.256 153.195 162.523C140.267 172.998 120.829 188.489 120.015 188.921Z" fill="#F03971"/>
<path d="M103.453 112.049L79.9676 104.569L85.819 86.0155C87.4797 81.4133 91.3007 76.767 94.0797 73.388C101.771 64.0352 113.76 61.7567 127.023 64.5715L125.96 78.1626C119.606 76.1732 113.473 77.6035 109.056 82.9738C106.575 85.9908 106.482 90.1627 109.241 92.8356L103.453 112.049ZM75.8411 92.9823L52.3554 85.5024L58.1465 66.8991C59.5697 62.7086 62.9334 58.4954 65.6131 55.237C65.9108 54.875 66.2193 54.6229 66.4674 54.3212C74.1591 44.9684 86.5078 39.5466 102.271 42.3952L101.362 56.4155C93.5881 54.6754 87.3991 56.6661 82.3375 62.8209C79.36 66.4413 78.437 70.6386 81.6283 73.7689L75.8411 92.9823Z" fill="#F03971"/>
<path d="M1097.87 277.489L1121.36 284.968L1115.51 303.522C1113.85 308.124 1110.02 312.771 1107.25 316.15C1099.55 325.502 1087.56 327.781 1074.3 324.966L1075.36 311.375C1081.72 313.364 1087.85 311.934 1092.27 306.564C1094.75 303.547 1094.84 299.375 1092.08 296.702L1097.87 277.489ZM1125.48 296.555L1148.97 304.035L1143.18 322.639C1141.69 326.779 1138.33 330.993 1135.6 334.311C1135.35 334.613 1135.11 334.915 1134.86 335.216C1127.17 344.569 1114.82 349.991 1099.05 347.142L1099.96 333.122C1107.74 334.862 1113.93 332.871 1118.99 326.717C1121.96 323.096 1122.89 318.899 1119.7 315.769L1125.48 296.555Z" fill="#F03971"/>
<path d="M720.971 195.559L704.17 192.474C703.388 179.863 710.998 117.629 711.068 99.1938L727.892 100.194C727.233 113.981 726.118 120.838 725.508 125.338C723.125 142.628 718.786 165.468 718.254 172.289C718.254 172.289 734.232 131.985 735.572 127.042C737.036 127.311 739.228 127.93 741.529 128.353C744.247 128.852 747.227 129.111 749.44 128.436C748.671 144.005 749.036 177.725 749.036 177.725C752.001 168.253 755.083 149.506 759.15 133.246C760.261 128.766 761.678 119.874 766.677 107.172L781.806 112.689C774.904 129.87 758.575 189.35 753.945 201.615L736.795 198.466C736.795 198.466 736.998 169.894 737.174 156.378C730.953 171.81 721.473 194.787 720.971 195.559Z" fill="#F03971"/>
<path d="M808.908 137.25C820.207 135.648 841.354 137.875 847.975 182.036L848.084 182.808C849.746 194.527 849.133 205.853 846.71 212.997C842.91 224.06 833.24 231.587 821.661 233.23C813.099 234.444 802.235 233.049 795.536 226.697C788.105 219.733 784.307 209.104 782.476 196.192C778.973 171.49 781.601 159.735 785.548 152.232C789.264 145.119 797.991 139.013 808.908 137.25ZM807.587 214.25C811.621 218.976 814.447 219.72 819.64 218.984C825.184 218.198 828.006 213.359 829.415 207.647C830.722 203.238 830.644 192.082 829.729 185.124L829.559 183.931C828.495 176.422 826.38 166.056 822.898 159.677C819.037 152.637 815.069 150.909 810.858 151.506C806.297 152.153 803.879 154.285 801.779 159.666C799.306 165.958 798.244 175.63 800.662 192.682C801.628 199.489 804.063 210.097 807.587 214.25Z" fill="#F03971"/>
<path d="M295.394 158.604C293.107 146.269 290.778 134.879 288.471 125.936C294.038 124.471 303.792 121.869 311.667 120.408L312.921 120.176C328.392 117.307 340.649 121.593 343.492 136.925C345.353 146.96 342.324 150.838 337.627 154.665C349.568 155.694 360.948 161.081 363.869 176.83C367.772 197.877 356.579 205.936 345.2 209.488C342.546 210.34 339.728 211.079 337.01 211.583C331.853 212.54 327.746 212.941 321.823 214.039L319.175 214.531L305.655 217.038C303.096 203.239 300.874 188.153 295.394 158.604ZM325.538 140.399C324.142 132.872 318.11 133.775 316.508 134.072L316.229 134.124L315.114 134.331C312.396 134.835 311.237 135.194 309.185 135.791C309.846 138.191 310.338 140.839 310.868 143.696C311.565 147.46 312.245 151.515 312.995 155.557L315.643 155.065C320.731 154.122 327.684 151.967 325.642 140.956L325.538 140.399ZM326.748 167.135C323.333 167.768 323.568 167.869 318.481 168.812L315.415 169.381C318.403 186.272 319.858 194.508 320.797 199.957C324.25 199.532 327.007 199.237 329.655 198.746C331.746 198.359 333.811 197.831 336.198 197.1C338.377 196.408 348.086 192.012 345.734 179.329C343.511 167.342 335.111 165.584 326.748 167.135ZM369.265 144.904C366.978 132.569 364.649 121.179 362.342 112.236C367.909 110.771 377.663 108.169 385.538 106.708L386.792 106.476C402.263 103.607 414.52 107.893 417.363 123.225C419.224 133.26 416.195 137.138 411.498 140.965C423.439 141.994 434.819 147.381 437.74 163.13C441.643 184.177 430.45 192.236 419.071 195.788C416.417 196.64 413.599 197.379 410.881 197.883C405.724 198.84 401.617 199.241 395.694 200.339L393.045 200.831L379.526 203.338C376.967 189.539 374.745 174.453 369.265 144.904ZM399.409 126.699C398.013 119.172 391.981 120.075 390.378 120.372L390.1 120.424L388.985 120.631C386.267 121.135 385.108 121.494 383.056 122.091C383.717 124.491 384.209 127.139 384.738 129.996C385.436 133.76 386.116 137.815 386.866 141.857L389.514 141.365C394.601 140.422 401.555 138.267 399.513 127.256L399.409 126.699ZM400.619 153.435C397.204 154.068 397.439 154.169 392.352 155.112L389.286 155.681C392.274 172.572 393.729 180.808 394.668 186.257C398.121 185.832 400.878 185.537 403.526 185.046C405.617 184.659 407.682 184.131 410.069 183.4C412.248 182.708 421.957 178.312 419.605 165.629C417.382 153.642 408.982 151.884 400.619 153.435Z" fill="#F03971"/>
<path d="M856.56 136.775C856.941 124.235 857.081 112.61 856.723 103.381C862.475 103.13 872.559 102.656 880.564 102.9L881.839 102.938C897.567 103.416 908.635 110.205 908.162 125.791C907.852 135.993 904.069 139.14 898.668 141.883C910.118 145.422 920.096 153.1 919.61 169.111C918.96 190.506 906.313 196.007 894.438 197.065C891.665 197.335 888.754 197.459 885.991 197.375C880.748 197.216 876.65 196.737 870.628 196.554L867.936 196.472L854.192 196.055C854.618 182.028 855.648 166.813 856.56 136.775ZM889.88 125.378C890.112 117.726 884.026 117.329 882.396 117.279L882.113 117.271L880.979 117.236C878.217 117.152 877.008 117.257 874.876 117.405C875.013 119.891 874.931 122.583 874.843 125.488C874.727 129.314 874.531 133.421 874.407 137.53L877.099 137.611C882.27 137.768 889.522 137.138 889.862 125.944L889.88 125.378ZM885.391 151.762C881.919 151.656 882.128 151.804 876.956 151.647L873.839 151.553C873.176 168.693 872.851 177.05 872.613 182.574C876.078 182.892 878.834 183.189 881.526 183.27C883.652 183.335 885.781 183.258 888.27 183.05C890.545 182.835 900.966 180.599 901.358 167.705C901.728 155.52 893.892 152.02 885.391 151.762ZM931.656 139.056C932.037 126.516 932.177 114.891 931.819 105.662C937.571 105.411 947.654 104.938 955.66 105.181L956.935 105.219C972.663 105.697 983.731 112.486 983.258 128.072C982.948 138.274 979.165 141.421 973.763 144.164C985.214 147.703 995.192 155.381 994.706 171.392C994.056 192.787 981.409 198.288 969.534 199.346C966.761 199.616 963.85 199.741 961.087 199.657C955.844 199.497 951.746 199.018 945.724 198.835L943.032 198.754L929.288 198.336C929.714 184.309 930.743 169.094 931.656 139.056ZM964.976 127.659C965.208 120.007 959.122 119.61 957.492 119.56L957.209 119.552L956.075 119.517C953.312 119.433 952.104 119.538 949.972 119.686C950.109 122.172 950.027 124.865 949.939 127.769C949.823 131.595 949.627 135.702 949.502 139.811L952.195 139.893C957.366 140.05 964.618 139.419 964.958 128.225L964.976 127.659ZM960.487 154.043C957.015 153.937 957.224 154.086 952.052 153.929L948.935 153.834C948.272 170.974 947.947 179.332 947.709 184.855C951.174 185.173 953.93 185.47 956.622 185.552C958.748 185.616 960.877 185.539 963.365 185.331C965.641 185.117 976.062 182.88 976.454 169.986C976.824 157.801 968.988 154.301 960.487 154.043Z" fill="#F03971"/>
<path d="M222.437 141.541C233.364 143.257 240.418 144.479 247.11 145.706C254.43 147.049 261.389 148.398 272.727 150.621L269.959 165.318C261.384 163.746 260.612 163.243 253.989 162.029L242.467 224.842C245.674 225.43 244.641 225.168 248.197 225.821C251.334 226.396 254.598 227.067 258.185 227.941L255.479 243.082C249.618 241.646 245.308 240.784 240.916 239.978C237.639 239.377 234.211 238.82 230.097 238.066C224.939 237.12 216.414 236.06 205.608 234.078L208.37 219.02C214.347 219.828 217.009 220.244 220.982 220.973L224.608 221.638L236.129 158.825C231.515 158.051 227.611 157.335 220.144 156.397L222.437 141.541Z" fill="#F03971"/>
<path d="M444.696 214.877L461.678 122.296L479.525 125.57L465.228 203.511L494.927 208.958C499.078 209.503 499.884 209.435 503.143 208.952L505.643 223.606C502.162 224.121 497.61 224.583 492.381 223.624L444.696 214.877Z" fill="#F03971"/>
<path d="M1006.51 210.447L1023.49 117.865L1041.34 121.139L1027.04 199.08L1056.74 204.527C1060.89 205.073 1061.7 205.004 1064.95 204.521L1067.46 219.176C1063.97 219.69 1059.42 220.152 1054.19 219.193L1006.51 210.447Z" fill="#F03971"/>
<path d="M546.161 200.179L544.008 190.638C542.574 184.277 538.972 166.053 537.084 157.687C529.86 151.106 507.837 127.882 502.627 121.21L515.57 108.046C519.567 112.884 534.562 130.718 542.76 139.041C547.321 127.695 550.841 105.612 552.081 98.8656L569.966 104.713C568.213 112.083 557.821 146.543 554.541 154.548C555.29 157.867 555.916 161.286 556.773 165.089C558.671 174.47 560.779 184.457 561.45 187.43L563.446 196.28L546.161 200.179Z" fill="#F03971"/>
<path d="M1107.97 195.748L1105.82 186.207C1104.39 179.846 1100.78 161.622 1098.9 153.256C1091.67 146.675 1069.65 123.451 1064.44 116.779L1077.38 103.615C1081.38 108.453 1096.37 126.287 1104.57 134.61C1109.13 123.264 1112.65 101.181 1113.89 94.4349L1131.78 100.282C1130.03 107.653 1119.63 142.112 1116.35 150.118C1117.1 153.436 1117.73 156.855 1118.59 160.658C1120.48 170.039 1122.59 180.026 1123.26 183L1125.26 191.85L1107.97 195.748Z" fill="#F03971"/>
<path d="M606.918 146.076C610.108 145.935 613.651 145.864 617.195 145.864C624.283 145.864 631.442 146.076 636.262 146.076H644.696C650.508 146.076 661.281 146.147 668.865 146.218H670.141V163.583H668.865C659.297 163.371 644.98 163.371 636.12 163.371C633.072 163.371 626.622 163.158 619.534 163.158C615.494 163.158 611.242 163.229 607.343 163.442V154.794L606.918 146.076Z" fill="#F03971"/>
<path d="M460.807 385.822L436.911 385.552V266.882H498.447C507.61 266.882 511.652 268.409 514.707 269.936L507.7 288.173C505.364 286.915 503.388 285.747 494.584 285.657H488.296C478.953 285.657 476.797 285.657 460.358 285.747V308.924C471.138 308.924 467.724 308.744 478.684 308.744C486.769 308.744 492.787 310.361 496.381 311.978L490.272 330.125C486.948 328.598 482.457 328.148 478.414 328.148H470.778C468.083 328.148 466.197 328.148 460.358 328.328C460.358 339.378 460.807 377.287 460.807 385.822Z" fill="#F03971"/>
<path d="M803.089 385.822V285.388C785.302 285.388 781.529 285.477 774.702 285.477V266.882C785.661 266.882 826.446 266.792 843.335 266.792C849.892 266.792 856.181 267.601 858.337 268.229L852.947 286.466C852.947 286.466 848.275 285.388 842.885 285.388H826.446V385.822H803.089Z" fill="#F03971"/>
<path d="M560.798 243.608C574.104 237.939 600.725 233.727 623.319 285.619L623.706 286.528C629.585 300.33 632.551 314.397 631.929 323.939C630.906 338.728 621.536 351.117 607.9 356.926C597.817 361.221 584.059 363.079 573.773 357.501C562.392 351.413 554.255 339.646 547.777 324.439C535.384 295.348 534.744 280.094 537.115 269.613C539.33 259.686 548.011 249.348 560.798 243.608ZM584.443 338.309C590.933 342.77 594.637 342.754 600.752 340.149C607.282 337.367 609.148 330.518 609 323.063C609.154 317.236 605.397 303.604 601.994 295.387L601.396 293.982C597.628 285.138 591.639 273.141 585.284 266.474C578.246 259.122 572.821 258.308 567.863 260.42C562.491 262.709 560.23 266.113 559.424 273.389C558.462 281.904 560.334 294.093 568.89 314.176C572.305 322.193 578.766 334.38 584.443 338.309Z" fill="#F03971"/>
<path d="M698.764 360.694C700.367 336.114 698.684 306.15 695.248 283.343L687.979 300.557C677.531 325.302 673.455 335.185 668.039 348.013L647.68 339.416L694.086 229.513L711.304 237.466C715.162 257.427 720.829 298.046 716.79 319.158L725.786 296.238C732.425 280.514 739.208 265.143 746.033 251.057L766.191 259.667C761.676 268.974 756.199 281.484 750.398 295.221C742.326 314.339 733.606 335.913 725.394 355.361C723.368 360.161 721.258 364.926 719.371 369.395L698.764 360.694Z" fill="#F03971"/>
<path d="M240.088 527.129L133 692.5H1109.5L1014.28 527.981C1010.7 521.804 1004.11 518 996.967 518H256.876C250.094 518 243.775 521.437 240.088 527.129Z" fill="black"/>
<circle cx="314" cy="331" r="56" fill="#F03971"/>
<circle cx="927" cy="331" r="56" fill="#F03971"/>
</svg>
