<svg width="1440" height="389" viewBox="0 0 1440 389" fill="none" xmlns="http://www.w3.org/2000/svg">
<g clip-path="url(#clip0_124_20627)">
<path fill-rule="evenodd" clip-rule="evenodd" d="M716.522 77.8608V102.804H719.625V79.0534L731.578 65.3894L729.651 63.379L716.522 77.8608Z" fill="#F03971"/>
<path fill-rule="evenodd" clip-rule="evenodd" d="M1434.04 290.862V276.38H1424.41V256.242H1410.53V276.38H1402.43V247.008H1380.84V261.49H1373.89V290.862H1368.1V235.32H1346.88V290.862H1338.78V228.062H1233.09V290.862H1227.31V235.32H1219.6L1166.37 235.116V273.143H1156.73V170.101H1154.02V155.21H1079.56V148.361H1069.14V143.932H1061.44V139.502H1058.37V128.632H1053.34V99.6686H1006.67V128.632H999.35V116.57H993.961V128.632H985.862V139.502H982.008V170.101H976.619V162.468H970.839V157.221L960.42 149.963V144.715C960.42 141.104 958.102 137.866 954.64 137.083V133.88H949.61V137.901C947.292 139.093 945.757 141.921 945.757 144.75V148.77L944.613 149.179C941.152 143.557 936.906 138.309 932.268 133.471L932.203 133.403V122.669H921.817C923.287 121.102 924.169 119.057 924.169 116.979V106.927C924.169 102.906 921.099 99.2938 916.853 99.2938C912.999 99.2938 909.537 102.906 909.537 106.927V116.195C898.727 110.164 887.166 106.552 874.429 105.734C874.821 104.916 875.213 104.132 875.213 102.906V93.2626C875.213 88.8329 871.751 85.6298 867.505 85.6298C863.651 85.6298 860.19 88.867 860.19 93.2626V102.906C860.19 104.098 860.189 104.916 860.581 105.734C848.236 106.552 836.283 110.164 825.865 116.195V106.927C825.865 102.906 822.403 99.2938 818.157 99.2938C814.303 99.2938 810.841 102.906 810.841 106.927V116.979C810.841 119.398 811.985 121.817 814.303 123.419C810.058 126.247 806.204 129.859 802.742 133.471C797.713 138.718 793.499 144.341 789.613 150.781V144.75C789.613 140.32 786.151 137.117 782.297 137.117C778.052 137.117 774.59 140.354 774.59 144.75V154.393C774.59 158.822 778.052 162.434 782.297 162.434C782.689 162.434 783.44 162.025 783.832 162.025C779.587 172.077 776.876 182.947 776.125 194.226C775.341 191.023 772.271 188.604 768.809 188.604C766.098 188.604 763.42 190.205 762.245 192.625L762.473 68.1154L719.82 0L672.955 67.468V235.695H658.682V219.203H620.863V189.83H581.509V219.203L568.021 224.45H530.985L505.152 179.778H444.961V221.486H416.09V115.854H363.836V228.062H338.884V282.82L321.379 283.059V265.783H285.454V245.338H229.933V265.783H197.274V284.729L190.35 284.831H183.786V227.279H161.806V284.831H157.952V252.221H148.318V242.578H125.946V264.318H119.382V249.836H104.718V264.318H100.08V229.289H49.9156V238.557H35.2517V284.831H17.5177V292.872H-1V388.248H1441V290.862H1434.04ZM805.257 135.89C809.111 131.869 813.748 127.848 818.386 124.611C820.313 124.611 821.456 123.794 822.631 123.01L823.774 124.611C817.602 128.632 812.213 133.062 807.184 138.309C802.154 143.557 797.941 149.179 794.055 155.619L791.736 154.018C795.198 147.578 799.835 141.547 805.224 135.89H805.257ZM790.593 156.028L792.912 157.63C786.347 170.101 782.493 184.583 782.101 199.882H779.391C779.391 184.174 783.636 169.283 790.593 155.994V156.028ZM719.657 106.143C705.45 106.143 693.693 93.8759 693.693 78.7127C693.693 63.5494 705.45 51.6232 719.657 51.6232C733.864 51.6232 745.948 63.8902 745.948 78.7127C745.948 93.5352 734.19 106.143 719.657 106.143ZM762.049 231.299V209.56C763.192 211.979 765.902 213.989 768.613 213.989C772.075 213.989 775.178 211.161 775.929 207.958C776.321 216 777.856 223.667 780.175 231.299H762.049ZM790.201 269.94H784.42V265.102C787.131 263.909 789.45 261.081 789.45 257.469V251.438C789.842 252.255 790.234 252.63 790.234 253.039V269.94H790.201ZM790.201 245.781C787.882 241.351 785.955 236.513 784.42 231.708V231.299H784.028C780.958 222.031 779.391 212.388 779.391 202.336H782.101C782.493 215.625 785.171 228.096 790.201 238.966V245.815V245.781ZM790.201 229.289C787.49 220.838 785.955 211.979 785.955 202.336H790.201V229.289ZM791.638 170.408V177.802H790.201V199.951H785.955C785.955 185.469 789.809 171.771 795.982 159.708L813.879 170.442H791.638V170.408ZM818.386 170.408L797.125 157.664C800.587 151.633 804.832 145.976 809.862 140.763C814.499 135.924 819.888 131.494 825.669 127.883L849.085 170.408H818.353H818.386ZM853.69 196.714H850.424V192.318L853.69 194.26V196.679V196.714ZM853.69 191.568L850.424 189.626V172.793L853.69 178.722V191.568ZM866.199 122.703H853.69V174.02L827.596 126.69C839.157 120.25 852.286 116.229 866.166 116.229V122.737L866.199 122.703ZM866.199 112.174C851.535 112.583 837.655 116.604 825.701 123.453L824.558 121.034V120.625C836.12 114.184 849.249 110.164 863.129 109.346C863.913 110.164 865.056 110.538 866.199 110.538V112.14V112.174ZM868.518 122.703V116.195C879.556 116.195 889.877 118.614 899.185 122.703H868.518ZM910.583 121.034L909.505 122.703H907.611C895.984 116.331 882.594 112.583 868.518 112.174V110.573C869.661 110.573 870.836 110.164 871.979 109.38C885.86 110.198 898.989 114.219 910.55 120.659V121.068L910.583 121.034ZM932.954 157.255V160.083L932.105 160.594V149.179C933.477 151.156 934.816 153.166 936.057 155.245L932.987 157.255H932.954ZM939.127 153.234C936.906 149.622 934.652 146.351 932.105 143.284V138.514C935.567 142.603 938.963 146.896 941.837 151.224L939.127 153.234Z" fill="#F03971"/>
</g>
<defs>
<clipPath id="clip0_124_20627">
<rect width="1442" height="388.248" fill="white" transform="translate(-1)"/>
</clipPath>
</defs>
</svg>
