<svg width="365" height="389" viewBox="0 0 365 389" fill="none" xmlns="http://www.w3.org/2000/svg">
<circle cx="172.304" cy="172.233" r="134.314" transform="rotate(-20.029 172.304 172.233)" fill="#D9D9D9"/>
<circle cx="172.304" cy="172.233" r="129.091" transform="rotate(-20.029 172.304 172.233)" fill="white"/>
<circle cx="172.303" cy="172.233" r="123.121" transform="rotate(-20.029 172.303 172.233)" fill="#BABABA"/>
<circle cx="172.304" cy="172.233" r="60.8143" transform="rotate(-20.029 172.304 172.233)" fill="#8F8F8F"/>
<g filter="url(#filter0_d_225_2083)">
<rect x="39.7144" y="201.028" width="268.865" height="200.056" transform="rotate(-20.029 39.7144 201.028)" fill="url(#paint0_linear_225_2083)"/>
</g>
<path d="M107.891 273.399L102.451 275.302L92.6978 248.399L106.648 243.342C108.725 242.589 109.767 242.603 110.585 242.698L110.496 247.408C109.863 247.315 109.319 247.212 107.316 247.916L105.89 248.432C103.772 249.2 103.283 249.377 99.5637 250.749L101.469 256.003C103.912 255.117 103.124 255.357 105.608 254.456C107.441 253.792 108.939 253.664 109.886 253.735L109.993 258.351C109.114 258.278 108.059 258.545 107.142 258.877L105.411 259.505C104.8 259.727 104.372 259.882 103.063 260.402C103.972 262.907 107.189 271.465 107.891 273.399ZM131.235 253.323C129.65 250.602 126.179 247.321 125.022 244.192C126.14 247.658 125.76 252.52 126.012 255.631C127.138 254.923 129.582 254.037 131.235 253.323ZM120.428 238.323L124.99 236.669L139.774 256.218C140.86 257.69 142.01 259.209 142.593 260.818L136.973 262.856C136.537 261.654 135.927 260.608 135.23 259.639L133.737 257.554C130.664 258.737 128.903 259.283 126.681 260.78L126.734 262.835C126.777 264.225 126.859 265.532 127.116 266.429L121.821 268.349C121.452 267.077 121.335 265.23 121.274 263.409L120.428 238.323ZM157.358 255.465C153.613 250.855 148.405 245.831 144.059 242.36L145.594 246.596C147.802 252.685 148.701 255.101 149.845 258.258L144.835 260.074L135.03 233.029L139.379 231.614C143.333 234.512 150.993 240.768 153.739 245.164L151.573 239.636C150.171 235.766 148.851 231.936 147.75 228.326L152.726 226.544C153.453 228.931 154.535 232.041 155.76 235.422C157.466 240.126 159.46 245.371 161.195 250.157C161.623 251.338 162.031 252.527 162.429 253.627L157.358 255.465ZM172.103 250.12L163.849 227.351C159.816 228.813 158.968 229.143 157.42 229.704L155.892 225.489C158.377 224.588 167.615 221.216 171.444 219.828C172.931 219.289 174.423 218.955 174.963 218.92L175.24 223.498C175.24 223.498 174.092 223.637 172.87 224.08L169.144 225.431L177.398 248.2L172.103 250.12ZM195.998 229.844C194.412 227.123 190.941 223.842 189.784 220.713C190.902 224.179 190.522 229.041 190.774 232.152C191.9 231.444 194.344 230.558 195.998 229.844ZM185.191 214.844L189.753 213.19L204.536 232.739C205.623 234.211 206.772 235.73 207.356 237.339L201.735 239.377C201.299 238.175 200.69 237.129 199.993 236.16L198.499 234.075C195.426 235.258 193.665 235.804 191.443 237.301L191.497 239.356C191.54 240.746 191.622 242.053 191.878 242.95L186.583 244.87C186.214 243.598 186.097 241.751 186.036 239.93L185.191 214.844ZM207.57 221.086C204.96 220.88 202.855 219.523 201.659 216.224C200.035 211.743 202.622 208.455 207.815 206.572L207.998 206.506C212.886 204.734 217.483 204.957 219.64 208.046L214.833 212.139C213.151 210.422 211.097 210.222 209.671 210.738C207.919 211.373 206.556 212.697 207.058 214.082C207.782 216.078 209.099 216.153 210.443 216.173C213.302 216.242 214.815 215.902 217.953 216.169C220.544 216.451 223.519 217.792 224.981 221.825C227.196 227.934 223.613 231.653 218.725 233.425L218.338 233.565C211.083 235.988 207.166 232.938 205.482 228.294L210.914 226.371C211.97 229.283 213.801 230.394 216.897 229.272C219.096 228.474 220.908 226.988 219.83 224.015C219.025 221.795 217.166 221.178 215.298 221.049C212.559 220.867 210.729 221.346 207.57 221.086ZM249.112 226.417C246.77 227.267 243.082 227.198 241.592 224.743C241.061 225.12 240.676 225.328 239.861 225.624C237.499 226.48 234.982 226.402 232.76 225.295C229.941 223.874 227.582 220.42 225.914 215.818C224.356 211.521 223.507 207.335 224.519 204.088C225.512 200.917 227.262 199.453 229.767 198.545C233.168 197.312 236.018 197.799 238.69 200.149C241.593 202.691 242.869 205.892 243.703 208.193C245.328 212.674 246.451 218.188 244.461 221.214C245.231 222.64 245.636 222.677 247.273 222.107L247.497 222.026C248.25 221.753 248.682 221.481 249.126 221.182L250.779 225.675C250.367 225.939 250.029 226.085 249.112 226.417ZM235.596 214.75C237.938 213.901 239.514 214.689 240.705 215.94C240.654 215.036 239.98 213.115 238.91 210.162L238.74 209.693C238.053 207.799 237.252 205.716 235.564 204.047C234.382 202.886 232.889 202.39 231.423 202.922C228.796 203.874 228.498 207.438 230.41 212.713L230.898 214.057C231.267 215.075 232.085 217.267 232.931 218.205C233.231 216.552 234.13 215.282 235.596 214.75ZM239.605 220.786L239.575 220.704C239.324 220.012 238.339 218.756 236.913 219.273C236.262 219.509 235.528 220.028 235.259 221.002C235.948 221.95 237.379 221.892 238.153 221.611L238.499 221.486C238.886 221.346 239.325 221.094 239.605 220.786ZM255.532 188.766L260.891 187.468C261.118 188.538 261.356 189.259 261.666 190.114L261.88 190.705C262.973 193.719 263.994 196.344 264.828 198.645L265.264 199.847C267.013 204.674 268.58 209.313 267.274 212.828C266.32 215.409 263.907 216.952 261.317 218.006C255.044 220.28 251.801 217.562 249.241 211.647C248.571 210.115 247.615 207.605 246.596 204.794C245.304 201.23 243.903 197.176 242.836 193.853L248.091 191.948C249.249 195.399 250.859 200.092 252.254 203.941L253.295 206.813C253.768 208.116 254.18 209.188 254.555 209.905C255.534 211.716 256.845 214.697 259.726 213.744C263.732 212.084 262.154 207.541 260.035 201.696C259.105 199.13 257.903 196.133 256.626 192.609C256.094 191.143 255.793 190.123 255.532 188.766ZM265.149 185.994C266.26 185.499 267.686 184.982 269.274 184.406L271.27 183.683L273.51 182.87C276.545 181.77 279.337 180.827 280.844 180.281L281.17 180.163L282.661 184.277L271.888 188.182L273.874 193.661L280.757 191.165L282.256 195.299L275.373 197.795L275.601 198.426C277.13 202.642 278.012 205.202 278.595 206.811L287.052 203.699C288.193 203.286 289.399 202.226 289.399 202.226L292.334 205.747C291.453 206.367 290.773 207.097 288.777 207.821L274.888 212.856L265.149 185.994ZM115.651 304.403C113.042 304.197 110.937 302.84 109.741 299.541C108.117 295.061 110.704 291.773 115.897 289.89L116.08 289.823C120.968 288.051 125.565 288.274 127.722 291.363L122.915 295.456C121.233 293.739 119.178 293.539 117.753 294.056C116.001 294.691 114.638 296.015 115.14 297.4C115.864 299.395 117.181 299.471 118.525 299.491C121.384 299.56 122.897 299.219 126.035 299.487C128.626 299.769 131.601 301.11 133.063 305.142C135.278 311.252 131.695 314.97 126.807 316.742L126.42 316.882C119.165 319.305 115.248 316.255 113.564 311.612L118.996 309.689C120.052 312.601 121.883 313.711 124.979 312.589C127.178 311.792 128.99 310.305 127.912 307.332C127.107 305.112 125.248 304.496 123.38 304.366C120.641 304.184 118.81 304.664 115.651 304.403ZM147.254 297.508C145.669 294.788 142.198 291.507 141.041 288.378C142.159 291.844 141.779 296.705 142.031 299.817C143.157 299.109 145.601 298.223 147.254 297.508ZM136.447 282.509L141.009 280.855L155.793 300.404C156.88 301.876 158.029 303.395 158.613 305.004L152.992 307.042C152.556 305.84 151.946 304.794 151.25 303.825L149.756 301.74C146.683 302.923 144.922 303.469 142.7 304.966L142.753 307.021C142.796 308.411 142.878 309.717 143.135 310.615L137.84 312.535C137.471 311.263 137.354 309.416 137.293 307.595L136.447 282.509ZM173.378 299.651C169.632 295.041 164.424 290.016 160.078 286.546L161.613 290.782C163.821 296.871 164.72 299.287 165.865 302.444L160.855 304.26L151.05 277.215L155.398 275.799C159.352 278.698 167.012 284.953 169.758 289.35L167.593 283.821C166.19 279.952 164.87 276.121 163.769 272.511L168.745 270.73C169.472 273.117 170.554 276.227 171.779 279.608C173.485 284.312 175.479 289.557 177.214 294.343C177.642 295.524 178.05 296.713 178.449 297.813L173.378 299.651ZM180.414 280.924C177.804 280.718 175.7 279.361 174.503 276.062C172.879 271.582 175.466 268.294 180.659 266.411L180.842 266.344C185.73 264.572 190.327 264.795 192.484 267.884L187.677 271.977C185.995 270.26 183.941 270.06 182.515 270.577C180.764 271.212 179.4 272.536 179.902 273.921C180.626 275.916 181.944 275.992 183.287 276.012C186.147 276.081 187.659 275.74 190.798 276.008C193.388 276.29 196.363 277.631 197.825 281.663C200.04 287.773 196.457 291.491 191.569 293.263L191.182 293.403C183.927 295.826 180.01 292.776 178.327 288.133L183.759 286.21C184.814 289.122 186.646 290.232 189.741 289.11C191.941 288.313 193.752 286.826 192.674 283.853C191.869 281.633 190.01 281.017 188.143 280.887C185.404 280.705 183.573 281.185 180.414 280.924ZM215.562 253.873L219.716 252.366C222.106 254.127 225.497 257.252 228.133 260.583C227.889 256.477 228.498 252.247 229.166 248.94L233.565 247.346C236.504 255.451 243.374 274.274 243.374 274.274L238.344 276.098L233.902 263.975C233.135 261.857 232.182 257.64 232.182 257.64C231.807 260.61 231.762 264.935 231.811 265.77L228.771 266.918C228.771 266.918 224.715 262.213 223.139 260.918C223.139 260.918 225.187 264.531 226.021 266.832L230.421 278.97L225.33 280.816L215.562 253.873ZM246.318 242.1C249.597 240.911 256.062 240.249 260.816 253.043L260.897 253.267C262.13 256.668 262.658 260.094 262.382 262.383C261.94 265.931 259.52 268.79 256.159 270.008C253.675 270.909 250.338 271.174 247.935 269.695C245.275 268.078 243.472 265.137 242.113 261.39C239.514 254.221 239.562 250.54 240.271 248.048C240.936 245.687 243.163 243.313 246.318 242.1ZM250.758 265.215C252.261 266.375 253.154 266.42 254.661 265.874C256.269 265.29 256.81 263.666 256.872 261.869C256.987 260.468 256.263 257.136 255.552 255.112L255.426 254.766C254.636 252.587 253.353 249.619 251.911 247.93C250.314 246.066 249.019 245.799 247.797 246.242C246.473 246.721 245.884 247.511 245.593 249.252C245.249 251.29 245.538 254.249 247.332 259.198C248.049 261.174 249.443 264.194 250.758 265.215ZM281.315 260.519C277.57 255.909 272.361 250.885 268.015 247.414L269.551 251.65C271.758 257.739 272.657 260.156 273.802 263.312L268.792 265.129L258.987 238.083L263.336 236.668C267.29 239.566 274.949 245.822 277.695 250.218L275.53 244.69C274.127 240.82 272.807 236.99 271.706 233.38L276.683 231.599C277.41 233.985 278.491 237.095 279.717 240.476C281.422 245.18 283.416 250.425 285.151 255.211C285.579 256.393 285.987 257.581 286.386 258.681L281.315 260.519ZM289.493 226.447C292.772 225.259 299.237 224.597 303.991 237.39L304.072 237.614C305.305 241.015 305.833 244.441 305.556 246.731C305.114 250.278 302.695 253.137 299.334 254.355C296.85 255.256 293.512 255.521 291.11 254.042C288.45 252.425 286.646 249.485 285.288 245.737C282.689 238.569 282.737 234.888 283.446 232.395C284.111 230.034 286.338 227.66 289.493 226.447ZM293.933 249.562C295.436 250.722 296.328 250.767 297.835 250.221C299.444 249.638 299.984 248.013 300.047 246.216C300.162 244.815 299.437 241.483 298.727 239.46L298.601 239.113C297.811 236.934 296.528 233.966 295.086 232.277C293.489 230.414 292.193 230.146 290.971 230.589C289.648 231.069 289.058 231.859 288.768 233.6C288.424 235.637 288.713 238.597 290.507 243.546C291.224 245.521 292.618 248.541 293.933 249.562Z" fill="white"/>
<defs>
<filter id="filter0_d_225_2083" x="35.7144" y="95.9429" width="329.122" height="293.042" filterUnits="userSpaceOnUse" color-interpolation-filters="sRGB">
<feFlood flood-opacity="0" result="BackgroundImageFix"/>
<feColorMatrix in="SourceAlpha" type="matrix" values="0 0 0 0 0 0 0 0 0 0 0 0 0 0 0 0 0 0 127 0" result="hardAlpha"/>
<feOffset dy="-9"/>
<feGaussianBlur stdDeviation="2"/>
<feComposite in2="hardAlpha" operator="out"/>
<feColorMatrix type="matrix" values="0 0 0 0 0 0 0 0 0 0 0 0 0 0 0 0 0 0 0.25 0"/>
<feBlend mode="normal" in2="BackgroundImageFix" result="effect1_dropShadow_225_2083"/>
<feBlend mode="normal" in="SourceGraphic" in2="effect1_dropShadow_225_2083" result="shape"/>
</filter>
<linearGradient id="paint0_linear_225_2083" x1="48.9048" y1="207.926" x2="331.18" y2="349.894" gradientUnits="userSpaceOnUse">
<stop stop-color="#353535"/>
<stop offset="1" stop-color="#131313"/>
</linearGradient>
</defs>
</svg>
