<svg width="836" height="834" viewBox="0 0 836 834" fill="none" xmlns="http://www.w3.org/2000/svg">
<g filter="url(#filter0_d_124_20548)">
<circle cx="428.94" cy="412.94" r="406.94" fill="#FFF200"/>
<circle cx="428.94" cy="412.94" r="391.115" fill="#FFC700"/>
<circle cx="428.939" cy="412.94" r="373.028" fill="#FFF200"/>
<circle cx="428.939" cy="412.94" r="184.253" fill="#FFC700"/>
<g filter="url(#filter1_i_124_20548)">
<circle cx="429.013" cy="413.014" r="100.831" fill="#F03971"/>
</g>
<g clip-path="url(#clip0_124_20548)">
<path d="M117.263 413.818L176.061 411.119L177.448 441.652C177.652 446.191 176.993 448.239 176.312 449.793L167.123 446.725C167.685 445.533 168.224 444.524 168.07 440.151L167.937 437.039C167.717 432.408 167.674 431.328 167.259 423.181L155.781 423.707C156.017 429.051 156.046 427.352 156.28 432.788C156.462 436.797 155.794 439.832 155.087 441.64L145.959 439.013C146.644 437.331 146.761 435.086 146.67 433.091L146.5 429.302C146.446 427.966 146.398 427.032 146.167 424.137C140.684 424.389 121.926 425.463 117.686 425.658L117.282 413.8L117.263 413.818Z" fill="#F03971"/>
<path d="M183.721 477.748L139.883 502.686C136.583 504.515 133.171 506.45 129.737 507.215L127.092 495.186C129.663 494.617 131.953 493.656 134.121 492.491L138.771 490.004C137.182 483.416 136.536 479.668 134.098 474.72L129.894 474.275C127.054 473.996 124.357 473.812 122.452 474.071L119.952 462.741C122.647 462.321 126.437 462.59 130.169 462.948L181.562 467.981L183.703 477.747L183.721 477.748ZM168.368 475.79C160.993 477.141 151.193 475.062 144.777 474.739C145.913 477.239 147.065 482.462 148.08 486.037C154.045 483.532 161.682 477.325 168.368 475.808L168.368 475.79Z" fill="#F03971"/>
<path d="M169.514 515.11L160.948 518.622C148.633 523.676 143.739 525.736 137.351 528.357L133.195 518.206L187.936 495.744L191.216 504.573C185.601 512.956 173.397 529.239 164.597 535.267L175.776 530.346C183.605 527.124 191.373 524.084 198.691 521.524L202.776 531.618C197.928 533.313 191.635 535.809 184.786 538.619C175.259 542.526 164.656 547.079 154.982 551.054C152.6 552.031 150.183 552.97 147.967 553.896L143.759 543.616C152.908 535.513 162.798 524.377 169.568 515.148L169.514 515.11Z" fill="#F03971"/>
<path d="M203.612 551.678C198.925 544.2 197.891 542.636 196.09 539.753L203.91 534.849C206.795 539.462 217.587 556.596 222.028 563.702C223.759 566.455 225.068 569.325 225.367 570.394L216.28 572.941C216.28 572.941 215.502 570.689 214.086 568.42L209.749 561.5L167.547 588L161.392 578.16L203.594 551.66L203.612 551.678Z" fill="#F03971"/>
<path d="M245.126 592.034L219.147 635.288C217.179 638.488 215.152 641.851 212.531 644.21L204.332 635.027C206.297 633.271 207.83 631.302 209.128 629.235L211.97 624.779C207.361 619.808 204.959 616.872 200.408 613.767L196.528 615.452C193.904 616.604 191.481 617.763 189.952 618.946L182.231 610.305C184.376 608.628 187.816 606.985 191.235 605.47L238.467 584.593L245.125 592.052L245.126 592.034ZM230.8 597.874C225.046 602.67 215.471 605.68 209.733 608.538C211.953 610.153 215.512 614.145 218.142 616.759C222.116 611.639 225.726 602.488 230.8 597.874Z" fill="#F03971"/>
<path d="M247.986 616.135C254.075 608.441 262.628 609.426 271.524 616.508L271.845 616.754C280.223 623.42 284.778 631.717 281.698 638.835L269.341 634.821C270.532 630.009 268.665 626.192 266.218 624.26C263.217 621.874 259.428 620.91 257.537 623.29C254.815 626.707 256.118 629.101 257.531 631.48C260.494 636.571 262.713 638.862 265.639 644.646C267.933 649.499 268.791 656.159 263.307 663.083C255.005 673.568 244.626 671.309 236.248 664.643L235.587 664.113C223.525 654.001 224.644 643.848 230.96 635.868L240.192 643.325C236.24 648.317 236.265 652.742 241.57 656.947C245.34 659.939 249.897 661.508 253.943 656.409C256.969 652.598 256.036 648.679 254.25 645.266C251.613 640.257 248.803 637.565 245.859 631.744C243.399 626.941 243.504 621.789 248.004 616.135L247.986 616.135Z" fill="#F03971"/>
<path d="M284.071 695.264C282.766 694.954 281.916 694.638 280.352 693.79C275.82 691.307 272.516 687.304 271.21 682.369C269.576 676.071 271.685 667.738 276.528 658.895C281.045 650.646 286.349 643.625 292.725 640.766C298.972 637.976 303.607 638.688 308.408 641.325C314.936 644.905 318.065 649.963 318.064 657.294C318.083 665.247 314.878 671.576 312.475 675.989C307.766 684.599 300.795 693.84 293.41 694.881C292.265 698.012 292.758 698.683 295.849 700.432L296.281 700.663C297.72 701.452 298.734 701.755 299.803 702.04L295.111 710.704C294.151 710.422 293.466 710.111 291.703 709.148C287.208 706.685 282.292 700.9 284.072 695.245L284.071 695.264ZM287.557 686.657C288.288 685.325 288.888 682.087 286.154 680.604C284.895 679.911 283.099 679.496 281.231 680.396C280.71 682.758 282.732 684.879 284.225 685.688L284.891 686.054C285.628 686.458 286.623 686.796 287.48 686.801L287.558 686.639L287.557 686.657ZM296.45 681.911C297.782 680.595 299.817 676.939 302.931 671.266L303.43 670.366C305.428 666.728 307.548 662.654 307.829 657.762C308.014 654.349 306.745 651.371 303.94 649.831C298.904 647.078 292.997 651.468 287.461 661.59L286.058 664.166C284.982 666.129 282.712 670.363 282.421 672.951C285.373 671.167 288.559 670.816 291.382 672.356C295.878 674.82 296.804 678.319 296.487 681.875L296.45 681.911Z" fill="#F03971"/>
<path d="M367.597 666.243C366.592 668.263 366.041 669.711 365.445 671.486L365.028 672.717C362.903 678.966 361.163 684.494 359.534 689.276L358.681 691.775C355.284 701.792 351.811 711.258 345.203 715.226C340.359 718.146 334.498 717.51 328.994 715.878C316.009 711.444 314.309 702.896 317.801 690.103C318.695 686.782 320.392 681.509 322.378 675.677C324.899 668.287 327.866 659.977 330.423 653.265L341.31 656.983C338.725 664.024 335.266 673.636 332.564 681.624L330.539 687.583C329.625 690.282 328.905 692.547 328.587 694.166C327.833 698.332 326.086 704.81 331.94 707C340.505 709.503 343.81 700.16 347.94 688.043C349.748 682.718 351.675 676.354 354.158 669.055C355.19 666.012 356.031 663.987 357.342 661.464L367.614 666.28L367.597 666.243Z" fill="#F03971"/>
<path d="M382.216 669.003L386.523 669.689L391.358 670.461C397.919 671.501 403.876 672.579 407.13 673.089L407.839 673.2L406.444 682.101L383.162 678.426L381.302 690.277L396.17 692.623L394.755 701.579L379.87 699.232L379.65 700.597C378.212 709.717 377.258 715.212 376.706 718.707L395.029 721.514C397.5 721.911 400.715 721.195 400.715 721.195L402.504 730.458C400.307 730.69 398.355 731.331 394.047 730.664L364.021 725.927L373.195 667.786C375.69 668.001 378.762 668.488 382.197 669.021L382.216 669.003Z" fill="#F03971"/>
<path d="M460.644 687.284C458.865 677.637 465.231 671.834 476.405 669.764L476.79 669.684C487.303 667.742 496.558 669.752 499.888 676.772L488.752 683.45C485.924 679.386 481.829 678.287 478.765 678.861C475.004 679.562 471.785 681.777 472.323 684.771C473.118 689.071 475.766 689.674 478.472 690.169C484.247 691.278 487.428 691.11 493.699 692.708C498.862 694.166 504.436 697.903 506.041 706.576C508.454 719.732 499.938 726.08 489.425 728.021L488.599 728.181C473.07 730.643 466.158 723.122 464.315 713.107L475.982 711.051C477.141 717.336 480.476 720.206 487.136 718.982C491.87 718.106 496.043 715.698 494.868 709.304C493.995 704.526 490.433 702.637 486.679 701.748C481.184 700.445 477.304 700.795 470.996 699.196C465.774 697.9 461.963 694.414 460.662 687.321L460.644 687.284Z" fill="#F03971"/>
<path d="M525.793 656.094L556.453 696.17C558.706 699.194 561.086 702.294 562.309 705.6L550.783 709.872C549.865 707.397 548.609 705.26 547.167 703.264L544.072 698.993C537.761 701.47 534.152 702.614 529.594 705.725L529.733 709.952C529.838 712.806 530.019 715.499 530.57 717.36L519.708 721.376C518.94 718.759 518.662 714.949 518.527 711.216L516.461 659.549L525.83 656.077L525.793 656.094ZM525.951 671.584C528.292 678.705 527.579 688.722 528.133 695.136C530.437 693.663 535.453 691.809 538.853 690.312C535.556 684.736 528.385 678.013 525.951 671.584Z" fill="#F03971"/>
<path d="M564.665 665.042L569.318 673.068C576.011 684.605 578.696 689.176 582.164 695.158L572.685 700.675L542.988 649.437L551.27 644.985C560.33 649.42 578.112 659.288 585.269 667.199L578.875 656.786C574.622 649.448 570.551 642.169 567.017 635.253L576.44 629.826C578.778 634.406 582.102 640.311 585.815 646.702C590.973 655.619 596.925 665.509 602.188 674.593C603.478 676.823 604.748 679.088 605.951 681.169L596.36 686.755C587.105 678.786 574.719 670.493 564.665 665.042Z" fill="#F03971"/>
<path d="M588.989 638.819C582.715 631.297 585.405 623.107 594.112 615.815L594.429 615.549C602.632 608.681 611.671 605.895 618.011 610.347L611.585 621.651C607.135 619.518 603.017 620.557 600.625 622.575C597.692 625.036 595.97 628.553 597.914 630.874C600.707 634.223 603.32 633.454 605.919 632.538C611.501 630.662 614.177 628.944 620.43 627.251C625.631 625.968 632.316 626.481 637.972 633.255C646.542 643.527 642.223 653.244 634.021 660.112L633.367 660.66C621.05 670.45 611.334 667.294 604.813 659.492L613.964 651.955C618.046 656.857 622.368 657.707 627.561 653.371C631.261 650.273 633.711 646.136 629.54 641.14C626.43 637.416 622.393 637.525 618.694 638.593C613.266 640.162 610.066 642.378 603.776 644.088C598.589 645.518 593.564 644.374 588.934 638.835L588.989 638.819Z" fill="#F03971"/>
<path d="M646.702 558.045C652.79 557.719 662.267 558.254 670.795 560.115C665.052 553.906 660.494 546.377 657.25 540.236L662.151 531.943C677.4 540.991 712.893 561.967 712.893 561.967L707.284 571.448L684.399 557.966C680.411 555.608 673.388 550.132 673.388 550.132C676.677 555.341 682.235 562.295 683.406 563.552L680.07 569.347C680.07 569.347 667.48 567.172 663.281 567.167C663.281 567.167 671.247 570.238 675.576 572.806L698.404 586.378L692.719 595.966L642.033 565.851L646.666 558.026L646.702 558.045Z" fill="#F03971"/>
<path d="M706.878 500.54L707.33 500.717C714.285 503.358 720.333 507.144 723.54 510.651C728.483 516.106 729.679 523.726 727.08 530.62C725.152 535.704 721.092 541.278 715.549 543.046C709.453 545.017 702.456 543.892 694.796 540.976C680.127 535.399 674.46 530.38 671.535 525.912C668.748 521.704 668.037 515.03 670.371 508.476C672.91 501.763 680.569 490.785 706.878 500.558L706.878 500.54ZM718.608 527.389C719.849 524.096 718.052 521.067 715.328 518.56C713.303 516.494 707.134 513.143 703.017 511.531L702.312 511.255C697.85 509.56 691.516 507.576 686.935 507.56C681.878 507.549 679.734 509.209 678.788 511.724C677.764 514.438 678.203 516.424 680.517 519.212C683.238 522.486 688.235 526.006 698.351 529.867C702.397 531.404 708.972 533.285 712.331 532.61C716.15 531.819 717.428 530.483 718.589 527.407L718.608 527.389Z" fill="#F03971"/>
<path d="M705.608 480.376L714.704 482.144C727.778 484.679 733.008 485.645 739.781 486.965L737.695 497.749L679.592 486.48L681.688 477.287C690.978 473.356 710.116 466.441 720.782 466.223L708.735 464.21C700.419 462.592 692.27 460.887 684.728 459.016L686.847 448.324C691.833 449.558 698.458 450.947 705.721 452.353C715.834 454.313 727.188 456.326 737.465 458.327C740.007 458.817 742.529 459.362 744.89 459.81L742.783 470.722C730.687 472.473 716.324 476.356 705.608 480.376Z" fill="#F03971"/>
<path d="M718.509 403.508L719.001 403.522C726.447 403.599 733.417 405.052 737.628 407.252C744.142 410.667 747.899 417.406 747.806 424.771C747.748 430.218 745.85 436.838 741.261 440.405C736.224 444.362 729.25 445.706 721.057 445.627C705.381 445.452 698.319 442.698 694.044 439.528C689.982 436.546 687.008 430.522 686.962 423.556C687.05 416.373 690.436 403.431 718.509 403.508ZM738.773 424.669C738.816 421.142 736.083 418.928 732.654 417.499C730.042 416.257 723.097 415.243 718.681 415.159L717.915 415.138C713.152 415.098 706.499 415.427 702.202 416.991C697.463 418.725 696.013 421.026 695.975 423.712C695.95 426.618 697.035 428.312 700.18 430.135C703.863 432.265 709.771 433.854 720.592 433.987C724.917 434.032 731.739 433.525 734.654 431.741C737.979 429.675 738.7 427.994 738.736 424.686L738.773 424.669Z" fill="#F03971"/>
</g>
<g clip-path="url(#clip1_124_20548)">
<path d="M225.51 214.442C227.033 211.739 228.948 209.304 231.605 206.386L235.016 202.647C228.341 196.594 228.705 196.971 224.754 193.393L228.274 189.533L253.126 212.062L249.634 215.895L238.724 205.996L237.511 207.327C234.167 210.999 231.227 214.362 229.231 217.791C237.592 225.363 235.097 223.023 239.507 227.018L235.947 230.932L211 208.349L214.493 204.422L225.51 214.456V214.442Z" fill="#F03971"/>
<path d="M247.854 195.774C241.732 188.39 238.536 179.271 245.939 173.165C250.942 169.049 255.176 168.484 259.72 170.367C262.417 171.51 265.249 173.985 267.258 176.42C273.232 183.629 276.185 192.142 268.013 198.881L267.959 198.921C261.042 204.583 253.72 202.862 247.854 195.774ZM263.496 180.078L263.118 179.621C259.208 175.007 254.529 172.654 250.038 176.352C244.766 180.697 246.654 186.171 251.764 192.344C255.85 197.28 260.529 198.45 264.777 194.953C266.678 193.339 267.461 192.008 267.852 189.91C268.229 187.005 266.611 183.817 263.51 180.078H263.496Z" fill="#F03971"/>
<path d="M267.676 156.81C269.847 155.263 271.088 154.201 274.27 152.264C280.338 148.565 288.119 145.068 291.962 151.376C294.767 155.976 293.108 158.37 292.137 160.038C294.214 159.46 299.716 158.881 302.979 164.207C306.377 169.762 302.885 174.644 295.751 179.177L295.185 179.513C292.96 180.858 291.814 181.248 289.036 182.943L285.22 185.27C281.889 179.836 281.754 179.029 274.621 167.368C271.654 162.513 270.117 160.186 267.69 156.783L267.676 156.81ZM277.156 156.232C276.064 156.904 275.646 157.227 274.85 157.819C275.659 158.948 276.266 159.876 276.819 160.778C277.682 162.176 278.41 163.508 279.624 165.498L281.592 164.301C285.84 161.719 290.331 158.599 287.728 154.335C285.908 151.363 281.242 153.743 277.156 156.232ZM283.332 168.928L282.091 169.681C286.096 176.366 285.935 176.151 287.202 178.303C290.236 176.46 290.641 176.554 292.758 175.276C298.327 171.887 300.35 169.964 298.219 166.494C296.331 163.414 291.328 163.992 286.973 166.642C285.597 167.476 285.382 167.691 283.318 168.942L283.332 168.928Z" fill="#F03971"/>
<path d="M306.026 155.344C302.251 146.535 301.765 136.878 310.598 133.112C316.558 130.57 320.779 131.229 324.608 134.309C326.874 136.165 328.883 139.339 330.124 142.244C333.818 150.852 334.236 159.85 324.487 164.006L324.433 164.033C316.194 167.516 309.654 163.804 306.026 155.344ZM325.485 144.692L325.256 144.154C322.815 138.626 318.985 135.048 313.632 137.321C307.335 140.011 307.591 145.781 310.76 153.152C313.281 159.043 317.448 161.477 322.505 159.325C324.797 158.317 325.916 157.267 326.887 155.344C328.06 152.668 327.427 149.157 325.498 144.692H325.485Z" fill="#F03971"/>
<path d="M365.575 133.354C365.75 133.986 365.871 134.47 365.912 134.726C357.16 137.698 350.013 139.998 344.363 141.558C345.658 146.413 349.501 149.843 355.987 148.122C360.531 146.911 362.541 143.697 363.323 141.652L368.164 144.073C367.233 145.849 364.725 151 357.16 153.004C347.68 155.519 341.235 149.991 338.592 140.065C336.178 130.987 339.023 122.796 348.031 120.402C360.019 117.227 364.415 128.969 365.575 133.34V133.354ZM359.641 131.43C357.767 126.454 353.668 124.087 349.339 125.23C343.932 126.669 341.801 131.82 343.069 136.716C347.168 135.6 355.259 133.138 359.641 131.444V131.43Z" fill="#F03971"/>
<path d="M415.347 125.929C418.394 125.311 421.496 125.163 425.433 125.27L430.503 125.405C430.733 116.407 430.692 116.932 430.827 111.619L436.059 111.753L435.196 145.23L430.004 145.095L430.382 130.395L428.575 130.354C423.613 130.233 419.136 130.207 415.225 130.933C414.942 142.19 415.09 138.774 414.942 144.719L409.643 144.584L410.506 111.014L415.765 111.081L415.347 125.943V125.929Z" fill="#F03971"/>
<path d="M469.205 144.504C469.528 145.163 470.607 146.104 471.416 147.005L468.072 150.408C466.602 148.834 464.795 147.691 464.768 144.329C461.828 146.333 458.039 148.592 451.648 147.503C446.105 146.561 442.532 141.262 443.435 135.896C443.853 133.434 445.31 130.718 447.562 129.063C451.176 126.441 454.587 126.225 458.417 126.871C462.503 127.557 464.444 128.485 466.022 129.857C467.06 123.737 465.321 120.415 459.806 119.487C455.329 118.734 453.117 119.352 449.733 123.549L445.97 120.186C450.083 114.82 454.762 113.609 460.574 114.591C468.422 115.923 472.643 121.787 471.403 129.077L469.596 139.756C469.407 140.886 468.894 143.898 469.218 144.517L469.205 144.504ZM452.47 142.58C459.28 143.737 463.554 139.191 464.633 138.007L465.159 134.927C463.501 133.488 461.262 132.143 457.891 131.565C453.468 130.852 449.207 132.601 448.56 136.42C447.98 139.823 449.476 142.069 452.484 142.58H452.47Z" fill="#F03971"/>
<path d="M478.347 143.952C479.48 145.902 483.013 148.969 488.285 150.663C493.962 152.493 497.954 151.914 498.884 148.996C499.356 147.53 498.466 145.378 495.405 142.97C493.369 141.343 491.468 140.603 489.499 139.971C488.69 139.702 487.854 139.473 487.045 139.218L488.582 134.47L489.148 134.645L489.31 134.698C492.789 135.815 501.662 138.532 502.957 134.537C503.793 131.968 501.325 129.978 494.92 127.92C490.348 126.454 486.559 126.817 485.656 127.046L484.833 122.298C485.521 122.109 489.283 120.832 496.524 123.159C506.233 126.279 509.51 130.919 507.892 135.922C507.069 138.491 504.076 141.733 498.925 140.455C503.321 143.118 504.777 147.61 503.833 150.529C503.172 152.56 501.905 155.088 498.884 156.218C495.931 157.308 492.466 157.334 486.762 155.492C479.776 153.246 476.122 149.238 474.437 146.871L478.361 143.952H478.347Z" fill="#F03971"/>
<path d="M522.712 132.614C525.193 133.609 526.757 134.08 530.088 135.721C536.466 138.841 543.599 143.508 540.336 150.139C537.963 154.967 535.037 154.86 533.095 154.927C534.7 156.366 538.138 160.697 535.387 166.292C532.515 172.129 526.501 171.82 518.842 168.242L518.248 167.96C515.915 166.817 514.971 166.063 512.045 164.624L508.027 162.661C510.845 156.944 511.438 156.393 517.48 144.14C519.988 139.043 521.134 136.487 522.712 132.614ZM520.864 152.304L519.57 151.672C516.077 158.626 516.158 158.384 515.025 160.603C518.221 162.163 518.356 162.566 520.568 163.642C526.42 166.507 529.13 167.18 530.937 163.521C532.528 160.28 529.36 156.38 524.775 154.133C523.332 153.421 523.035 153.353 520.878 152.291L520.864 152.304ZM528.281 140.28C527.135 139.715 526.622 139.54 525.692 139.204C525.166 140.482 524.707 141.504 524.249 142.446C523.521 143.925 522.793 145.243 521.768 147.341L523.831 148.35C528.294 150.529 533.338 152.64 535.549 148.162C537.086 145.041 532.569 142.378 528.281 140.28Z" fill="#F03971"/>
<path d="M561.467 187.206C561.48 187.933 562.06 189.237 562.424 190.407L557.961 192.102C557.286 190.058 556.127 188.269 557.516 185.189C553.996 185.781 549.614 186.251 544.26 182.593C539.608 179.419 538.583 173.124 541.671 168.619C543.087 166.561 545.555 164.705 548.292 164.14C552.675 163.266 555.871 164.49 559.08 166.682C562.505 169.022 563.88 170.677 564.743 172.573C568.25 167.449 568.074 163.71 563.449 160.549C559.7 157.993 557.435 157.63 552.594 160.038L550.585 155.411C556.572 152.25 561.332 153.111 566.2 156.433C572.78 160.912 574.142 168.014 569.962 174.106L563.827 183.05C563.179 184.005 561.453 186.52 561.48 187.22L561.467 187.206ZM547.079 178.464C552.783 182.351 558.581 180.024 560.051 179.392L561.817 176.81C560.914 174.806 559.444 172.654 556.612 170.717C552.904 168.229 548.292 168.027 546.094 171.228C544.139 174.079 544.557 176.742 547.079 178.464Z" fill="#F03971"/>
<path d="M580.952 186.265C583.649 187.798 586.09 189.708 589.002 192.371L592.737 195.787C598.833 189.157 598.455 189.52 602.055 185.606L605.912 189.13L583.217 213.81L579.388 210.3L589.353 199.459L588.018 198.235C584.35 194.886 580.992 191.941 577.567 189.923C569.935 198.222 572.295 195.747 568.276 200.132L564.366 196.554L587.114 171.806L591.038 175.303L580.938 186.238L580.952 186.265Z" fill="#F03971"/>
<path d="M631.034 218.154C631.034 218.154 621.595 225.74 615.689 230.569C611.535 233.958 607.787 237.119 605.022 239.62L601.746 235.626C605.912 231.833 607.652 230.421 612.385 226.547C614.624 224.718 620.206 220.414 620.206 220.414C611.374 221.988 599.291 222.942 591.983 223.561L588.558 219.607L614.637 198.302L617.954 202.337C614.516 205.148 604.78 212.882 598.563 217.966C608.96 217.24 617.01 215.451 627.731 214.093L631.021 218.154H631.034Z" fill="#F03971"/>
<path d="M637.372 259.526C636.806 259.862 636.388 260.118 636.145 260.225C630.845 252.68 626.625 246.48 623.537 241.517C619.222 244.113 616.997 248.753 620.476 254.482C622.903 258.504 626.557 259.526 628.742 259.701L627.771 265.013C625.802 264.623 620.152 263.668 616.093 256.971C611.023 248.605 614.542 240.885 623.348 235.572C631.398 230.717 640.096 231.16 644.91 239.109C651.329 249.708 641.255 257.186 637.358 259.526H637.372ZM637.574 253.312C641.835 250.125 642.968 245.538 640.662 241.718C637.763 236.944 632.207 236.339 627.852 238.921C630.077 242.525 634.702 249.6 637.574 253.312Z" fill="#F03971"/>
</g>
</g>
<defs>
<filter id="filter0_d_124_20548" x="0" y="0" width="835.88" height="833.88" filterUnits="userSpaceOnUse" color-interpolation-filters="sRGB">
<feFlood flood-opacity="0" result="BackgroundImageFix"/>
<feColorMatrix in="SourceAlpha" type="matrix" values="0 0 0 0 0 0 0 0 0 0 0 0 0 0 0 0 0 0 127 0" result="hardAlpha"/>
<feOffset dx="-12" dy="4"/>
<feGaussianBlur stdDeviation="5"/>
<feComposite in2="hardAlpha" operator="out"/>
<feColorMatrix type="matrix" values="0 0 0 0 0 0 0 0 0 0 0 0 0 0 0 0 0 0 0.25 0"/>
<feBlend mode="normal" in2="BackgroundImageFix" result="effect1_dropShadow_124_20548"/>
<feBlend mode="normal" in="SourceGraphic" in2="effect1_dropShadow_124_20548" result="shape"/>
</filter>
<filter id="filter1_i_124_20548" x="316.182" y="312.183" width="213.663" height="211.662" filterUnits="userSpaceOnUse" color-interpolation-filters="sRGB">
<feFlood flood-opacity="0" result="BackgroundImageFix"/>
<feBlend mode="normal" in="SourceGraphic" in2="BackgroundImageFix" result="shape"/>
<feColorMatrix in="SourceAlpha" type="matrix" values="0 0 0 0 0 0 0 0 0 0 0 0 0 0 0 0 0 0 127 0" result="hardAlpha"/>
<feOffset dx="-12" dy="10"/>
<feGaussianBlur stdDeviation="15"/>
<feComposite in2="hardAlpha" operator="arithmetic" k2="-1" k3="1"/>
<feColorMatrix type="matrix" values="0 0 0 0 0 0 0 0 0 0 0 0 0 0 0 0 0 0 0.25 0"/>
<feBlend mode="normal" in2="shape" result="effect1_innerShadow_124_20548"/>
</filter>
<clipPath id="clip0_124_20548">
<path d="M118 387L748.368 404.329L739.131 740.352L205.726 725.688C152.175 724.216 109.956 679.611 111.428 626.059L118 387Z" fill="white"/>
</clipPath>
<clipPath id="clip1_124_20548">
<rect width="436" height="154" fill="white" transform="translate(211 111)"/>
</clipPath>
</defs>
</svg>
