<svg width="391" height="527" viewBox="0 0 391 527" fill="none" xmlns="http://www.w3.org/2000/svg">
<g filter="url(#filter0_d_228_6665)">
<circle cx="142.573" cy="259.573" r="242.94" transform="rotate(26.903 142.573 259.573)" fill="#FFF200"/>
<circle cx="142.573" cy="259.573" r="233.492" transform="rotate(26.903 142.573 259.573)" fill="#FFC700"/>
<circle cx="142.573" cy="259.573" r="222.695" transform="rotate(26.903 142.573 259.573)" fill="#FFF200"/>
<circle cx="142.573" cy="259.573" r="109.998" transform="rotate(26.903 142.573 259.573)" fill="#FFC700"/>
<g filter="url(#filter1_i_228_6665)">
<circle cx="142.593" cy="259.632" r="60.1954" transform="rotate(26.903 142.593 259.632)" fill="#F03971"/>
</g>
<g clip-path="url(#clip0_228_6665)">
<path d="M-21.4604 186.309L9.06398 200.075L1.90845 215.922C0.843293 218.278 -0.0179992 219.147 -0.763694 219.76L-4.63567 215.838C-4.04387 215.378 -3.51077 215.005 -2.46285 212.747L-1.72961 211.134C-0.648789 208.728 -0.392807 208.169 1.49382 203.929L-4.4646 201.241C-5.72051 204.013 -5.2686 203.158 -6.5493 205.977C-7.48894 208.057 -8.6088 209.425 -9.43303 210.161L-13.3875 206.478C-12.6071 205.801 -11.97 204.692 -11.5026 203.656L-10.6133 201.69C-10.2971 200.998 -10.0808 200.513 -9.45262 198.985C-12.2991 197.701 -22.0925 193.417 -24.2937 192.424L-21.4464 186.304L-21.4604 186.309Z" fill="#F03971"/>
<path d="M-21.0258 251.148L-26.276 250.724C-33.8246 250.119 -36.8376 249.904 -40.7532 249.589L-40.249 243.369L-6.69494 246.065L-7.30344 251.388C-12.3103 254.196 -22.6929 259.315 -28.7092 260.109L-21.7709 260.49C-16.9701 260.87 -12.2461 261.327 -7.87502 261.912L-8.40087 268.085C-11.2964 267.697 -15.1317 267.344 -19.33 267.006C-25.1687 266.536 -31.72 266.116 -37.6515 265.643C-39.1112 265.525 -40.5792 265.379 -41.9419 265.279L-41.4303 258.98C-34.7028 257.224 -26.8189 254.12 -21.0084 251.181L-21.0258 251.148Z" fill="#F03971"/>
<path d="M-13.1404 278.477C-13.593 273.477 -13.715 272.417 -13.8864 270.491L-8.65686 270.016C-8.38067 273.099 -7.31632 284.57 -6.89231 289.318C-6.72263 291.16 -6.79752 292.953 -6.9208 293.572L-12.1869 292.525C-12.1869 292.525 -12.0019 291.183 -12.1362 289.667L-12.555 285.04L-40.787 287.621L-41.3765 281.044L-13.1446 278.463L-13.1404 278.477Z" fill="#F03971"/>
<path d="M-7.22042 322.601C-2.1506 320.265 1.9348 322.966 4.62493 328.849L4.72474 329.057C7.25931 334.595 7.43411 339.977 4.03922 342.796L-1.19662 337.578C0.646302 335.443 0.682019 333.026 -0.0624367 331.416C-0.970786 329.433 -2.64488 327.969 -4.21667 328.689C-6.47749 329.722 -6.43262 331.272 -6.32804 332.843C-6.13512 336.188 -5.59931 337.922 -5.60389 341.61C-5.6891 344.662 -6.96848 348.262 -11.5331 350.363C-18.4439 353.545 -23.1279 349.727 -25.6625 344.189L-25.8613 343.75C-29.3775 335.515 -26.1966 330.652 -20.9379 328.229L-18.1736 334.389C-21.4637 335.904 -22.5904 338.155 -20.9809 341.654C-19.8388 344.143 -17.9309 346.112 -14.5654 344.567C-12.0495 343.412 -11.5138 341.183 -11.5415 338.992C-11.59 335.772 -12.3228 333.683 -12.3174 329.972C-12.3292 326.903 -10.9495 324.316 -7.2113 322.606L-7.22042 322.601Z" fill="#F03971"/>
<path d="M-9.28226 372.034C-9.86489 371.541 -10.2144 371.162 -10.7902 370.329C-12.4501 367.903 -13.0956 365.022 -12.4879 362.181C-11.6959 358.566 -8.48064 354.881 -3.74716 351.641C0.667604 348.619 5.16581 346.423 9.13677 346.613C13.024 346.806 15.1922 348.361 16.9494 350.934C19.3397 354.431 19.6246 357.802 17.7371 361.521C15.6993 365.561 12.4446 367.947 10.0895 369.567C5.4843 372.723 -0.431591 375.617 -4.44598 374.244C-5.83283 375.538 -5.7558 376.005 -4.63745 377.688L-4.47794 377.917C-3.9512 378.687 -3.51458 379.102 -3.04561 379.522L-7.65651 382.709C-8.07073 382.319 -8.33816 381.985 -8.98453 381.043C-10.6312 378.636 -11.6361 374.436 -9.27731 372.025L-9.28226 372.034ZM-5.29838 368.565C-4.5848 368.077 -3.44691 366.589 -4.45217 365.133C-4.91245 364.457 -5.71666 363.785 -6.89604 363.76C-7.76861 364.824 -7.28856 366.421 -6.7394 367.216L-6.49597 367.573C-6.22596 367.967 -5.80837 368.395 -5.37454 368.619L-5.29343 368.556L-5.29838 368.565ZM0.434858 368.446C1.44956 368.121 3.42312 366.791 6.46288 364.714L6.94799 364.386C8.89834 363.055 11.0224 361.534 12.424 359.124C13.3966 357.44 13.5195 355.602 12.4926 354.099C10.6466 351.406 6.51963 352.113 1.10569 355.823L-0.269317 356.769C-1.32065 357.488 -3.56234 359.051 -4.37577 360.29C-2.41929 360.144 -0.71259 360.786 0.323422 362.295C1.97009 364.702 1.5392 366.715 0.463028 368.438L0.434858 368.446Z" fill="#F03971"/>
<path d="M40.5635 378.812C39.5338 379.578 38.8817 380.171 38.1222 380.918L37.5934 381.435C34.9068 384.058 32.601 386.415 30.544 388.422L29.4676 389.47C25.1658 393.677 20.9672 397.586 16.5935 397.898C13.384 398.132 10.5747 396.301 8.20234 394.056C2.7562 388.464 4.09411 383.69 9.15846 378.099C10.4671 376.644 12.6853 374.405 15.194 371.958C18.3755 368.858 22.0196 365.406 25.045 362.659L29.6111 367.347C26.4873 370.254 22.2582 374.24 18.8311 377.597L16.2694 380.099C15.111 381.233 14.1628 382.197 13.5848 382.936C12.1302 384.856 9.57569 387.692 11.9819 390.311C15.6832 393.785 19.765 389.896 24.9794 384.812C27.2672 382.576 29.8832 379.843 33.0216 376.779C34.3289 375.501 35.2765 374.69 36.591 373.747L40.5627 378.835L40.5635 378.812Z" fill="#F03971"/>
<path d="M47.2692 383.976L49.2781 385.432L51.5318 387.068C54.5929 389.285 57.3379 391.365 58.8573 392.461L59.1883 392.7L56.1894 396.857L45.3234 388.999L41.3297 394.533L48.2683 399.551L45.2454 403.73L38.2976 398.707L37.8346 399.343C34.7579 403.6 32.8593 406.142 31.6793 407.773L40.2525 413.914C41.4043 414.752 43.2192 415.216 43.2192 415.216L41.7427 420.376C40.5685 419.928 39.4128 419.751 37.399 418.304L23.3857 408.171L43.006 381.036C44.2165 381.787 45.6495 382.825 47.2551 383.98L47.2692 383.976Z" fill="#F03971"/>
<path d="M82.3525 413.439C83.9331 408.087 88.6566 406.781 94.858 408.608L95.0744 408.666C100.908 410.387 105.086 413.789 104.968 418.208L97.5992 418.729C97.2108 415.94 95.4163 414.328 93.714 413.83C91.6253 413.217 89.4221 413.512 88.9243 415.17C88.2205 417.556 89.409 418.544 90.6545 419.492C93.2984 421.541 94.9556 422.274 97.7261 424.7C99.9697 426.768 101.836 430.099 100.418 434.912C98.2552 442.208 92.3006 443.236 86.4673 441.514L86.0071 441.383C77.4951 438.635 75.9243 433.04 77.5676 427.485L84.0154 429.445C82.9861 432.932 83.9389 435.246 87.633 436.339C90.2598 437.114 92.997 436.966 94.0469 433.42C94.8339 430.772 93.513 428.896 91.8374 427.478C89.3849 425.403 87.3265 424.582 84.5377 422.147C82.2221 420.145 81.1864 417.395 82.3517 413.462L82.3525 413.439Z" fill="#F03971"/>
<path d="M123.433 414.386L128.672 442.61C129.037 444.724 129.446 446.909 129.215 448.901L122.268 448.102C122.44 446.61 122.353 445.202 122.135 443.819L121.664 440.855C117.825 440.487 115.699 440.138 112.586 440.543L111.569 442.724C110.887 444.199 110.286 445.611 110.086 446.698L103.542 445.939C103.826 444.414 104.665 442.409 105.558 440.48L117.81 413.736L123.456 414.387L123.433 414.386ZM119.526 422.285C118.881 426.5 115.94 431.399 114.57 434.795C116.118 434.641 119.141 434.991 121.251 435.107C121.013 431.43 119.106 426.173 119.526 422.285Z" fill="#F03971"/>
<path d="M140.851 428.932L141.146 434.201C141.571 441.777 141.757 444.787 141.977 448.715L135.747 449.073L133.871 415.435L139.219 415.308C142.673 419.89 149.155 429.474 150.749 435.33L150.186 428.401C149.917 423.583 149.725 418.842 149.713 414.424L155.89 414.096C155.897 417.022 156.064 420.873 156.302 425.071C156.624 430.923 157.098 437.473 157.429 443.436C157.51 444.899 157.571 446.375 157.645 447.74L151.342 448.106C148.698 441.68 144.549 434.285 140.851 428.932Z" fill="#F03971"/>
<path d="M159.942 421.889C158.695 416.458 162.168 412.995 168.462 411.537L168.692 411.484C174.621 410.111 179.924 411.024 181.994 414.915L175.824 418.996C174.116 416.768 171.759 416.235 170.026 416.643C167.905 417.137 166.126 418.478 166.515 420.156C167.069 422.574 168.593 422.856 170.147 423.061C173.462 423.546 175.262 423.363 178.87 424.114C181.839 424.802 185.099 426.783 186.224 431.675C187.928 439.093 183.236 442.911 177.306 444.283L176.833 444.393C168.065 446.189 163.948 442.088 162.648 436.45L169.231 434.983C170.04 438.52 172.013 440.064 175.765 439.201C178.439 438.582 180.747 437.113 179.917 433.505C179.298 430.815 177.222 429.831 175.07 429.421C171.912 428.82 169.718 429.12 166.087 428.369C163.087 427.759 160.833 425.885 159.909 421.883L159.942 421.889Z" fill="#F03971"/>
<path d="M210.013 395.766C213.186 397.168 217.856 399.879 221.704 403.019C220.388 398.39 220.014 393.397 219.949 389.446L224.57 386.501C229.977 395.016 242.585 414.795 242.585 414.795L237.299 418.161L229.159 405.43C227.743 403.207 225.589 398.621 225.589 398.621C225.917 402.11 226.947 407.069 227.217 408.008L224.033 410.089C224.033 410.089 218.205 405.745 216.077 404.662C216.077 404.662 219.327 408.27 220.862 410.688L228.95 423.449L223.598 426.85L205.635 398.525L210 395.747L210.013 395.766Z" fill="#F03971"/>
<path d="M255.346 382.082L255.529 382.288C258.378 385.419 260.472 388.896 261.196 391.501C262.299 395.541 260.945 399.715 257.852 402.544C255.564 404.626 252.07 406.409 248.803 405.879C245.203 405.31 241.942 402.938 238.807 399.487C232.801 392.881 231.218 388.877 230.883 385.857C230.553 383.004 231.91 379.435 234.782 376.711C237.798 373.959 244.509 370.361 255.341 382.092L255.346 382.082ZM254.385 398.723C255.862 397.372 255.73 395.373 254.994 393.4C254.499 391.83 252.231 388.542 250.557 386.664L250.271 386.343C248.443 384.335 245.741 381.698 243.42 380.51C240.858 379.203 239.343 379.493 238.216 380.526C236.998 381.639 236.709 382.76 237.165 384.77C237.703 387.131 239.332 390.203 243.47 394.766C245.127 396.588 247.979 399.234 249.857 399.756C251.998 400.338 252.99 399.989 254.371 398.728L254.385 398.723Z" fill="#F03971"/>
<path d="M259.891 371.526L264.051 374.764C270.031 379.415 272.436 381.252 275.532 383.665L271.699 388.599L245.122 367.925L248.552 363.801C254.277 364.198 265.766 365.617 271.233 368.251L265.64 364.129C261.837 361.167 258.142 358.205 254.797 355.314L258.624 350.435C260.836 352.345 263.84 354.755 267.162 357.338C271.789 360.936 277.031 364.879 281.729 368.54C282.893 369.443 284.032 370.368 285.115 371.204L281.237 376.197C274.649 373.972 266.363 372.245 259.891 371.526Z" fill="#F03971"/>
<path d="M286.224 335.849L286.47 335.983C290.228 337.939 293.39 340.47 294.96 342.67C297.386 346.079 297.557 350.466 295.614 354.178C294.182 356.926 291.515 359.797 288.269 360.425C284.695 361.136 280.811 360.022 276.674 357.873C268.767 353.749 265.893 350.534 264.54 347.825C263.247 345.267 263.289 341.445 265.059 337.899C266.952 334.278 272.002 328.584 286.224 335.849ZM291.058 351.801C291.987 350.023 291.171 348.196 289.799 346.589C288.793 345.286 285.531 342.984 283.312 341.804L282.929 341.596C280.523 340.35 277.063 338.804 274.48 338.492C271.63 338.152 270.302 338.945 269.591 340.299C268.83 341.767 268.945 342.905 270.071 344.64C271.391 346.669 273.979 348.995 279.435 351.848C281.617 352.985 285.209 354.484 287.147 354.329C289.366 354.136 290.164 353.469 291.034 351.801L291.058 351.801Z" fill="#F03971"/>
</g>
<g clip-path="url(#clip1_228_6665)">
<path d="M303.505 336.747L273.274 322.348L280.758 306.653C281.872 304.32 282.751 303.469 283.509 302.872L287.298 306.874C286.697 307.321 286.156 307.683 285.062 309.919L284.295 311.516C283.164 313.899 282.897 314.453 280.922 318.652L286.823 321.464C288.137 318.718 287.667 319.564 289.006 316.773C289.989 314.712 291.137 313.368 291.977 312.65L295.853 316.414C295.059 317.074 294.399 318.17 293.91 319.196L292.98 321.143C292.65 321.828 292.423 322.309 291.763 323.824C294.583 325.167 304.285 329.653 306.465 330.692L303.49 336.751L303.505 336.747Z" fill="#F03971"/>
<path d="M287.281 286.857L315.963 286.087C318.109 286.054 320.34 285.996 322.268 286.533L320.373 293.278C318.93 292.875 317.523 292.744 316.123 292.748L313.123 292.75C312.156 296.482 311.476 298.536 311.373 301.672L313.364 303.022C314.715 303.923 316.019 304.738 317.044 305.118L315.263 311.474C313.798 310.963 311.968 309.813 310.191 308.633L285.748 292.338L287.29 286.862L287.281 286.857ZM294.461 291.953C298.525 293.251 302.886 296.92 306.02 298.801C306.119 297.243 306.94 294.312 307.388 292.247C303.724 291.906 298.228 292.975 294.466 291.944L294.461 291.953Z" fill="#F03971"/>
<path d="M304.421 271.913L309.661 272.446C317.195 273.209 320.203 273.486 324.111 273.882L323.478 280.09L289.987 276.697L290.706 271.387C295.77 268.684 306.257 263.782 312.289 263.114L305.36 262.589C300.568 262.109 295.855 261.553 291.497 260.877L292.151 254.717C295.038 255.165 298.865 255.598 303.055 256.023C308.883 256.615 315.424 257.171 321.345 257.768C322.801 257.916 324.266 258.092 325.626 258.221L324.984 264.508C318.221 266.123 310.274 269.062 304.404 271.88L304.421 271.913Z" fill="#F03971"/>
<path d="M297.106 244.425C297.455 249.434 297.554 250.496 297.686 252.425L292.447 252.791C292.236 249.703 291.41 238.213 291.085 233.457C290.954 231.611 291.066 229.82 291.202 229.204L296.446 230.36C296.446 230.36 296.233 231.699 296.335 233.217L296.658 237.852L324.937 235.859L325.39 242.447L297.11 244.439L297.106 244.425Z" fill="#F03971"/>
<path d="M287.085 213.05L311.711 198.303C313.556 197.224 315.475 196.079 317.422 195.597L319.076 202.403C317.62 202.758 316.323 203.335 315.118 204.025L312.497 205.499C313.479 209.229 313.897 211.346 315.35 214.124L317.748 214.318C319.374 214.442 320.9 214.51 321.985 214.326L323.545 220.731C322.018 220.999 319.852 220.901 317.73 220.745L288.433 218.568L287.09 213.041L287.085 213.05ZM295.839 213.957C300.012 213.092 305.623 214.147 309.269 214.249C308.588 212.844 307.871 209.887 307.251 207.871C303.885 209.375 299.622 213.001 295.839 213.957Z" fill="#F03971"/>
<path d="M292.106 200.188C286.989 202.418 282.961 199.632 280.394 193.695L280.298 193.485C277.879 187.895 277.817 182.51 281.27 179.763L286.396 185.089C284.509 187.184 284.423 189.6 285.133 191.226C286 193.227 287.643 194.726 289.23 194.038C291.512 193.053 291.499 191.502 291.427 189.93C291.304 186.581 290.804 184.836 290.886 181.15C291.035 178.099 292.389 174.527 296.996 172.522C303.972 169.484 308.575 173.399 310.994 178.989L311.183 179.432C314.527 187.738 311.246 192.534 305.938 194.846L303.302 188.63C306.623 187.184 307.797 184.957 306.26 181.425C305.17 178.914 303.304 176.905 299.907 178.38C297.368 179.482 296.786 181.699 296.768 183.89C296.749 187.11 297.438 189.214 297.356 192.924C297.303 195.994 295.87 198.551 292.097 200.183L292.106 200.188Z" fill="#F03971"/>
<path d="M295.197 150.808C295.769 151.314 296.111 151.7 296.669 152.544C298.278 155.005 298.864 157.899 298.197 160.726C297.33 164.324 294.038 167.941 289.238 171.081C284.762 174.011 280.219 176.113 276.253 175.84C272.37 175.566 270.235 173.967 268.532 171.357C266.215 167.812 266 164.435 267.965 160.756C270.086 156.76 273.39 154.442 275.778 152.871C280.448 149.812 286.423 147.042 290.408 148.498C291.821 147.234 291.754 146.765 290.671 145.059L290.516 144.827C290.006 144.045 289.578 143.622 289.118 143.193L293.794 140.101C294.2 140.5 294.46 140.84 295.087 141.795C296.683 144.236 297.6 148.456 295.192 150.817L295.197 150.808ZM291.142 154.193C290.418 154.667 289.25 156.131 290.224 157.607C290.67 158.292 291.46 158.982 292.639 159.031C293.534 157.985 293.087 156.378 292.554 155.572L292.318 155.211C292.057 154.81 291.648 154.374 291.219 154.142L291.137 154.202L291.142 154.193ZM285.407 154.193C284.386 154.497 282.385 155.786 279.303 157.799L278.811 158.117C276.833 159.407 274.678 160.883 273.227 163.263C272.219 164.927 272.058 166.761 273.053 168.286C274.843 171.016 278.984 170.396 284.474 166.799L285.868 165.883C286.934 165.186 289.208 163.669 290.047 162.448C288.088 162.552 286.395 161.875 285.391 160.346C283.794 157.905 284.267 155.901 285.379 154.201L285.407 154.193Z" fill="#F03971"/>
<path d="M245.504 142.994C246.549 142.249 247.213 141.671 247.988 140.939L248.528 140.433C251.268 137.866 253.623 135.558 255.721 133.595L256.819 132.569C261.207 128.452 265.487 124.632 269.866 124.411C273.079 124.244 275.85 126.133 278.175 128.427C283.504 134.131 282.067 138.876 276.887 144.361C275.548 145.788 273.284 147.98 270.725 150.375C267.479 153.408 263.764 156.784 260.682 159.467L256.215 154.684C259.398 151.843 263.71 147.946 267.206 144.661L269.819 142.213C271.001 141.104 271.969 140.159 272.562 139.432C274.057 137.544 276.67 134.761 274.318 132.093C270.69 128.542 266.528 132.345 261.209 137.32C258.875 139.508 256.203 142.185 253.001 145.184C251.668 146.434 250.704 147.225 249.37 148.14L245.505 142.971L245.504 142.994Z" fill="#F03971"/>
<path d="M238.907 137.692L236.929 136.194L234.71 134.511C231.695 132.231 228.994 130.094 227.498 128.966L227.172 128.721L230.257 124.627L240.957 132.71L245.065 127.26L238.232 122.099L241.342 117.984L248.183 123.15L248.66 122.524C251.824 118.332 253.775 115.83 254.989 114.224L246.546 107.906C245.411 107.045 243.607 106.543 243.607 106.543L245.19 101.414C246.355 101.887 247.507 102.088 249.49 103.577L263.289 113.999L243.108 140.719C241.913 139.943 240.502 138.876 238.921 137.688L238.907 137.692Z" fill="#F03971"/>
<path d="M204.445 107.504C202.753 112.822 198.003 114.029 191.841 112.074L191.626 112.011C185.83 110.169 181.724 106.681 181.934 102.265L189.311 101.898C189.642 104.694 191.402 106.344 193.094 106.877C195.169 107.533 197.378 107.283 197.91 105.636C198.664 103.265 197.496 102.253 196.27 101.28C193.67 99.1759 192.028 98.4082 189.309 95.9256C187.109 93.8106 185.312 90.4419 186.831 85.6591C189.144 78.4101 195.119 77.5065 200.915 79.3489L201.373 79.4898C209.826 82.415 211.28 88.0415 209.521 93.5609L203.115 91.467C204.217 88.0024 203.313 85.6684 199.642 84.4986C197.032 83.6696 194.292 83.76 193.169 87.2839C192.327 89.9153 193.608 91.818 195.254 93.2702C197.663 95.3963 199.704 96.2599 202.441 98.7528C204.715 100.802 205.693 103.573 204.446 107.481L204.445 107.504Z" fill="#F03971"/>
<path d="M163.393 105.702L158.743 77.3751C158.422 75.2539 158.059 73.0607 158.331 71.0737L165.26 72.018C165.057 73.506 165.115 74.9148 165.304 76.3028L165.713 79.2758C169.544 79.7234 171.661 80.1164 174.782 79.7764L175.845 77.6178C176.557 76.1572 177.188 74.7573 177.41 73.6753L183.937 74.5702C183.621 76.0893 182.74 78.0762 181.807 79.9858L169.002 106.469L163.37 105.701L163.393 105.702ZM167.463 97.8865C168.196 93.6853 171.238 88.8493 172.679 85.482C171.128 85.6036 168.113 85.1906 166.006 85.0309C166.167 88.7122 167.964 94.008 167.463 97.8865Z" fill="#F03971"/>
<path d="M146.282 90.7966L146.097 85.5221C145.829 77.939 145.706 74.9254 145.568 70.994L151.804 70.7654L152.979 104.436L147.63 104.452C144.272 99.7981 137.991 90.0817 136.519 84.1936L136.938 91.1331C137.106 95.9552 137.199 100.699 137.12 105.117L130.937 105.315C130.991 102.39 130.904 98.5363 130.754 94.3343C130.554 88.4771 130.216 81.9191 130.009 75.9498C129.959 74.4855 129.929 73.0083 129.883 71.642L136.193 71.408C138.702 77.8871 142.696 85.3675 146.282 90.7966Z" fill="#F03971"/>
<path d="M127.048 97.4404C128.182 102.896 124.638 106.286 118.314 107.613L118.084 107.661C112.127 108.91 106.844 107.886 104.855 103.953L111.109 100.002C112.771 102.265 115.115 102.847 116.857 102.475C118.988 102.026 120.794 100.722 120.44 99.0363C119.937 96.6074 118.419 96.2932 116.869 96.0564C113.565 95.5021 111.762 95.6474 108.17 94.8217C105.216 94.072 101.999 92.0235 100.975 87.109C99.4261 79.6573 104.197 75.9381 110.154 74.6891L110.629 74.5889C119.433 72.9759 123.464 77.1627 124.646 82.8258L118.034 84.1561C117.299 80.6023 115.358 79.018 111.589 79.8026C108.903 80.366 106.565 81.7859 107.319 85.4106C107.883 88.1126 109.938 89.1399 112.08 89.5947C115.225 90.2614 117.424 90.0071 121.039 90.8341C124.025 91.5063 126.241 93.4266 127.081 97.4468L127.048 97.4404Z" fill="#F03971"/>
<path d="M76.4436 122.514C73.301 121.047 68.688 118.239 64.9067 115.02C66.1256 119.675 66.3954 124.675 66.3786 128.626L61.697 131.475C56.4684 122.848 44.2757 102.811 44.2757 102.811L49.6307 99.5564L57.5039 112.454C58.8732 114.706 60.9306 119.336 60.9306 119.336C60.6759 115.84 59.7492 110.861 59.4988 109.917L62.7254 107.902C62.7254 107.902 68.4614 112.367 70.5668 113.494C70.5668 113.494 67.392 109.819 65.9078 107.37L58.0875 94.443L63.5095 91.1544L80.878 119.847L76.4564 122.533L76.4436 122.514Z" fill="#F03971"/>
<path d="M30.836 135.251L30.6568 135.041C27.8738 131.852 25.8532 128.332 25.183 125.713C24.1642 121.65 25.6055 117.506 28.7569 114.742C31.087 112.707 34.6178 110.998 37.8731 111.596C41.4608 112.24 44.6709 114.679 47.7336 118.195C53.6012 124.924 55.1005 128.961 55.3716 131.987C55.6426 134.846 54.2113 138.386 51.2839 141.05C48.211 143.738 41.4263 147.196 30.8411 135.242L30.836 135.251ZM32.1431 118.634C30.6382 119.954 30.7284 121.956 31.4239 123.944C31.886 125.523 34.0843 128.857 35.7188 130.77L35.9985 131.097C37.7838 133.143 40.4312 135.836 42.726 137.071C45.2605 138.432 46.7815 138.173 47.9299 137.164C49.1709 136.077 49.4832 134.962 49.0684 132.943C48.58 130.571 47.0156 127.466 42.9733 122.818C41.3543 120.962 38.5587 118.257 36.692 117.696C34.5637 117.069 33.5643 117.397 32.1573 118.63L32.1431 118.634Z" fill="#F03971"/>
<path d="M26.0716 145.711L21.9799 142.386C16.0981 137.612 13.732 135.725 10.6868 133.248L14.6226 128.395L40.7633 149.618L37.2481 153.67C31.5326 153.153 20.0755 151.496 14.6639 148.748L20.1705 152.986C23.9104 156.026 27.5434 159.065 30.8273 162.025L26.8991 166.823C24.7275 164.868 21.7749 162.396 18.5067 159.744C13.9562 156.051 8.79749 151.999 4.17609 148.241C3.0317 147.314 1.91177 146.365 0.847276 145.507L4.82815 140.596C11.3679 142.957 19.6166 144.857 26.0716 145.711Z" fill="#F03971"/>
<path d="M-0.997985 180.831L-1.24151 180.692C-4.95759 178.659 -8.06607 176.062 -9.58998 173.83C-11.9442 170.371 -12.0243 165.982 -10.0043 162.31C-8.51575 159.593 -5.78941 156.778 -2.53095 156.218C1.05721 155.582 4.91701 156.776 9.00805 159.011C16.8281 163.298 19.6343 166.572 20.9305 169.309C22.17 171.894 22.0488 175.714 20.2052 179.222C18.2367 182.803 13.0699 188.391 -0.997985 180.831ZM-5.49839 164.782C-6.46462 166.541 -5.68672 168.384 -4.34867 170.019C-3.37018 171.343 -0.156234 173.712 2.03684 174.938L2.41565 175.154C4.79554 176.45 8.22284 178.067 10.7979 178.433C13.6409 178.833 14.9852 178.067 15.7237 176.729C16.5149 175.277 16.4241 174.136 15.3345 172.379C14.0567 170.323 11.5177 167.943 6.12269 164.977C3.96443 163.795 0.404509 162.222 -1.53654 162.336C-3.75836 162.482 -4.57073 163.132 -5.47519 164.783L-5.49839 164.782Z" fill="#F03971"/>
</g>
</g>
<defs>
<filter id="filter0_d_228_6665" x="-127.367" y="0.257812" width="517.982" height="525.791" filterUnits="userSpaceOnUse" color-interpolation-filters="sRGB">
<feFlood flood-opacity="0" result="BackgroundImageFix"/>
<feColorMatrix in="SourceAlpha" type="matrix" values="0 0 0 0 0 0 0 0 0 0 0 0 0 0 0 0 0 0 127 0" result="hardAlpha"/>
<feOffset dx="-12" dy="4"/>
<feGaussianBlur stdDeviation="5"/>
<feComposite in2="hardAlpha" operator="out"/>
<feColorMatrix type="matrix" values="0 0 0 0 0 0 0 0 0 0 0 0 0 0 0 0 0 0 0.25 0"/>
<feBlend mode="normal" in2="BackgroundImageFix" result="effect1_dropShadow_228_6665"/>
<feBlend mode="normal" in="SourceGraphic" in2="effect1_dropShadow_228_6665" result="shape"/>
</filter>
<filter id="filter1_i_228_6665" x="70.3843" y="199.424" width="132.417" height="130.417" filterUnits="userSpaceOnUse" color-interpolation-filters="sRGB">
<feFlood flood-opacity="0" result="BackgroundImageFix"/>
<feBlend mode="normal" in="SourceGraphic" in2="BackgroundImageFix" result="shape"/>
<feColorMatrix in="SourceAlpha" type="matrix" values="0 0 0 0 0 0 0 0 0 0 0 0 0 0 0 0 0 0 127 0" result="hardAlpha"/>
<feOffset dx="-12" dy="10"/>
<feGaussianBlur stdDeviation="15"/>
<feComposite in2="hardAlpha" operator="arithmetic" k2="-1" k3="1"/>
<feColorMatrix type="matrix" values="0 0 0 0 0 0 0 0 0 0 0 0 0 0 0 0 0 0 0.25 0"/>
<feBlend mode="normal" in2="shape" result="effect1_innerShadow_228_6665"/>
</filter>
<clipPath id="clip0_228_6665">
<path d="M-14.1831 172.893L301.161 343.952L209.977 512.049L-20.1041 387.241C-67.1937 361.697 -84.66 302.816 -59.1162 255.726L-14.1831 172.893Z" fill="white"/>
</clipPath>
<clipPath id="clip1_228_6665">
<path d="M295.95 350.008L-15.7635 172.419L78.9019 6.25773L306.334 135.83C352.881 162.349 369.117 221.581 342.598 268.129L295.95 350.008Z" fill="white"/>
</clipPath>
</defs>
</svg>
