<svg width="684" height="683" viewBox="0 0 684 683" fill="none" xmlns="http://www.w3.org/2000/svg">
<g filter="url(#filter0_d_124_20482)">
<circle cx="352.94" cy="337.94" r="330.94" fill="#D9D9D9"/>
<circle cx="352.94" cy="337.94" r="318.07" fill="white"/>
<circle cx="352.939" cy="337.94" r="303.362" fill="#BABABA"/>
<circle cx="352.939" cy="337.94" r="149.842" fill="#8F8F8F"/>
<g filter="url(#filter1_i_124_20482)">
<circle cx="353" cy="338" r="82" fill="#F03971"/>
</g>
<g clip-path="url(#clip0_124_20482)">
<path d="M130.143 268.097C131.513 269.802 134.135 272.227 139.811 273.913C144.161 275.208 148.277 275.525 151.461 273.642C153.489 272.456 154.271 271.299 154.917 269.127L155.032 268.759C156.06 264.825 154.784 261.959 152.211 259.718L155.326 256.629C158.847 259.81 160.814 264.265 159.319 269.302L159.302 269.38C158.426 272.33 156.719 275.621 153.534 277.397C149.346 279.625 144.532 279.902 138.619 278.139C131.881 276.136 128.385 272.764 126.779 270.794C124.531 268.05 123.2 263.727 124.583 259.084C125.685 255.372 128.928 252.632 133.837 251.556L134.915 255.798C131.254 256.468 129.317 258.093 128.647 260.374C127.741 263.424 128.762 266.291 130.153 268.091L130.143 268.097Z" fill="black"/>
<path d="M157.776 226.307L158.05 226.442C162.167 228.342 165.5 231.227 167.277 233.506C170.017 237.064 170.598 241.287 168.669 245.432C167.25 248.5 164.7 251.188 161.238 252.066C157.425 253.047 153.05 252.493 148.531 250.405C139.872 246.404 137.017 242.771 135.445 239.905C133.951 237.205 133.445 233.565 135.185 229.607C136.63 226.496 142.218 219.292 157.772 226.323L157.776 226.307ZM164.829 243.65C166.173 240.738 165.34 238.126 163.783 236.043C162.644 234.298 158.809 231.639 156.134 230.377L155.658 230.157C152.777 228.824 148.732 227.481 145.535 227.613C142.001 227.745 140.134 229.016 139.11 231.227C138.007 233.61 138.043 235.374 139.274 237.705C140.704 240.474 143.703 243.342 150.285 246.385C152.898 247.593 157.083 248.672 159.569 248.12C161.768 247.645 163.577 246.37 164.835 243.66L164.829 243.65Z" fill="black"/>
<path d="M152.51 215.521C147.506 212.252 148.092 206.465 151.289 201.565L151.425 201.357C154.869 196.232 159.213 193.448 164.575 195.697L162.832 199.817C159.319 198.78 157.261 200.214 154.919 203.776C153.376 206.144 152.934 207.876 153.278 209.618C153.498 210.553 153.993 211.244 154.79 211.757C156.692 212.988 158.268 212.507 159.74 211.609C162.046 210.205 165.166 206.093 168.557 203.943C171.401 202.223 175.674 201.647 179.704 204.275C185.937 208.333 186.051 214.627 182.419 220.194L182.133 220.632C176.582 228.672 170.575 228.259 165.403 224.895L167.79 221.236C171.476 223.641 175.321 223.405 178.721 218.214C181.827 213.466 180.78 210.265 177.467 208.107C174.985 206.493 172.522 206.828 170.538 208.147C167.624 210.073 165.046 213.517 161.632 215.694C159.256 217.156 155.879 217.725 152.495 215.518L152.51 215.521Z" fill="black"/>
<path d="M166.743 180.559C170.71 182.287 173.127 182.975 176.921 183.779C179.701 184.383 181.246 184.782 182.378 185.08C180.681 180.521 178.257 173.578 176.203 169.851L179.076 166.595L205.971 190.289L203.098 193.546L183.875 176.671C185.44 180.791 187.522 186.944 188.073 187.829L185.776 190.301C185.304 190.173 181.953 189.368 176.841 188.102C175.543 187.734 175.825 187.796 174.968 187.591L193.735 204.151L190.84 207.436L163.881 183.768L166.74 180.574L166.743 180.559Z" fill="black"/>
<path d="M195.028 151.41C197.243 149.527 199.294 147.829 202.757 144.949L205.485 148.152C202.895 150.355 201.792 151.112 199.768 152.833L217.684 173.899C218.654 173.079 219.189 172.59 220.262 171.678C221.213 170.87 222.223 170.05 223.377 169.18L226.065 172.342C224.184 173.757 222.85 174.849 221.524 175.977C220.532 176.825 219.513 177.716 218.268 178.779C216.708 180.11 214.728 182.044 211.453 184.818L208.782 181.686C210.502 180.079 211.543 179.16 212.746 178.137L214.325 176.794L196.409 155.727C195.035 156.926 193.092 158.582 190.968 160.608L188.083 157.478C191.301 154.593 193.01 153.14 195.04 151.429L195.028 151.41Z" fill="black"/>
<path d="M221.822 140.741C221.723 142.927 222.108 146.483 225.258 151.485C227.675 155.317 230.557 158.274 234.197 158.962C236.505 159.397 237.855 159.046 239.774 157.836L240.099 157.629C243.47 155.344 244.391 152.338 243.934 148.963L248.304 148.688C248.856 153.413 247.401 158.048 242.953 160.859L242.886 160.902C240.289 162.545 236.826 163.907 233.27 163.139C228.657 162.065 224.867 159.096 221.567 153.88C217.82 147.942 217.418 143.094 217.515 140.547C217.627 137.01 219.48 132.872 223.575 130.287C226.857 128.221 231.085 128.291 235.497 130.716L233.507 134.619C230.311 132.708 227.793 132.661 225.779 133.933C223.086 135.637 221.958 138.465 221.822 140.741Z" fill="black"/>
<path d="M273.153 115.819C271.506 110.073 275.744 106.067 281.362 104.458L281.6 104.388C287.558 102.763 292.659 103.486 295.245 108.7L291.235 110.68C289.262 107.587 286.758 107.33 282.665 108.504C279.947 109.283 278.489 110.308 277.604 111.852C277.152 112.704 277.088 113.552 277.345 114.462C277.97 116.643 279.481 117.304 281.173 117.595C283.84 118.044 288.881 116.964 292.853 117.561C296.127 118.118 299.732 120.48 301.054 125.104C303.103 132.26 299.068 137.09 292.678 138.923L292.178 139.067C282.711 141.518 278.448 137.279 276.751 131.35L280.958 130.144C282.162 134.373 285.23 136.715 291.19 135.009C296.65 133.447 297.948 130.336 296.854 126.534C296.039 123.695 293.955 122.325 291.59 122.033C288.118 121.588 283.916 122.508 279.925 121.924C277.177 121.474 274.255 119.697 273.138 115.816L273.153 115.819Z" fill="black"/>
<path d="M317.4 96.8936L332.018 126.391C332.46 127.358 333.254 129.511 333.51 130.987L329.012 131.612C328.922 130.985 328.324 129.056 328.005 128.346L325.299 122.858C321.443 123.477 315.393 124.367 312.451 125.532L311.51 130.659C311.342 131.492 311.204 133.299 311.304 134.068L306.867 134.682C306.792 133.91 306.947 131.434 307.146 130.205L312.717 97.5434L317.4 96.8936ZM315.913 102.933L313.101 120.268C314.692 119.683 316.234 119.465 318.495 119.045L323.451 118.274L315.922 102.927L315.913 102.933Z" fill="black"/>
<path d="M340.154 103.255L340.118 108.893C340.069 116.998 340.034 126.812 340.002 131.023L335.6 130.996L335.826 95.0143L340.229 95.1478C343.685 100.251 351.233 114.256 354.425 121.139C354.394 117.546 354.39 113.787 354.417 110.076C354.449 104.938 354.564 99.8671 354.842 95.1361L359.106 95.1569C358.921 98.2837 358.845 102.403 358.814 106.909C358.775 113.153 358.838 120.191 358.8 126.543C358.796 128.117 358.75 129.691 358.745 131.159L354.345 131.157C349.901 121.258 345.686 113.025 340.151 103.23L340.154 103.255Z" fill="black"/>
<path d="M367.584 104.19C368.459 98.2856 373.98 96.3762 379.752 97.2218L380 97.2518C386.096 98.2263 390.44 100.989 390.643 106.811L386.168 106.965C385.643 103.337 383.478 102.072 379.264 101.455C376.474 101.045 374.719 101.372 373.278 102.425C372.524 103.014 372.103 103.766 371.964 104.687C371.631 106.928 372.737 108.157 374.158 109.118C376.394 110.62 381.443 111.725 384.803 113.894C387.551 115.755 389.865 119.383 389.152 124.15C388.061 131.508 382.394 134.263 375.829 133.292L375.312 133.219C365.683 131.556 363.549 125.932 364.459 119.83L368.792 120.466C368.148 124.812 369.97 128.217 376.099 129.117C381.71 129.944 384.173 127.647 384.755 123.73C385.19 120.806 383.851 118.706 381.829 117.456C378.855 115.619 374.654 114.725 371.262 112.55C368.945 111.005 367.01 108.183 367.61 104.187L367.584 104.19Z" fill="black"/>
<path d="M433.687 120.206L431.35 125.336C427.989 132.719 423.944 141.666 422.206 145.501L418.2 143.69L433.11 110.929L437.067 112.851C438.132 118.929 439.291 134.792 439.397 142.381C440.834 139.087 442.368 135.651 443.913 132.274C446.052 127.592 448.216 123.015 450.405 118.811L454.283 120.569C452.838 123.344 451.075 127.075 449.213 131.177C446.629 136.869 443.812 143.313 441.182 149.101C440.526 150.54 439.848 151.966 439.242 153.293L435.223 151.505C435.21 140.646 434.73 131.415 433.693 120.215L433.687 120.206Z" fill="black"/>
<path d="M468.43 128.578L470.718 130.035L473.284 131.675C476.757 133.893 479.886 135.994 481.605 137.087L481.971 137.324L479.735 140.819L465.069 131.448L460.17 139.099L470.38 145.617L468.143 149.112L457.934 142.594L457.491 143.293C454.456 148.023 451.267 152.851 450.119 154.657L462.391 162.426C463.7 163.256 465.512 163.565 465.512 163.565L464.322 167.668C463.01 167.256 461.937 167.134 460.168 166.006L444.273 155.847L463.618 125.63C464.98 126.374 466.612 127.414 468.43 128.578Z" fill="black"/>
<path d="M508.709 158.916C507.431 160.013 506.658 160.909 505.685 162.04C503.065 165.082 500.817 167.778 498.8 170.099L497.749 171.32C493.559 176.181 489.458 180.759 484.783 181.443C481.345 181.957 478.565 180.614 475.774 178.39C469.324 172.833 470.267 167.584 475.156 161.161C476.411 159.501 478.572 156.901 481.011 154.082C484.118 150.475 487.67 146.491 490.655 143.284L493.963 146.13C490.89 149.514 486.762 154.135 483.423 158.011C481.193 160.588 479.322 162.843 478.341 164.194C474.928 168.923 475.054 172.241 478.229 174.985C480.537 176.79 482.043 177.253 484.189 177.053C486.932 176.714 490.883 172.596 494.45 168.467C496.68 165.89 499.202 162.736 502.282 159.173C503.565 157.683 504.332 156.925 505.664 155.807L508.719 158.91L508.709 158.916Z" fill="black"/>
<path d="M519.572 170.296L521.36 172.339L523.362 174.635C526.071 177.743 528.486 180.623 529.834 182.167L530.129 182.503L527.002 185.236L515.568 172.138L508.727 178.113L516.694 187.23L513.567 189.963L505.6 180.846L504.979 181.39C500.745 185.085 496.327 188.829 494.729 190.225L504.319 201.127C505.332 202.294 506.985 203.094 506.985 203.094L504.699 206.701C503.555 205.94 502.563 205.524 501.185 203.932L488.78 189.734L515.807 166.143C516.91 167.239 518.187 168.694 519.6 170.319L519.572 170.296Z" fill="black"/>
<path d="M555.734 222.374C552.553 225.316 550.944 227.243 548.683 230.404C547.006 232.709 546.024 233.954 545.294 234.876C550.15 235.15 557.487 235.709 561.734 235.324L563.561 239.264L531.015 254.393L529.189 250.454L552.399 239.626C547.998 239.411 541.513 238.859 540.481 238.993L539.14 235.899C539.447 235.515 541.533 232.775 544.758 228.595C545.613 227.553 545.454 227.789 545.982 227.076L523.252 237.624L521.413 233.665L553.957 218.47L555.734 222.374Z" fill="black"/>
<path d="M557.092 277.669L556.801 277.761C552.456 279.068 548.046 279.113 545.208 278.586C540.798 277.745 537.567 274.957 536.262 270.591C535.295 267.366 535.429 263.654 537.437 260.707C539.637 257.451 543.289 254.973 548.064 253.54C557.21 250.796 561.761 251.627 564.842 252.725C567.748 253.759 570.551 256.15 571.864 260.255C572.843 263.54 573.427 272.637 557.108 277.673L557.092 277.669ZM540.31 269.366C541.23 272.433 543.578 273.837 546.142 274.377C548.162 274.929 552.784 274.372 555.634 273.548L556.144 273.398C559.194 272.487 563.119 270.816 565.426 268.592C567.987 266.154 568.548 263.955 567.848 261.634C567.092 259.121 565.902 257.825 563.431 256.902C560.527 255.786 556.37 255.617 549.424 257.696C546.671 258.525 542.803 260.495 541.313 262.547C539.983 264.362 539.467 266.505 540.325 269.37L540.31 269.366Z" fill="black"/>
<path d="M569.151 286.58L563.568 287.401C555.546 288.595 545.83 290.064 541.673 290.674L541.037 286.324L576.65 281.045L577.176 285.412C572.642 289.606 559.932 299.204 553.615 303.408C557.168 302.82 560.891 302.246 564.55 301.699C569.641 300.95 574.664 300.285 579.384 299.84L580 304.054C576.881 304.351 572.794 304.903 568.331 305.56C562.142 306.485 555.209 307.616 548.904 308.548C547.342 308.778 545.778 308.983 544.327 309.197L543.657 304.856C552.774 298.947 560.28 293.528 569.136 286.577L569.151 286.58Z" fill="black"/>
<path d="M562.581 338.322L562.276 338.329C557.735 338.337 553.505 337.126 550.932 335.812C546.95 333.744 544.645 330.151 544.645 325.597C544.647 322.224 545.83 318.702 548.594 316.456C551.633 313.967 555.837 312.629 560.816 312.61C570.366 312.59 574.483 314.679 577.116 316.613C579.609 318.435 581.608 321.526 581.694 325.837C581.698 329.259 579.66 338.149 562.581 338.322ZM548.869 325.576C548.871 328.785 550.732 330.795 553.027 332.031C554.793 333.135 559.387 333.926 562.355 333.94L562.88 333.941C566.066 333.937 570.293 333.458 573.147 331.986C576.303 330.376 577.463 328.441 577.454 326.002C577.446 323.374 576.671 321.8 574.572 320.197C572.106 318.291 568.178 316.941 560.932 316.968C558.058 316.975 553.796 317.759 551.776 319.316C549.981 320.676 548.875 322.59 548.879 325.57L548.869 325.576Z" fill="black"/>
</g>
<g clip-path="url(#clip1_124_20482)">
<path d="M150.005 424.737L149.006 420.516L178.461 413.772L182.254 429.905L183.248 434.093L153.808 440.778L152.815 436.589L177.944 430.848L175.143 419.052L150.005 424.737Z" fill="black"/>
<path d="M178.536 444.069C180.8 443.159 183.037 441.993 184.728 441.013L187.096 444.93C186.279 445.41 185.738 445.778 184.605 446.262C186.832 447.234 188.674 448.868 189.919 451.687C192.976 458.624 188.753 463.499 181.455 466.431C172.306 470.105 164.97 469.258 161.371 461.121C160.258 458.6 160.702 457.292 161.01 455.743L155.367 458.008C152.805 459.044 150.625 460.179 148.851 461.103L146.839 457.198C148.732 456.176 151.283 454.995 153.765 453.994L177.881 444.33L178.536 444.069ZM185.705 453.412C184.178 449.955 182.396 449.254 178.502 448.712L166.631 453.493C165.823 455.358 164.738 457.493 165.754 459.779C167.565 463.886 171.488 465.788 179.187 462.691C184.737 460.452 187.595 457.71 185.707 453.423L185.705 453.412Z" fill="black"/>
<path d="M182.848 474.206C190.124 469.799 198.595 467.969 203.155 474.672C206.228 479.196 206.232 482.753 204.033 486.358C202.703 488.486 200.176 490.608 197.777 492.061C190.679 496.36 182.772 498.045 177.739 490.655L177.708 490.614C173.486 484.359 175.862 478.442 182.837 474.219L182.848 474.206ZM194.98 488.608L195.426 488.334C199.981 485.511 202.621 481.837 199.852 477.778C196.607 473.008 191.521 474.072 185.44 477.758C180.587 480.708 179 484.479 181.612 488.313C182.822 490.046 183.905 490.809 185.743 491.319C188.274 491.891 191.298 490.841 194.98 488.608Z" fill="black"/>
<path d="M200.918 512.717L219.992 496.391L223.04 499.498L203.966 515.824L207.989 519.939L227.078 503.633L230.126 506.739L207.78 525.894L204.675 522.728L190.528 508.332L212.938 489.201L215.943 492.269L196.899 508.625L200.922 512.74L200.918 512.717Z" fill="black"/>
<path d="M217.286 528.28C217.552 528.579 217.819 528.879 218.162 529.121C220.168 530.56 224.263 530.116 238.352 513.224L245.427 518.273L248.176 520.244C249.976 521.532 251.587 522.703 252.807 523.718L234.203 546.042L230.463 543.35C233.649 539.58 243.476 527.864 243.503 527.883L246.447 524.355L239.229 519.169C230.701 528.557 221.9 537.293 215.465 532.667C214.984 532.321 214.484 531.854 214.014 531.347L217.284 528.269L217.286 528.28Z" fill="black"/>
<path d="M249.861 540.41C253.98 533.289 260.495 527.842 268.042 531.533C273.132 534.026 275.001 537.089 274.945 541.202C274.885 543.644 273.762 546.626 272.406 548.975C268.396 555.931 262.295 560.984 253.98 556.913L253.928 556.887C246.918 553.43 245.918 547.242 249.861 540.41ZM268.112 547.278L268.361 546.842C270.907 542.33 271.302 537.96 266.741 535.725C261.374 533.093 257.446 536.342 254.012 542.288C251.261 547.048 251.843 551.027 256.163 553.128C258.14 554.06 259.498 554.235 261.379 553.84C263.912 553.173 266.024 550.889 268.112 547.278Z" fill="black"/>
<path d="M303.291 560.289C303.103 560.807 302.957 561.205 302.853 561.403C294.888 559.573 288.425 557.987 283.454 556.566C282.002 560.578 283.147 564.72 288.821 566.417C292.804 567.605 295.888 566.238 297.489 565.148L299.876 569.028C298.309 569.863 293.875 572.372 287.254 570.39C278.956 567.918 276.921 561.118 279.895 552.925C282.614 545.442 288.811 540.931 296.688 543.286C307.176 546.417 304.597 556.675 303.279 560.29L303.291 560.289ZM299.844 556.266C300.925 551.915 299.059 548.397 295.281 547.268C290.555 545.855 286.405 548.536 284.905 552.555C288.499 553.598 295.744 555.506 299.844 556.266Z" fill="black"/>
<path d="M349.606 563.642C352.298 562.972 355.063 562.69 358.596 562.561L363.126 562.401C363.006 554.883 362.989 555.318 362.919 550.872L367.596 550.712L368.036 578.724L363.383 578.88L363.19 566.575L361.575 566.633C357.13 566.791 353.133 567.003 349.667 567.804C349.815 577.228 349.833 574.361 349.912 579.339L345.174 579.497L344.722 551.408L349.426 551.187L349.592 563.632L349.606 563.642Z" fill="black"/>
<path d="M402.211 568.415C402.678 568.831 403.877 569.235 404.841 569.699L403.078 573.361C401.356 572.572 399.496 572.236 398.429 569.617C396.577 572.076 394.087 574.988 388.397 576.089C383.453 577.041 378.816 574 377.925 569.534C377.522 567.493 377.905 564.933 379.295 562.954C381.517 559.812 384.32 558.603 387.723 557.948C391.363 557.245 393.288 557.378 395.027 557.959C394.016 552.876 391.533 550.807 386.614 551.766C382.619 552.535 380.957 553.703 379.414 557.991L375.214 556.507C377.019 551.076 380.571 548.716 385.75 547.705C392.745 546.355 398.094 549.65 399.304 555.702L401.076 564.578C401.259 565.516 401.758 568.019 402.235 568.411L402.211 568.415ZM387.578 571.999C393.647 570.827 395.837 565.985 396.376 564.741L395.868 562.183C394.037 561.558 391.732 561.189 388.723 561.783C384.79 562.565 381.748 565.221 382.377 568.398C382.938 571.221 384.887 572.52 387.566 572.001L387.578 571.999Z" fill="black"/>
<path d="M412.759 563.374C414.633 564.037 418.826 564.146 423.46 562.459C428.452 560.636 430.934 558.146 429.99 555.77C429.511 554.571 427.694 553.649 424.213 553.724C421.886 553.757 420.136 554.279 418.391 554.915C417.674 555.174 416.962 555.467 416.245 555.726L414.7 551.84L415.198 551.66L415.335 551.604C418.398 550.491 426.146 547.546 424.83 544.272C423.991 542.174 421.159 542.183 415.521 544.243C411.488 545.712 409.041 547.957 408.527 548.583L405.332 545.942C405.708 545.452 407.651 542.637 414.03 540.314C422.58 537.187 427.456 538.463 429.081 542.553C429.921 544.651 429.615 548.336 425.283 550.238C429.841 549.631 433.35 551.779 434.294 554.156C434.955 555.815 435.461 558.124 433.956 560.461C432.489 562.725 430.067 564.579 425.039 566.408C418.88 568.651 414.101 567.996 411.609 567.361L412.75 563.398L412.759 563.374Z" fill="black"/>
<path d="M433.735 532.598C435.707 531.302 436.838 530.41 439.713 528.791C445.204 525.709 452.221 522.775 455.546 528.055C457.965 531.908 456.433 533.908 455.528 535.311C457.394 534.827 462.326 534.344 465.133 538.807C468.054 543.457 464.845 547.549 458.376 551.341L457.871 551.624C455.861 552.755 454.824 553.076 452.309 554.49L448.851 556.438C445.993 551.881 445.877 551.217 439.741 541.451C437.192 537.392 435.863 535.439 433.759 532.594L433.735 532.598ZM442.221 532.119C441.234 532.681 440.849 532.957 440.133 533.455C440.829 534.393 441.355 535.186 441.825 535.932C442.569 537.101 443.193 538.208 444.234 539.877L446.019 538.871C449.86 536.716 453.935 534.104 451.696 530.542C450.137 528.056 445.904 530.045 442.221 532.119ZM447.49 542.747L446.366 543.376C449.813 548.967 449.665 548.797 450.762 550.593C453.514 549.051 453.869 549.132 455.778 548.062C460.82 545.231 462.659 543.626 460.838 540.715C459.216 538.136 454.736 538.618 450.794 540.834C449.549 541.539 449.343 541.708 447.491 542.758L447.49 542.747Z" fill="black"/>
<path d="M492.835 521.115C493.467 521.255 494.731 521.059 495.823 521.014L496.196 524.98C494.273 525.098 492.444 525.666 490.13 523.901C489.785 526.865 489.13 530.502 484.691 534.069C480.837 537.159 475.157 536.678 472.021 533.244C470.592 531.671 469.587 529.292 469.762 526.968C470.075 523.248 471.898 520.918 474.558 518.787C477.402 516.503 479.164 515.74 480.998 515.443C477.434 511.53 474.15 510.904 470.317 513.979C467.201 516.476 466.352 518.234 467.245 522.642L462.769 523.305C461.498 517.807 463.382 514.137 467.421 510.905C472.881 506.52 479.316 506.906 483.568 511.553L489.795 518.371C490.457 519.098 492.209 521.019 492.825 521.128L492.835 521.115ZM481.82 530.924C486.554 527.129 485.933 521.962 485.751 520.637L483.956 518.677C482.013 518.98 479.796 519.722 477.452 521.611C474.408 524.097 473.124 527.775 475.348 530.214C477.334 532.383 479.726 532.614 481.82 530.924Z" fill="black"/>
<path d="M495.308 503.03C496.582 500.705 498.217 498.575 500.505 496.014L503.437 492.727C497.289 487.988 497.629 488.287 493.992 485.477L497.018 482.084L519.89 499.738L516.885 503.105L506.836 495.347L505.786 496.522C502.917 499.742 500.396 502.692 498.707 505.65C506.397 511.592 504.107 509.743 508.16 512.875L505.092 516.308L482.15 498.597L485.143 495.153L495.28 503.011L495.308 503.03Z" fill="black"/>
<path d="M513.328 457.492C513.328 457.492 522.597 462.518 528.468 465.64C532.596 467.839 536.393 469.795 539.341 471.166L536.995 474.919C532.53 472.829 530.812 471.914 526.101 469.419C523.877 468.23 518.546 465.206 518.546 465.206C522.58 471.592 527.086 480.691 529.858 486.182L527.576 490.039L501.655 476.258L504.031 472.456C507.453 474.276 516.945 479.483 523.122 482.763C519.335 474.905 515.356 469.192 510.913 461.278L513.314 457.482L513.328 457.492Z" fill="black"/>
<path d="M539.224 435.181C539.778 435.368 540.191 435.508 540.4 435.601C537.99 443.024 535.934 449.04 534.126 453.664C538.327 455.079 542.834 454.059 544.967 448.782C546.467 445.081 545.173 442.179 544.097 440.675L548.386 438.496C549.19 439.974 551.633 444.141 549.135 450.293C546.013 458.009 538.637 459.817 530.032 456.938C522.172 454.296 517.697 448.456 520.66 441.128C524.612 431.373 535.437 433.917 539.226 435.192L539.224 435.181ZM534.734 438.347C530.147 437.276 526.271 438.97 524.842 442.501C523.061 446.905 525.697 450.815 529.915 452.261C531.238 448.918 533.683 442.182 534.724 438.36L534.734 438.347Z" fill="black"/>
</g>
</g>
<defs>
<filter id="filter0_d_124_20482" x="0" y="0" width="683.88" height="682.88" filterUnits="userSpaceOnUse" color-interpolation-filters="sRGB">
<feFlood flood-opacity="0" result="BackgroundImageFix"/>
<feColorMatrix in="SourceAlpha" type="matrix" values="0 0 0 0 0 0 0 0 0 0 0 0 0 0 0 0 0 0 127 0" result="hardAlpha"/>
<feOffset dx="-12" dy="4"/>
<feGaussianBlur stdDeviation="5"/>
<feComposite in2="hardAlpha" operator="out"/>
<feColorMatrix type="matrix" values="0 0 0 0 0 0 0 0 0 0 0 0 0 0 0 0 0 0 0.25 0"/>
<feBlend mode="normal" in2="BackgroundImageFix" result="effect1_dropShadow_124_20482"/>
<feBlend mode="normal" in="SourceGraphic" in2="effect1_dropShadow_124_20482" result="shape"/>
</filter>
<filter id="filter1_i_124_20482" x="259" y="256" width="176" height="174" filterUnits="userSpaceOnUse" color-interpolation-filters="sRGB">
<feFlood flood-opacity="0" result="BackgroundImageFix"/>
<feBlend mode="normal" in="SourceGraphic" in2="BackgroundImageFix" result="shape"/>
<feColorMatrix in="SourceAlpha" type="matrix" values="0 0 0 0 0 0 0 0 0 0 0 0 0 0 0 0 0 0 127 0" result="hardAlpha"/>
<feOffset dx="-12" dy="10"/>
<feGaussianBlur stdDeviation="15"/>
<feComposite in2="hardAlpha" operator="arithmetic" k2="-1" k3="1"/>
<feColorMatrix type="matrix" values="0 0 0 0 0 0 0 0 0 0 0 0 0 0 0 0 0 0 0.25 0"/>
<feBlend mode="normal" in2="shape" result="effect1_innerShadow_124_20482"/>
</filter>
<clipPath id="clip0_124_20482">
<rect width="362.338" height="388.374" fill="white" transform="translate(418.441 6) rotate(57.4699)"/>
</clipPath>
<clipPath id="clip1_124_20482">
<rect width="400.587" height="192.67" fill="white" transform="translate(141 419.602) rotate(-8.84605)"/>
</clipPath>
</defs>
</svg>
