<svg width="160" height="249" viewBox="0 0 160 249" fill="none" xmlns="http://www.w3.org/2000/svg">
<path d="M48.7304 249C38.3852 249 27.6654 246.507 18.7713 240.252C5.43012 230.845 1.17028 214.806 1.17028 198.579C1.17028 170.97 11.703 140.351 45.2665 140.351C57.9522 140.351 63.7098 142.985 69.9357 145.619C69.9357 129.58 66.3314 105.781 46.7176 105.781H45.2196C36.6532 105.781 31.738 106.298 20.8778 122.807L19.2393 125.112L0 112.883L1.8257 109.92C15.8222 87.7664 26.495 80.4761 46.7642 80.4761C55.9859 80.4761 63.5695 81.793 73.5871 89.5537C76.7234 92.1876 79.8598 96.1855 81.8258 99.2898C88.5666 89.2245 96.4776 80.429 116.56 80.429C156.723 80.429 158.034 138.14 158.034 171.064L95.1669 172.71V213.207C99.2862 218.005 107.665 222.943 118.058 222.943C127.747 222.943 136.173 213.677 142.399 204.929L160 221.485C144.693 242.321 127.56 248.765 114.921 248.765C101.58 248.765 89.7368 243.309 80.515 233.573C75.5998 239.217 65.7228 248.953 48.7304 248.953V249ZM46.9047 222.896C61.697 222.896 67.9696 207.704 69.9357 195.616V171.299C62.8672 167.16 55.9391 165.655 47.045 165.655C34.2188 165.655 26.4952 179.389 26.4952 196.087C26.4952 213.96 33.2359 222.896 46.9047 222.896ZM113.236 0.000244141L133.458 24.1289C115.202 42.6604 71.1061 68.4353 47.5601 76.1959L36.3722 51.7381C59.9182 43.7893 94.3242 17.8263 113.236 0.000244141ZM133.131 146.653C133.131 129.11 129.526 105.969 118.011 105.969C96.9457 105.969 95.12 121.161 95.12 147.97C109.772 146.983 119.321 146.653 133.131 146.653Z" fill="black"/>
</svg>
