<svg width="707" height="929" viewBox="0 0 707 929" fill="none" xmlns="http://www.w3.org/2000/svg">
<path d="M282.627 114.524C256.858 89.4542 255.769 62.8469 279.19 38.7725C295.636 21.8677 326.405 11.1842 354.923 38.9285C385.114 68.2995 384.747 99.1531 362.663 121.853C345.972 139.01 318.224 149.155 282.627 114.524ZM291.372 97.9741C295.399 94.9808 300.018 90.6911 305.188 85.3769C314.748 75.5501 326.091 62.2863 338.506 48.0586C319.859 31.4783 300.427 41.5991 291.513 50.7616C276.939 65.7422 275.625 80.2918 291.372 97.9741ZM349.939 110.276C360.212 99.7165 365.658 79.9574 350.524 60.8654C334.579 79.6843 323.784 91.7428 316.252 99.4851C310.926 104.96 307.153 108.334 304.402 110.383C321.682 124.519 340.468 120.057 349.939 110.322L349.939 110.276ZM398.204 145.862L380.085 128.235L398.744 109.56L416.863 127.187L398.204 145.862ZM366.152 178.304L348.033 160.677L366.692 142.002L384.811 159.629L366.152 178.304Z" fill="black"/>
<path d="M543.74 55.7176L632.598 202.169C635.327 207.007 640.412 217.816 642.403 225.337L619.342 230.54C618.612 227.306 614.655 217.586 612.681 214.046L596.203 186.804C576.478 191.716 545.487 199.001 530.746 206.269L528.137 233.244C527.657 237.631 527.725 247.055 528.607 250.967L505.826 256.106C505.103 252.158 504.829 239.215 505.268 232.782L519.71 61.0966L543.731 55.6777L543.74 55.7176ZM509.734 18.9226L516.857 50.4977L483.745 57.5061L476.622 25.931L509.734 18.9226ZM538.688 87.6902L531.767 178.772C539.786 175.033 547.659 173.257 559.204 170.065L584.524 163.892L538.679 87.6502L538.688 87.6902ZM566.857 6.4554L573.981 38.0305L540.869 45.039L533.745 13.4638L566.857 6.4554Z" fill="black"/>
<path d="M302.854 226.837C314.473 234.35 322.067 243.071 325.952 252.432C337.687 252.759 349.694 257.125 360.696 264.239C390.179 283.304 393.591 309.403 376.099 336.453C362.974 356.751 339.696 359.463 324.264 361.431C313.98 362.762 301.201 366.599 294.415 377.093L290.611 382.975L268.281 368.535L271.92 362.907C281.828 347.584 294.906 341.932 311.722 339.418C331.852 336.317 346.547 337.323 355.304 323.779C364.555 309.473 363.731 294.265 346.883 283.371C340.746 279.403 334.188 276.964 327.894 276.344C326.378 283.706 323.188 291.426 318.257 299.051C305.133 319.349 281.855 322.061 266.422 324.028C256.138 325.36 243.359 329.197 236.573 339.69L232.77 345.573L210.439 331.133L214.078 325.505C223.987 310.182 237.065 304.53 253.881 302.016C274.011 298.915 288.705 299.921 297.463 286.377C306.713 272.071 305.889 256.863 289.041 245.968C277.168 238.291 264.077 236.159 253.685 242.673L249.776 217.901C266.696 211.643 285.982 215.979 302.83 226.873L302.854 226.837ZM224.733 369.469L202.451 403.927L170.535 383.289L192.816 348.83L224.733 369.469ZM282.574 406.871L260.293 441.329L228.376 420.691L250.658 386.233L282.574 406.871Z" fill="black"/>
<path d="M706.416 521.803L677.752 533.196L650.756 466.335C641.022 474.221 632.24 479.811 624.042 484.148L637.07 516.926L609.704 527.803L596.903 495.595C532.693 516.499 514.313 477.214 489.697 415.283L482.021 395.968L510.84 384.513C538.984 452.597 545.26 478.525 585.613 467.343L566.864 420.169L594.23 409.292L612.897 456.259C621.033 451.766 629.941 445.887 639.818 438.363L604.082 347.393L632.747 336C664.01 414.657 675.08 443.116 706.343 521.772L706.416 521.803Z" fill="black"/>
<path d="M471.61 481.741C468.062 486.953 457.787 501.422 451.892 509.723L469.424 522.173L459.806 535.717L442.274 523.267L423.476 549.737C431.373 553.45 433.878 554.688 439.551 558.717C461.657 574.416 471.863 591.444 455.054 615.113C440.162 636.084 421.331 633.691 399.046 617.865C390.51 611.803 378.7 602.72 368.298 595.333C380.745 577.806 389.575 567.105 416.275 529.507L427.955 513.059L410.168 500.428L419.786 486.884L437.497 499.461L457.225 471.68C458.58 472.642 468.901 479.817 471.661 481.777L471.61 481.741ZM414.274 562.261C398.893 583.542 397.44 585.371 392.491 592.178C402.202 599.075 398.982 597.329 405.703 602.103C421.881 613.591 431.208 618.321 441.739 603.492C450.718 590.848 442.332 580.949 428.403 571.058C423.471 567.555 414.249 562.243 414.249 562.243L414.274 562.261Z" fill="black"/>
<path d="M472.73 929C462.385 929 451.665 926.507 442.771 920.252C429.43 910.845 425.17 894.806 425.17 878.579C425.17 850.97 435.703 820.351 469.266 820.351C481.952 820.351 487.71 822.985 493.936 825.619C493.936 809.58 490.331 785.781 470.718 785.781H469.22C460.653 785.781 455.738 786.298 444.878 802.807L443.239 805.112L424 792.883L425.826 789.92C439.822 767.766 450.495 760.476 470.764 760.476C479.986 760.476 487.569 761.793 497.587 769.554C500.723 772.188 503.86 776.186 505.826 779.29C512.567 769.224 520.478 760.429 540.56 760.429C580.723 760.429 582.034 818.14 582.034 851.064L519.167 852.71V893.207C523.286 898.005 531.665 902.943 542.058 902.943C551.747 902.943 560.173 893.677 566.399 884.929L584 901.485C568.693 922.321 551.56 928.765 538.921 928.765C525.58 928.765 513.737 923.309 504.515 913.573C499.6 919.217 489.723 928.953 472.73 928.953V929ZM470.905 902.896C485.697 902.896 491.97 887.704 493.936 875.616V851.299C486.867 847.16 479.939 845.655 471.045 845.655C458.219 845.655 450.495 859.389 450.495 876.087C450.495 893.96 457.236 902.896 470.905 902.896ZM537.236 680L557.458 704.129C539.202 722.66 495.106 748.435 471.56 756.196L460.372 731.738C483.918 723.789 518.324 697.826 537.236 680ZM557.131 826.653C557.131 809.11 553.526 785.969 542.011 785.969C520.946 785.969 519.12 801.161 519.12 827.97C533.772 826.983 543.321 826.653 557.131 826.653Z" fill="black"/>
<path d="M238.676 737.35C225.618 716.091 174.458 603.212 157.543 571.124L177.07 560.261C220.692 642.438 218.901 652.96 238.061 693.163C237.776 658.96 231.947 607.462 229.735 597.557C235.834 595.648 247.799 591.9 251.884 588.841C264.898 613.207 283.847 650.975 299.578 673.6C291.942 633.519 285.384 629.766 273.273 530.599L296.049 528.213C299.648 564.472 321.593 684.89 324.684 710.457L306.234 716.235C306.234 716.235 268.203 664.224 256.02 640.615C259.214 673.144 256.593 728.517 256.443 731.828L238.649 737.401L238.676 737.35ZM268.279 509.782L258.312 528.841L212.135 510.367L186.096 551.458L167.423 541.367L203.43 481.218L268.241 509.794L268.279 509.782Z" fill="black"/>
<path d="M154.779 738.583C194.139 760.452 207.267 811.921 184.22 853.4C161.174 894.879 110.563 910.782 71.2419 888.935C31.9213 867.088 18.6686 815.751 41.7363 774.234C64.804 732.716 115.459 716.736 154.779 738.583ZM82.303 870.213C111.358 886.356 147.671 873.831 165.01 842.625C182.348 811.419 173.84 773.991 144.747 757.826C115.653 741.661 78.2937 753.605 60.9553 784.811C43.617 816.017 53.2484 854.07 82.303 870.213ZM97.1278 807.032C92.2997 815.722 91.0395 829.578 102.468 835.928C109.944 840.082 115.818 841.374 124.03 835.626L135.637 854.155C116.954 865.609 100.592 859.197 91.9914 854.418C75.5271 845.27 62.2484 824.549 77.7842 796.588C91.3673 772.14 115.173 763.33 136.828 775.362C146.63 780.808 158.682 794.429 157.579 810.192L135.686 810.816C135.43 802.334 134.543 798.455 126.098 793.762C115.329 787.779 104.205 794.386 97.1881 807.015L97.1278 807.032Z" fill="black"/>
</svg>
