<svg width="637" height="215" viewBox="0 0 637 215" fill="none" xmlns="http://www.w3.org/2000/svg">
<rect y="73.0479" width="563" height="141" fill="black"/>
<rect x="8" y="86.2305" width="617.222" height="121.002" transform="rotate(-8.0309 8 86.2305)" fill="#FFF200"/>
<path d="M255.874 125.263L264.262 124.112L259.992 92.5829L267.249 91.5866L271.515 122.879L275.84 122.285C275.931 123.16 276.272 125.863 276.408 126.85C276.858 130.13 277.712 134.626 278.983 136.994L272.679 138.895C271.367 136.443 270.472 132.722 269.975 129.537L267.827 129.832L249.285 132.408L244.203 94.7508L251.546 93.7426L255.874 125.263ZM293.135 96.1941L301.15 95.1232C301.15 95.1232 302.53 105.816 303.454 112.55C304.104 117.281 304.756 121.598 305.38 124.853L298.124 125.85C297.472 122.391 297.139 120.396 296.731 117.643C296.364 114.972 296.223 107.481 296.223 107.481C290.57 121.446 290.002 123.771 289.48 126.859L281.816 128.118L277.735 98.3973L285.137 97.3811L286.169 104.898C286.376 106.408 286.949 112.303 286.949 115.319C292.389 102.388 293.081 100.105 293.135 96.1941ZM316.549 93.9849L316.023 90.1536L315.728 88.0058C315.548 86.6997 315.352 85.4846 315.037 84.6999L322.345 83.4304L322.424 84.0109L322.707 86.0716L323.688 93.2117C323.688 93.2117 324.623 91.8412 326.045 91.6459L326.277 91.614C331.473 90.9007 333.799 93.6272 335.281 104.424C337.226 118.588 333.712 120.993 329.707 121.543C327.936 121.786 327.553 121.366 327.553 121.366L328.191 126.009C328.565 128.738 329.153 131.082 329.627 133.028L322.465 134.277C321.913 132.194 321.393 129.486 321.031 126.845L320.409 122.317C320.409 122.317 319.983 122.878 317.952 123.157C313.221 123.807 310.233 122.295 308.289 108.131C306.838 97.5656 308.979 93.9892 314.261 93.2639C315.393 93.1085 316.549 93.9849 316.549 93.9849ZM315.367 107.78C316.519 116.168 317.086 117.066 318.189 116.914C319.234 116.771 319.508 115.757 319.508 115.757C318.927 111.52 318.051 104.927 317.469 100.69C317.469 100.69 316.699 99.1689 316.06 99.2566C314.841 99.4239 314.311 100.088 315.367 107.78ZM328.333 105.94C327.349 98.7712 326.683 97.798 325.406 97.9734C324.535 98.0929 324.584 99.7422 324.584 99.7422L326.641 114.719C326.641 114.719 327.302 115.663 328.26 115.531C329.218 115.4 329.537 114.706 328.333 105.94ZM357.516 101.815C356.747 96.2133 355.326 93.8357 352.772 94.1863C349.028 94.7004 348.018 96.8204 347.062 99.5539L348.495 109.559C349.829 111.091 351.636 112.618 353.813 112.319C357.151 111.861 358.58 109.565 357.516 101.815ZM339.65 98.1172L339.546 97.3626C339.215 94.9536 338.536 92.5924 337.987 90.7456L344.501 89.0824C344.858 89.7431 345.212 90.8181 345.484 91.9341C346.862 89.9114 349.189 88.764 352.439 88.3177C360.421 87.2218 363.799 92.4358 364.867 100.214C366.206 109.967 364.975 116.73 354.469 118.173C351.566 118.571 350.055 117.685 349.089 116.9C349.365 118.045 349.715 119.091 349.978 120.357L350.34 122.998C350.715 125.726 351.253 128.136 351.727 130.082L344.557 131.274C344.005 129.191 343.481 126.453 343.118 123.812L339.65 98.1172ZM392.662 112.692L388.712 83.2782L395.736 82.3138L399.744 111.72L392.662 112.692ZM378.673 101.483C377.919 101.586 377.403 101.923 377.403 101.923C378.289 108.81 377.914 106.289 378.188 108.499C378.188 108.499 379.016 108.503 379.597 108.424C381.832 108.117 382.191 106.855 381.912 104.823C381.617 102.676 380.908 101.176 378.673 101.483ZM368.018 86.1196L369.237 85.9522L375.129 85.1432L376.66 96.0815C378.868 95.3643 378.707 95.2682 380.536 95.0171C385.789 94.2958 388.472 97.0325 389.464 104.26C390.313 110.442 388.241 113.447 381.043 114.435C378.286 114.814 375.421 115.059 372.055 115.521C371.281 109.891 370.503 103.788 368.845 91.7134C368.41 88.5497 368.384 88.7899 368.018 86.1196Z" fill="black"/>
</svg>
