<svg width="637" height="215" viewBox="0 0 637 215" fill="none" xmlns="http://www.w3.org/2000/svg">
<rect y="73.0476" width="563" height="141" fill="black"/>
<rect x="8" y="86.2305" width="617.222" height="121.002" transform="rotate(-8.0309 8 86.2305)" fill="#FFF200"/>
<path d="M148.037 130.281C143.105 129.036 141.068 125.619 140.319 120.163C139 110.556 146.161 108.005 155.826 106.678C157.597 106.435 160.979 106.296 162.213 106.245C162.34 108.031 162.499 109.399 162.766 111.344L167.201 143.648L159.742 144.672L157.647 129.198C157.647 129.198 156.754 129.587 156.323 129.676C155.072 132.627 150.98 140.73 148.591 144.222C147.264 145.972 145.468 147.105 144.151 147.641L139.286 141.064C140.667 140.786 142.185 139.779 143.011 138.69C144.913 136.388 146.259 134.133 148.037 130.281ZM147.95 119.529C148.353 122.46 149.979 124.396 152.446 124.057C154.304 123.802 155.187 123.562 156.762 122.755L155.477 112.966C154.632 113.052 154.399 113.084 153.645 113.188C148.681 113.869 147.412 115.611 147.95 119.529ZM170.076 139.173L172.805 133.416C174.468 134.548 177.695 136.293 182.571 135.624C187.824 134.902 188.99 133.057 188.795 131.634C188.349 128.384 186.183 127.469 180.349 128.27C179.594 128.373 178.843 128.506 178.089 128.609L177.28 122.717L177.802 122.646L177.947 122.626L178.151 122.598C181.024 122.203 187.256 120.638 186.969 118.548C186.762 117.039 184.595 116.982 181.257 117.44C177.049 118.018 173.442 119.962 172.805 120.493L169.826 115.165C170.3 114.745 173.366 112.52 180.129 111.592L180.506 111.54C186.95 110.655 193.887 111.211 194.62 116.551C195.01 119.396 193.702 122.355 189.329 123.458C193.884 123.898 196.017 126.946 196.536 130.719C196.795 132.606 195.953 135.738 193.961 137.815C192.019 139.827 189.392 140.72 184.109 141.445C177.637 142.334 172.348 140.428 170.076 139.173ZM223.944 135.857L219.994 106.443L227.018 105.479L231.026 134.885L223.944 135.857ZM209.956 124.648C209.201 124.752 208.685 125.089 208.685 125.089C209.572 131.975 209.196 129.454 209.47 131.664C209.47 131.664 210.298 131.669 210.879 131.589C213.114 131.282 213.473 130.02 213.194 127.989C212.899 125.841 212.19 124.341 209.956 124.648ZM199.3 109.285L200.519 109.117L206.411 108.308L207.942 119.247C210.15 118.53 209.989 118.433 211.818 118.182C217.071 117.461 219.754 120.198 220.746 127.425C221.595 133.607 219.523 136.612 212.325 137.6C209.568 137.979 206.704 138.224 203.337 138.687C202.564 133.056 201.785 126.953 200.127 114.879C199.693 111.715 199.666 111.955 199.3 109.285ZM249.52 116.229C253.473 119.176 259.178 124.543 261.795 127.881L254.893 132.318C252.697 129.248 249.278 124.808 245.37 121.323L242.996 124.281L244.203 133.076L236.744 134.1L232.679 104.495L240.139 103.471L241.764 115.313C245.224 109.929 249.062 104.493 251.74 101.168L258.713 105.001C255.662 108.2 252.725 112.004 249.52 116.229ZM278.248 98.2381L286.263 97.1672C286.263 97.1672 287.642 107.86 288.567 114.594C289.216 119.325 289.868 123.642 290.492 126.897L283.236 127.894C282.584 124.435 282.251 122.44 281.843 119.687C281.477 117.016 281.335 109.525 281.335 109.525C275.682 123.49 275.114 125.815 274.592 128.903L266.929 130.162L262.848 100.441L270.249 99.425L271.281 106.942C271.488 108.452 272.061 114.347 272.061 117.363C277.501 104.432 278.193 102.149 278.248 98.2381ZM332.211 114.782L335.345 114.352L332.174 91.0408L339.256 90.0685L342.427 113.379L345.475 112.961L342.333 89.646L349.386 88.6776L353.394 118.084L348.866 118.705L325.97 121.878L322.016 92.4356L329.011 91.4752L332.211 114.782ZM373.394 99.6348C372.625 94.033 371.205 91.6554 368.651 92.0061C364.906 92.5201 363.896 94.6401 362.941 97.3736L364.374 107.379C365.708 108.911 367.514 110.437 369.691 110.139C373.029 109.68 374.458 107.384 373.394 99.6348ZM355.528 95.937L355.424 95.1823C355.094 92.7733 354.415 90.4121 353.865 88.5653L360.379 86.9021C360.736 87.5628 361.091 88.6378 361.362 89.7538C362.741 87.7311 365.067 86.5837 368.318 86.1374C376.3 85.0415 379.677 90.2555 380.745 98.0341C382.084 107.786 380.854 114.55 370.347 115.992C367.445 116.391 365.933 115.504 364.968 114.72C365.243 115.865 365.594 116.911 365.856 118.176L366.219 120.817C366.594 123.546 367.131 125.956 367.606 127.902L360.435 129.093C359.883 127.01 359.36 124.273 358.997 121.632L355.528 95.937ZM401.312 81.3411L409.327 80.2702C409.327 80.2702 410.706 90.9632 411.631 97.6969C412.28 102.428 412.932 106.745 413.557 110L406.3 110.997C405.648 107.538 405.315 105.543 404.907 102.79C404.541 100.119 404.399 92.6276 404.399 92.6276C398.746 106.593 398.179 108.918 397.656 112.006L389.993 113.265L385.912 83.5442L393.313 82.528L394.345 90.0454C394.553 91.5547 395.125 97.4495 395.125 100.466C400.566 87.5353 401.258 85.252 401.312 81.3411ZM424.725 79.1318L424.199 75.3006L423.904 73.1528C423.725 71.8466 423.529 70.6316 423.214 69.8468L430.521 68.5773L430.601 69.1578L430.884 71.2186L431.864 78.3586C431.864 78.3586 432.8 76.9882 434.222 76.7929L434.454 76.761C439.649 76.0477 441.976 78.7742 443.458 89.5713C445.403 103.735 441.889 106.14 437.883 106.69C436.113 106.933 435.73 106.512 435.73 106.512L436.367 111.156C436.742 113.885 437.33 116.229 437.804 118.175L430.642 119.424C430.09 117.341 429.57 114.633 429.207 111.992L428.586 107.464C428.586 107.464 428.16 108.025 426.128 108.304C421.397 108.953 418.41 107.441 416.465 93.2775C415.015 82.7126 417.155 79.1361 422.438 78.4109C423.57 78.2554 424.725 79.1318 424.725 79.1318ZM423.544 92.9266C424.695 101.315 425.262 102.213 426.365 102.061C427.41 101.918 427.685 100.904 427.685 100.904C427.103 96.6666 426.228 90.0741 425.646 85.8365C425.646 85.8365 424.875 84.3159 424.237 84.4035C423.018 84.5709 422.488 85.2351 423.544 92.9266ZM436.51 91.0872C435.525 83.9181 434.86 82.945 433.582 83.1203C432.712 83.2399 432.761 84.8892 432.761 84.8892L434.817 99.8658C434.817 99.8658 435.479 100.81 436.437 100.678C437.395 100.547 437.713 99.8526 436.51 91.0872ZM458.673 103.895L455.409 80.1235C449.662 80.9125 448.534 81.097 446.328 81.3999L445.491 75.3047C449.032 74.8185 462.206 72.9802 467.662 72.231C469.781 71.9401 471.306 71.849 471.841 71.8643L471.571 78.7324C471.571 78.7324 469.66 78.1668 467.193 78.5055L462.81 79.1073L466.074 102.878L458.673 103.895ZM486.775 90.3956C487.166 93.2401 489.288 93.8358 491.146 93.5808C494.339 93.1424 496.312 89.8551 496.611 88.158L496.424 86.7939C495.212 85.7183 493.103 85.0024 491.245 85.2575C489.329 85.5205 486.337 87.2029 486.775 90.3956ZM504.165 88.0376C504.532 90.7078 505.291 92.1414 507.124 93.2203L504.09 98.0431C502.421 97.0894 501.391 96.9056 499.885 94.9832C497.99 97.55 495.745 98.8636 490.463 99.5889C485.499 100.27 479.956 97.1576 479.231 91.8751C478.872 89.2629 479.396 86.6182 480.866 84.6126C483.236 81.4186 486.327 80.0185 490.448 79.4526C492.306 79.1975 494.305 79.544 495.511 80.1472C494.85 75.3291 491.36 74.8917 489.618 75.1308C486.28 75.5891 483.683 76.9215 481.846 79.4803L477.477 73.9294C482.088 70.0433 483.867 69.8582 489.021 69.0618C495.552 68.1651 501.866 71.2904 502.814 78.1982L504.165 88.0376Z" fill="black"/>
</svg>
