<svg width="590" height="208" viewBox="0 0 590 208" fill="none" xmlns="http://www.w3.org/2000/svg">
<rect y="66.4306" width="563" height="141" fill="black"/>
<rect x="8" y="79.614" width="569.863" height="121.002" transform="rotate(-8.0309 8 79.614)" fill="#FFF200"/>
<path d="M143.19 100.797C147.863 100.155 156.6 101.115 159.256 119.38L159.299 119.699C159.965 124.547 159.691 129.227 158.676 132.176C157.085 136.741 153.074 139.835 148.285 140.492C144.744 140.979 140.256 140.382 137.499 137.745C134.44 134.853 132.89 130.452 132.156 125.112C130.754 114.895 131.861 110.041 133.507 106.947C135.056 104.014 138.674 101.506 143.19 100.797ZM142.503 132.622C144.162 134.582 145.328 134.895 147.476 134.6C149.769 134.286 150.944 132.291 151.537 129.932C152.086 128.112 152.074 123.501 151.708 120.623L151.64 120.13C151.214 117.024 150.359 112.736 148.931 110.093C147.348 107.175 145.711 106.454 143.97 106.693C142.083 106.952 141.08 107.829 140.202 110.049C139.168 112.646 138.712 116.641 139.68 123.694C140.067 126.51 141.054 130.899 142.503 132.622ZM171.717 121.188C172.988 130.447 177.743 129.972 179.107 129.784L179.456 129.736C182.358 129.338 183.662 127.207 184.733 124.665L191.826 127.654C190.45 132.278 186.91 134.923 180.583 135.792C177.564 136.206 173.962 136.464 170.889 134.757C166.713 132.344 164.939 128.033 164.145 122.257C162.791 112.389 167.355 107.297 176.498 106.042C179.255 105.663 182.146 105.828 184.142 106.796C186.043 107.718 187.613 109.247 188.459 110.669L182.48 114.506C182.039 113.443 180.88 111.68 176.816 112.238C172.55 112.823 171.147 117.038 171.717 121.188ZM212.107 123.952C213.264 122.256 213.227 119.185 212.721 115.499L212.657 115.035C211.973 110.486 210.451 106.939 206.736 107.449C202.353 108.051 201.605 112.294 202.434 118.331C203.096 123.149 205.398 126.352 208.91 125.87C210.503 125.621 211.206 125.141 212.107 123.952ZM209.69 131.766C200.693 133.001 196.307 127.985 195.192 119.858C193.713 109.09 197.021 102.81 205.496 101.646C211.214 100.861 214.681 102.425 217.239 105.978C218.744 108.107 219.717 111.315 220.099 114.102C221.235 122.374 219.501 130.419 209.748 131.758L209.69 131.766ZM243.833 112.292C242.965 105.965 241.204 104.343 237.866 104.801C235.109 105.18 232 107.086 232.88 113.5C233.785 120.089 237.039 122.037 240.029 121.627C243.918 121.093 244.694 118.561 243.833 112.292ZM231.278 101.832C232.598 99.8174 234.679 99.0291 238.161 98.5509C244.344 97.7021 249.953 100.865 251.34 110.965C252.727 121.066 248.934 126.614 240.866 127.722L240.808 127.73C232.909 128.785 226.992 126.61 224.768 110.415C222.891 96.7441 226.056 90.07 234.419 88.0936C240.406 86.6803 240.841 85.7628 242.646 83.8295L248.691 89.0912C247.025 90.7394 244.609 92.3131 237.736 93.73C231.411 95.0421 230.918 97.919 231.278 101.832ZM263.82 106.236C267.02 105.205 269.733 104.714 273.593 104.184C272.926 100.402 270.609 99.0343 268.055 99.385C265.094 99.7915 263.532 102.845 263.82 106.236ZM267.188 93.501C276.447 92.2297 280.439 97.8324 281.778 107.585C281.858 108.165 281.92 108.837 281.92 108.837C273.664 110.089 267.538 111.344 264.657 112.331C265.564 115.489 268.473 117.721 271.143 117.355C274.22 116.932 275.469 115.696 277.148 113.277L282.936 117.096C280.451 120.749 278.727 122.405 271.79 123.358C263.489 124.497 257.938 118.961 256.691 109.876C255.551 101.575 258.974 94.6288 267.188 93.501ZM293.961 89.7066L295.578 101.698C297.8 100.86 299.003 100.577 301.644 100.214L303.327 99.9832C302.235 92.0304 302.406 93.4857 301.76 88.7837L309.19 87.7635L313.255 117.369L305.854 118.385L304.164 106.078L302.568 106.298C300.478 106.584 298.18 107.077 296.415 107.793C297.782 117.748 297.354 114.199 298.075 119.453L290.587 120.481L286.51 90.7888L293.961 89.7066ZM324.728 85.4823L326.344 97.4735C328.566 96.6362 329.769 96.3527 332.41 95.9901L334.093 95.7589C333.001 87.8062 333.172 89.2614 332.526 84.5594L339.956 83.5392L344.021 113.144L336.62 114.161L334.93 101.854L333.334 102.073C331.244 102.36 328.946 102.853 327.181 103.569C328.548 113.524 328.12 109.975 328.841 115.229L321.353 116.257L317.276 86.5646L324.728 85.4823ZM365.937 102.831C367.094 101.134 367.057 98.064 366.551 94.3779L366.487 93.9135C365.803 89.3646 364.281 85.818 360.566 86.3281C356.184 86.9298 355.435 91.1726 356.264 97.2097C356.926 102.028 359.229 105.231 362.741 104.748C364.333 104.5 365.036 104.019 365.937 102.831ZM363.521 110.644C354.523 111.88 350.138 106.863 349.022 98.7364C347.543 87.9683 350.851 81.6885 359.326 80.5249C365.044 79.7398 368.511 81.3041 371.069 84.8564C372.574 86.986 373.547 90.194 373.929 92.9804C375.065 101.252 373.331 109.297 363.579 110.636L363.521 110.644ZM387.079 91.6184C388.35 100.877 393.105 100.402 394.47 100.215L394.818 100.167C397.72 99.7682 399.025 97.6374 400.095 95.0951L407.189 98.0838C405.813 102.708 402.272 105.353 395.945 106.222C392.926 106.636 389.325 106.894 386.251 105.187C382.076 102.774 380.301 98.4635 379.508 92.6876C378.153 82.8192 382.717 77.7272 391.86 76.4718C394.618 76.0933 397.509 76.2582 399.505 77.2261C401.405 78.148 402.976 79.6771 403.821 81.0987L397.843 84.936C397.401 83.8729 396.242 82.1098 392.179 82.6678C387.912 83.2536 386.509 87.4679 387.079 91.6184ZM420.943 102.849L417.679 79.0777C411.932 79.8668 410.804 80.0513 408.599 80.3541L407.762 74.259C411.303 73.7728 424.476 71.9345 429.932 71.1853C432.051 70.8944 433.576 70.8032 434.111 70.8186L433.841 77.6867C433.841 77.6867 431.93 77.121 429.463 77.4598L425.081 78.0615L428.344 101.833L420.943 102.849ZM455.88 67.6226L463.895 66.5517C463.895 66.5517 465.275 77.2447 466.199 83.9784C466.849 88.7094 467.501 93.0261 468.125 96.282L460.869 97.2782C460.217 93.8192 459.884 91.8245 459.476 89.0711C459.109 86.4009 458.968 78.9091 458.968 78.9091C453.315 92.8742 452.747 95.1997 452.225 98.2877L444.561 99.5469L440.48 69.8258L447.882 68.8095L448.914 76.3269C449.121 77.8362 449.694 83.731 449.694 86.7473C455.134 73.8168 455.826 71.5335 455.88 67.6226Z" fill="black"/>
</svg>
