<svg width="637" height="215" viewBox="0 0 637 215" fill="none" xmlns="http://www.w3.org/2000/svg">
<rect y="73.0476" width="563" height="141" fill="black"/>
<rect x="8" y="86.2303" width="617.222" height="121.002" transform="rotate(-8.0309 8 86.2303)" fill="#FFF200"/>
<path d="M66.9046 118.325L69.0156 133.916C71.6022 132.939 73.3118 132.468 76.7947 131.99L79.3198 131.643C78.204 123.516 77.9438 121.837 77.2863 117.048L84.7166 116.028L89.965 154.253L82.5637 155.269L80.1766 137.883L79.2479 138.011C75.0103 138.593 73.1937 138.931 69.8724 140.156C71.2672 150.314 71.4647 151.322 72.202 156.692L64.7136 157.72L59.4533 119.408L66.9046 118.325ZM101.705 143.267C102.095 146.111 104.218 146.707 106.075 146.452C109.268 146.014 111.241 142.726 111.541 141.029L111.353 139.665C110.141 138.589 108.032 137.874 106.174 138.129C104.259 138.392 101.266 140.074 101.705 143.267ZM119.094 140.909C119.461 143.579 120.22 145.013 122.053 146.092L119.019 150.914C117.351 149.961 116.32 149.777 114.814 147.854C112.919 150.421 110.674 151.735 105.392 152.46C100.429 153.142 94.8854 150.029 94.1601 144.746C93.8014 142.134 94.3254 139.489 95.7948 137.484C98.1656 134.29 101.256 132.89 105.377 132.324C107.235 132.069 109.234 132.415 110.441 133.018C109.779 128.2 106.289 127.763 104.547 128.002C101.209 128.46 98.6127 129.793 96.7757 132.352L92.4058 126.801C97.0177 122.914 98.7962 122.729 103.951 121.933C110.481 121.036 116.795 124.162 117.743 131.069L119.094 140.909ZM146.765 116.291C148.486 128.83 149.079 133.362 150.801 145.9L143.37 146.92L142.677 141.87C142.35 139.49 142.68 136.724 142.68 136.724C141.566 137.439 139.627 138.178 137.479 138.473C128.191 139.749 125.909 134.975 124.403 124.004L123.777 119.447L131.208 118.427L131.881 123.332C133.057 131.895 134.084 132.7 137.219 132.269C138.67 132.07 139.604 131.764 141.133 130.845L139.334 117.311L146.765 116.291ZM162.608 126.359C165.808 125.328 168.52 124.837 172.38 124.307C171.713 120.525 169.396 119.157 166.842 119.508C163.881 119.914 162.319 122.968 162.608 126.359ZM165.975 113.624C175.234 112.353 179.226 117.955 180.565 127.708C180.645 128.288 180.708 128.96 180.708 128.96C172.452 130.212 166.325 131.467 163.444 132.454C164.351 135.612 167.26 137.844 169.93 137.478C173.007 137.055 174.257 135.819 175.935 133.4L181.723 137.219C179.238 140.872 177.514 142.528 170.577 143.48C162.276 144.62 156.725 139.084 155.478 129.999C154.338 121.698 157.761 114.752 165.975 113.624ZM203.686 122.936C202.917 117.335 201.496 114.957 198.942 115.308C195.198 115.822 194.188 117.942 193.232 120.675L194.665 130.681C195.999 132.213 197.806 133.739 199.983 133.44C203.32 132.982 204.75 130.686 203.686 122.936ZM185.82 119.238L185.716 118.484C185.385 116.075 184.706 113.714 184.157 111.867L190.671 110.204C191.028 110.864 191.382 111.939 191.654 113.055C193.032 111.033 195.359 109.885 198.609 109.439C206.591 108.343 209.969 113.557 211.037 121.336C212.376 131.088 211.145 137.851 200.639 139.294C197.736 139.692 196.224 138.806 195.259 138.022C195.535 139.167 195.885 140.213 196.148 141.478L196.51 144.119C196.885 146.847 197.423 149.257 197.897 151.203L190.727 152.395C190.175 150.312 189.651 147.574 189.288 144.933L185.82 119.238ZM227.432 135.645L224.168 111.873C218.422 112.663 217.294 112.847 215.088 113.15L214.251 107.055C217.792 106.568 230.965 104.73 236.422 103.981C238.54 103.69 240.066 103.599 240.6 103.614L240.331 110.482C240.331 110.482 238.419 109.917 235.952 110.255L231.57 110.857L234.833 134.628L227.432 135.645ZM255.535 122.146C255.925 124.99 258.048 125.586 259.905 125.331C263.098 124.892 265.072 121.605 265.371 119.908L265.184 118.544C263.971 117.468 261.862 116.752 260.005 117.007C258.089 117.27 255.097 118.953 255.535 122.146ZM272.925 119.788C273.291 122.458 274.05 123.891 275.884 124.97L272.849 129.793C271.181 128.839 270.15 128.656 268.644 126.733C266.749 129.3 264.505 130.614 259.222 131.339C254.259 132.02 248.716 128.908 247.99 123.625C247.632 121.013 248.156 118.368 249.625 116.363C251.996 113.169 255.086 111.768 259.207 111.203C261.065 110.947 263.064 111.294 264.271 111.897C263.609 107.079 260.119 106.642 258.378 106.881C255.04 107.339 252.443 108.671 250.606 111.23L246.236 105.679C250.848 101.793 252.626 101.608 257.781 100.812C264.311 99.9151 270.625 103.04 271.574 109.948L272.925 119.788ZM285.047 97.1568L286.664 109.148C288.885 108.311 290.088 108.027 292.729 107.665L294.413 107.433C293.321 99.4806 293.491 100.936 292.845 96.2339L300.276 95.2137L304.34 124.819L296.939 125.835L295.25 113.529L293.653 113.748C291.563 114.035 289.265 114.528 287.501 115.243C288.867 125.198 288.439 121.65 289.161 126.903L281.672 127.931L277.595 98.239L285.047 97.1568ZM323.902 91.9698L331.916 90.8989C331.916 90.8989 333.296 101.592 334.22 108.326C334.87 113.057 335.522 117.373 336.146 120.629L328.89 121.625C328.238 118.166 327.905 116.172 327.497 113.418C327.131 110.748 326.989 103.256 326.989 103.256C321.336 117.221 320.768 119.547 320.246 122.635L312.582 123.894L308.502 94.173L315.903 93.1567L316.935 100.674C317.142 102.183 317.715 108.078 317.715 111.095C323.155 98.164 323.847 95.8807 323.902 91.9698ZM347.599 106.045C346.482 105.666 343.24 103.805 342.527 98.6093C341.542 91.4402 345.988 88.4937 355.072 87.2464C356.843 87.0033 361.385 86.7049 362.62 86.6536C362.747 88.44 362.906 89.8082 363.173 91.7528L366.54 116.279L359.197 117.287L357.608 105.499C357.075 105.927 356.213 106.104 356.213 106.104C354.987 109.023 349.029 117.323 345.857 120.065L339.579 114.835C342.064 113.547 345.249 110.035 347.599 106.045ZM349.957 97.5891C350.2 99.3596 351.222 101.201 353.253 100.922C355.053 100.675 356.091 100.266 356.771 99.4037L356.024 93.5328C356.024 93.5328 354.603 93.5209 353.239 93.7082C350.917 94.027 349.618 95.122 349.957 97.5891ZM408.631 104.289L411.765 103.859L408.594 80.5483L415.676 79.5759L418.847 102.887L421.895 102.468L418.753 79.1535L425.806 78.1851L429.814 107.591L425.286 108.213L402.389 111.386L398.436 81.9431L405.431 80.9827L408.631 104.289ZM449.814 89.1422C449.045 83.5405 447.625 81.1628 445.07 81.5135C441.326 82.0276 440.316 84.1476 439.361 86.8811L440.794 96.8866C442.128 98.4186 443.934 99.9448 446.111 99.646C449.449 99.1877 450.878 96.8918 449.814 89.1422ZM431.948 85.4444L431.844 84.6898C431.514 82.2807 430.835 79.9195 430.285 78.0728L436.799 76.4095C437.156 77.0702 437.511 78.1453 437.782 79.2613C439.161 77.2386 441.487 76.0912 444.738 75.6448C452.719 74.5489 456.097 79.763 457.165 87.5415C458.504 97.2938 457.274 104.057 446.767 105.5C443.864 105.898 442.353 105.012 441.388 104.228C441.663 105.373 442.014 106.419 442.276 107.684L442.639 110.325C443.013 113.053 443.551 115.463 444.025 117.409L436.855 118.601C436.303 116.518 435.779 113.78 435.417 111.139L431.948 85.4444ZM477.732 70.8485L485.747 69.7776C485.747 69.7776 487.126 80.4706 488.051 87.2043C488.7 91.9353 489.352 96.252 489.976 99.5079L482.72 100.504C482.068 97.0451 481.735 95.0504 481.327 92.2971C480.961 89.6268 480.819 82.135 480.819 82.135C475.166 96.1002 474.598 98.4256 474.076 101.514L466.413 102.773L462.332 73.0517L469.733 72.0355L470.765 79.5528C470.972 81.0621 471.545 86.957 471.545 89.9733C476.985 77.0428 477.677 74.7595 477.732 70.8485ZM501.145 68.6393L500.619 64.808L500.324 62.6602C500.145 61.3541 499.948 60.139 499.634 59.3543L506.941 58.0848L507.021 58.6653L507.304 60.726L508.284 67.8661C508.284 67.8661 509.22 66.4956 510.642 66.3003L510.874 66.2685C516.069 65.5551 518.395 68.2816 519.878 79.0788C521.823 93.2428 518.308 95.6474 514.303 96.1974C512.533 96.4405 512.15 96.0199 512.15 96.0199L512.787 100.664C513.162 103.392 513.75 105.736 514.224 107.682L507.062 108.932C506.51 106.849 505.99 104.14 505.627 101.499L505.006 96.9712C505.006 96.9712 504.58 97.5324 502.548 97.8114C497.817 98.4609 494.83 96.9489 492.885 82.7849C491.434 72.22 493.575 68.6436 498.858 67.9183C499.99 67.7629 501.145 68.6393 501.145 68.6393ZM499.964 82.434C501.115 90.8221 501.682 91.7202 502.785 91.5687C503.83 91.4253 504.105 90.4117 504.105 90.4117C503.523 86.1741 502.647 79.5815 502.066 75.3439C502.066 75.3439 501.295 73.8233 500.656 73.911C499.437 74.0784 498.908 74.7425 499.964 82.434ZM512.93 80.5946C511.945 73.4256 511.279 72.4524 510.002 72.6278C509.132 72.7473 509.181 74.3966 509.181 74.3966L511.237 89.3733C511.237 89.3733 511.899 90.3174 512.857 90.1859C513.814 90.0544 514.133 89.3601 512.93 80.5946ZM535.093 93.4021L531.829 69.6309C526.082 70.42 524.954 70.6044 522.748 70.9073L521.911 64.8122C525.452 64.326 538.625 62.4877 544.082 61.7385C546.201 61.4476 547.726 61.3564 548.26 61.3718L547.991 68.2398C547.991 68.2398 546.08 67.6742 543.613 68.013L539.23 68.6147L542.494 92.3858L535.093 93.4021ZM563.195 79.9031C563.586 82.7475 565.708 83.3433 567.566 83.0882C570.758 82.6499 572.732 79.3626 573.031 77.6655L572.844 76.3013C571.632 75.2257 569.523 74.5099 567.665 74.7649C565.749 75.028 562.757 76.7104 563.195 79.9031ZM580.585 77.545C580.952 80.2153 581.71 81.6488 583.544 82.7278L580.51 87.5506C578.841 86.5968 577.81 86.4131 576.305 84.4907C574.409 87.0575 572.165 88.3711 566.883 89.0964C561.919 89.7778 556.376 86.665 555.651 81.3826C555.292 78.7704 555.816 76.1257 557.285 74.12C559.656 70.9261 562.746 69.5259 566.868 68.96C568.725 68.705 570.725 69.0515 571.931 69.6547C571.27 64.8366 567.779 64.3991 566.038 64.6382C562.7 65.0965 560.103 66.4289 558.266 68.9877L553.896 63.4368C558.508 59.5507 560.287 59.3657 565.441 58.5692C571.972 57.6726 578.286 60.7978 579.234 67.7057L580.585 77.545Z" fill="black"/>
</svg>
