<svg width="590" height="208" viewBox="0 0 590 208" fill="none" xmlns="http://www.w3.org/2000/svg">
<rect y="66.4307" width="563" height="141" fill="black"/>
<rect x="8" y="79.6138" width="569.863" height="121.002" transform="rotate(-8.0309 8 79.6138)" fill="#FFF200"/>
<path d="M71.3703 111.841L78.5143 110.89C78.7255 112.428 79.0335 114.456 79.2607 116.11C80.1773 122.786 81.0734 130.174 81.974 136.733L82.4443 140.158C82.9026 143.496 83.3051 146.428 83.7889 148.875L76.794 149.835C75.8513 144.908 75.3372 141.164 74.596 135.765C74.1656 132.631 74.2985 126.491 74.2985 126.491C71.8909 134.155 68.6942 145.979 67.1869 151.154L59.093 152.295L53.9675 114.319L61.0666 113.256C61.6723 117.667 63.3051 129.775 63.3051 129.775C64.0822 135.434 63.8589 142.207 63.8589 142.207C66.1332 133.142 70.0215 122.909 71.3703 111.841ZM95.2973 131.681C96.5686 140.94 101.323 140.464 102.688 140.277L103.036 140.229C105.938 139.831 107.243 137.7 108.313 135.157L115.407 138.146C114.031 142.771 110.49 145.416 104.163 146.284C101.144 146.699 97.5426 146.957 94.4693 145.25C90.2936 142.836 88.5189 138.526 87.7259 132.75C86.3709 122.882 90.9355 117.79 100.078 116.534C102.836 116.156 105.727 116.321 107.723 117.289C109.624 118.21 111.194 119.74 112.04 121.161L106.061 124.998C105.619 123.935 104.46 122.172 100.397 122.73C96.1301 123.316 94.7274 127.53 95.2973 131.681ZM129.161 142.911L125.897 119.14C120.15 119.929 119.023 120.114 116.817 120.417L115.98 114.321C119.521 113.835 132.694 111.997 138.151 111.248C140.269 110.957 141.795 110.866 142.329 110.881L142.06 117.749C142.06 117.749 140.148 117.183 137.681 117.522L133.299 118.124L136.562 141.895L129.161 142.911ZM166.453 130.221C167.61 128.524 167.573 125.454 167.067 121.768L167.003 121.303C166.32 116.754 164.798 113.208 161.082 113.718C156.7 114.319 155.952 118.562 156.781 124.599C157.442 129.417 159.745 132.62 163.257 132.138C164.849 131.89 165.552 131.409 166.453 130.221ZM164.037 138.034C155.039 139.269 150.654 134.253 149.538 126.126C148.06 115.358 151.367 109.078 159.842 107.915C165.56 107.129 169.028 108.694 171.585 112.246C173.09 114.376 174.063 117.584 174.446 120.37C175.581 128.642 173.847 136.687 164.095 138.026L164.037 138.034ZM197.713 117.53C196.944 111.928 195.523 109.551 192.969 109.901C189.225 110.416 188.215 112.536 187.259 115.269L188.692 125.275C190.026 126.807 191.833 128.333 194.01 128.034C197.348 127.576 198.777 125.28 197.713 117.53ZM179.847 113.832L179.743 113.078C179.412 110.669 178.733 108.307 178.184 106.461L184.698 104.797C185.055 105.458 185.409 106.533 185.681 107.649C187.059 105.627 189.386 104.479 192.636 104.033C200.618 102.937 203.996 108.151 205.064 115.929C206.403 125.682 205.173 132.445 194.666 133.888C191.763 134.286 190.252 133.4 189.286 132.615C189.562 133.761 189.912 134.807 190.175 136.072L190.538 138.713C190.912 141.441 191.45 143.851 191.924 145.797L184.754 146.989C184.202 144.906 183.678 142.168 183.316 139.527L179.847 113.832ZM225.631 99.2365L233.645 98.1656C233.645 98.1656 235.025 108.859 235.949 115.592C236.599 120.323 237.251 124.64 237.875 127.896L230.619 128.892C229.967 125.433 229.634 123.438 229.226 120.685C228.859 118.015 228.718 110.523 228.718 110.523C223.065 124.488 222.497 126.814 221.975 129.902L214.311 131.161L210.23 101.44L217.632 100.423L218.664 107.941C218.871 109.45 219.444 115.345 219.444 118.361C224.884 105.431 225.576 103.147 225.631 99.2365ZM249.328 113.312C248.211 112.933 244.969 111.071 244.256 105.876C243.271 98.7069 247.717 95.7604 256.801 94.5131C258.572 94.27 263.114 93.9716 264.349 93.9203C264.476 95.7067 264.635 97.0749 264.902 99.0195L268.269 123.545L260.926 124.554L259.337 112.766C258.804 113.194 257.941 113.371 257.941 113.371C256.716 116.29 250.758 124.589 247.586 127.331L241.308 122.102C243.793 120.814 246.978 117.301 249.328 113.312ZM251.686 104.856C251.929 106.626 252.951 108.467 254.982 108.188C256.782 107.941 257.82 107.533 258.5 106.67L257.753 100.799C257.753 100.799 256.332 100.788 254.968 100.975C252.646 101.294 251.347 102.389 251.686 104.856ZM310.66 102.111C311.931 111.37 316.686 110.894 318.05 110.707L318.398 110.659C321.301 110.261 322.605 108.13 323.675 105.588L330.769 108.576C329.393 113.201 325.853 115.846 319.525 116.715C316.507 117.129 312.905 117.387 309.832 115.68C305.656 113.266 303.881 108.956 303.088 103.18C301.733 93.3119 306.298 88.2198 315.441 86.9645C318.198 86.5859 321.089 86.7508 323.085 87.7188C324.986 88.6406 326.556 90.1698 327.402 91.5914L321.423 95.4286C320.981 94.3655 319.822 92.6025 315.759 93.1604C311.492 93.7462 310.09 97.9606 310.66 102.111ZM351.05 104.875C352.207 103.178 352.169 100.108 351.663 96.422L351.6 95.9576C350.916 91.4087 349.394 87.8621 345.679 88.3722C341.296 88.9739 340.548 93.2167 341.377 99.2538C342.038 104.072 344.341 107.275 347.853 106.793C349.445 106.544 350.148 106.063 351.05 104.875ZM348.633 112.689C339.635 113.924 335.25 108.907 334.134 100.781C332.656 90.0124 335.963 83.7327 344.438 82.569C350.156 81.7839 353.624 83.3483 356.182 86.9005C357.686 89.0301 358.659 92.2381 359.042 95.0245C360.178 103.296 358.443 111.342 348.691 112.681L348.633 112.689ZM363.587 106.377L366.316 100.62C367.979 101.752 371.206 103.497 376.082 102.828C381.335 102.107 382.501 100.261 382.306 98.8387C381.86 95.588 379.694 94.673 373.86 95.474C373.105 95.5776 372.355 95.7102 371.6 95.8138L370.791 89.9219L371.313 89.8501L371.458 89.8302L371.662 89.8023C374.535 89.4078 380.767 87.8424 380.48 85.7526C380.273 84.2434 378.106 84.186 374.768 84.6443C370.56 85.2221 366.953 87.1664 366.316 87.6974L363.337 82.3695C363.812 81.9495 366.877 79.7247 373.64 78.7961L374.017 78.7443C380.461 77.8596 387.398 78.4153 388.131 83.7558C388.521 86.6003 387.213 89.5597 382.84 90.6628C387.395 91.102 389.529 94.1506 390.047 97.9238C390.306 99.8104 389.464 102.942 387.472 105.02C385.531 107.031 382.903 107.924 377.621 108.649C371.148 109.538 365.859 107.632 363.587 106.377ZM409.899 80.1165L405.719 80.6904C406.632 87.337 406.147 94.1459 404.717 98.8075L412.405 97.7224L409.899 80.1165ZM425.237 111.279L418.554 112.137L417.38 103.161C415.145 103.468 402.793 105.252 402.793 105.252L402.857 105.717C403.283 108.822 404.511 113.888 404.511 113.888L397.957 115.261C397.308 112.689 396.328 107.707 395.878 104.427C395.743 103.441 395.375 100.977 395.222 100.082L396.586 99.8944C399.342 93.6903 399.349 89.4311 397.763 77.8793L397.484 75.8476C397.484 75.8476 405.997 74.5308 410.293 73.941C412.441 73.6461 416.508 73.1172 416.508 73.1172L419.748 96.7142L423.173 96.244L425.237 111.279ZM434.158 91.394C434.549 94.2384 436.671 94.8342 438.529 94.5792C441.721 94.1408 443.695 90.8535 443.994 89.1564L443.807 87.7922C442.595 86.7167 440.485 86.0008 438.628 86.2559C436.712 86.5189 433.72 88.2013 434.158 91.394ZM451.548 89.036C451.915 91.7062 452.673 93.1398 454.507 94.2187L451.473 99.0415C449.804 98.0878 448.773 97.904 447.267 95.9816C445.372 98.5484 443.128 99.862 437.845 100.587C432.882 101.269 427.339 98.156 426.614 92.8735C426.255 90.2613 426.779 87.6166 428.248 85.611C430.619 82.417 433.709 81.0169 437.831 80.451C439.688 80.1959 441.688 80.5424 442.894 81.1456C442.233 76.3275 438.742 75.8901 437.001 76.1292C433.663 76.5875 431.066 77.9199 429.229 80.4787L424.859 74.9278C429.471 71.0416 431.25 70.8566 436.404 70.0602C442.935 69.1635 449.249 72.2888 450.197 79.1966L451.548 89.036ZM463.67 66.4052L465.287 78.3963C467.508 77.5591 468.711 77.2756 471.353 76.9129L473.036 76.6818C471.944 68.7291 472.114 70.1843 471.469 65.4823L478.899 64.4621L482.964 94.0672L475.563 95.0834L473.873 82.777L472.276 82.9961C470.187 83.2831 467.889 83.776 466.124 84.4915C467.491 94.4469 467.063 90.8979 467.784 96.1514L460.296 97.1796L456.219 67.4874L463.67 66.4052ZM502.525 61.2182L510.54 60.1473C510.54 60.1473 511.919 70.8403 512.844 77.574C513.493 82.305 514.145 86.6217 514.77 89.8776L507.513 90.8739C506.861 87.4148 506.528 85.4201 506.12 82.6668C505.754 79.9965 505.612 72.5047 505.612 72.5047C499.959 86.4699 499.392 88.7953 498.869 91.8833L491.206 93.1425L487.125 63.4214L494.526 62.4052L495.558 69.9225C495.766 71.4318 496.338 77.3267 496.338 80.343C501.779 67.4125 502.471 65.1291 502.525 61.2182ZM526.222 75.2935C525.106 74.9146 521.863 73.0531 521.15 67.8577C520.166 60.6887 524.611 57.7422 533.696 56.4948C535.466 56.2517 540.009 55.9533 541.244 55.902C541.371 57.6885 541.529 59.0566 541.796 61.0012L545.163 85.527L537.82 86.5352L536.231 74.7473C535.699 75.1753 534.836 75.3529 534.836 75.3529C533.61 78.2714 527.652 86.571 524.48 89.3131L518.203 84.0833C520.688 82.7958 523.872 79.2831 526.222 75.2935ZM528.58 66.8375C528.823 68.608 529.845 70.4491 531.877 70.1701C533.676 69.923 534.714 69.5144 535.394 68.6521L534.647 62.7812C534.647 62.7812 533.226 62.7693 531.862 62.9566C529.54 63.2754 528.242 64.3705 528.58 66.8375Z" fill="black"/>
</svg>
