<svg width="637" height="215" viewBox="0 0 637 215" fill="none" xmlns="http://www.w3.org/2000/svg">
<rect y="73.0476" width="563" height="141" fill="black"/>
<rect x="8" y="86.2305" width="617.222" height="121.002" transform="rotate(-8.0309 8 86.2305)" fill="#FFF200"/>
<path d="M141.505 107.905L161.328 105.183C163.505 104.884 165.377 105.16 166.804 105.437L165.529 111.438C164.192 111.178 163.832 111.138 162.107 111.286L149.714 112.988L154.169 145.438L146.797 146.45L141.505 107.905ZM171.372 143.223L171.214 135.616C172.084 136.354 173.129 137.068 174.029 136.944C175.596 136.729 176.712 134.949 173.635 112.542L183.906 111.103L187.36 110.628C189.624 110.318 191.656 110.039 193.297 109.932L197.358 139.508L189.811 140.544C189.151 135.519 187.073 119.953 187.102 119.949L186.692 116.96L181.902 117.617C183.852 138.494 182.017 142.146 173.92 143.258C173.31 143.342 172.311 143.39 171.372 143.223ZM216.716 106.687L224.73 105.616C224.73 105.616 226.11 116.309 227.035 123.042C227.684 127.773 228.336 132.09 228.96 135.346L221.704 136.342C221.052 132.883 220.719 130.888 220.311 128.135C219.945 125.465 219.803 117.973 219.803 117.973C214.15 131.938 213.582 134.264 213.06 137.352L205.396 138.611L201.316 108.89L208.717 107.874L209.749 115.391C209.956 116.9 210.529 122.795 210.529 125.811C215.969 112.881 216.661 110.598 216.716 106.687ZM240.129 104.477L239.603 100.646L239.308 98.4983C239.129 97.1922 238.932 95.9771 238.617 95.1923L245.925 93.9228L246.005 94.5033L246.287 96.5641L247.268 103.704C247.268 103.704 248.203 102.334 249.626 102.138L249.858 102.107C255.053 101.393 257.379 104.12 258.862 114.917C260.807 129.081 257.292 131.485 253.287 132.035C251.516 132.279 251.133 131.858 251.133 131.858L251.771 136.502C252.146 139.23 252.734 141.574 253.208 143.52L246.046 144.77C245.493 142.687 244.974 139.978 244.611 137.337L243.989 132.809C243.989 132.809 243.564 133.37 241.532 133.649C236.801 134.299 233.814 132.787 231.869 118.623C230.418 108.058 232.559 104.482 237.842 103.756C238.974 103.601 240.129 104.477 240.129 104.477ZM238.948 118.272C240.099 126.66 240.666 127.558 241.769 127.407C242.814 127.263 243.089 126.25 243.089 126.25C242.507 122.012 241.631 115.42 241.049 111.182C241.049 111.182 240.279 109.661 239.64 109.749C238.421 109.916 237.891 110.581 238.948 118.272ZM251.914 116.433C250.929 109.264 250.263 108.29 248.986 108.466C248.115 108.585 248.164 110.235 248.164 110.235L250.221 125.211C250.221 125.211 250.883 126.155 251.841 126.024C252.798 125.892 253.117 125.198 251.914 116.433ZM285.476 127.409L281.526 97.9949L288.55 97.0305L292.558 126.436L285.476 127.409ZM271.488 116.2C270.733 116.303 270.217 116.64 270.217 116.64C271.104 123.527 270.728 121.006 271.002 123.216C271.002 123.216 271.831 123.22 272.411 123.14C274.646 122.834 275.005 121.572 274.726 119.54C274.431 117.392 273.722 115.893 271.488 116.2ZM260.832 100.836L262.051 100.669L267.943 99.8599L269.474 110.798C271.683 110.081 271.521 109.985 273.35 109.734C278.603 109.012 281.286 111.749 282.278 118.976C283.127 125.159 281.055 128.164 273.857 129.152C271.1 129.53 268.236 129.776 264.869 130.238C264.096 124.607 263.317 118.504 261.659 106.43C261.225 103.266 261.199 103.507 260.832 100.836ZM332.211 114.782L335.345 114.352L332.174 91.0408L339.256 90.0685L342.427 113.379L345.475 112.961L342.333 89.646L349.386 88.6776L353.394 118.084L348.866 118.705L325.97 121.878L322.016 92.4356L329.011 91.4752L332.211 114.782ZM373.394 99.6348C372.625 94.033 371.205 91.6554 368.651 92.0061C364.906 92.5201 363.896 94.6401 362.941 97.3736L364.374 107.379C365.708 108.911 367.514 110.437 369.691 110.139C373.029 109.68 374.458 107.384 373.394 99.6348ZM355.528 95.937L355.424 95.1823C355.094 92.7733 354.415 90.4121 353.865 88.5653L360.379 86.9021C360.736 87.5628 361.091 88.6378 361.362 89.7538C362.741 87.7311 365.067 86.5837 368.318 86.1374C376.3 85.0415 379.677 90.2555 380.745 98.0341C382.084 107.786 380.854 114.55 370.347 115.992C367.445 116.391 365.933 115.504 364.968 114.72C365.243 115.865 365.594 116.911 365.856 118.176L366.219 120.817C366.594 123.546 367.131 125.956 367.606 127.902L360.435 129.093C359.883 127.01 359.36 124.273 358.997 121.632L355.528 95.937ZM401.312 81.3411L409.327 80.2702C409.327 80.2702 410.706 90.9632 411.631 97.6969C412.28 102.428 412.932 106.745 413.557 110L406.3 110.997C405.648 107.538 405.315 105.543 404.907 102.79C404.541 100.119 404.399 92.6276 404.399 92.6276C398.746 106.593 398.179 108.918 397.656 112.006L389.993 113.265L385.912 83.5442L393.313 82.528L394.345 90.0454C394.553 91.5547 395.125 97.4495 395.125 100.466C400.566 87.5353 401.258 85.252 401.312 81.3411ZM424.725 79.1318L424.199 75.3006L423.904 73.1528C423.725 71.8466 423.529 70.6316 423.214 69.8468L430.521 68.5773L430.601 69.1578L430.884 71.2186L431.864 78.3586C431.864 78.3586 432.8 76.9882 434.222 76.7929L434.454 76.761C439.649 76.0477 441.976 78.7742 443.458 89.5713C445.403 103.735 441.889 106.14 437.883 106.69C436.113 106.933 435.73 106.512 435.73 106.512L436.367 111.156C436.742 113.885 437.33 116.229 437.804 118.175L430.642 119.424C430.09 117.341 429.57 114.633 429.207 111.992L428.586 107.464C428.586 107.464 428.16 108.025 426.128 108.304C421.397 108.953 418.41 107.441 416.465 93.2775C415.015 82.7126 417.155 79.1361 422.438 78.4109C423.57 78.2554 424.725 79.1318 424.725 79.1318ZM423.544 92.9266C424.695 101.315 425.262 102.213 426.365 102.061C427.41 101.918 427.685 100.904 427.685 100.904C427.103 96.6666 426.228 90.0741 425.646 85.8365C425.646 85.8365 424.875 84.3159 424.237 84.4035C423.018 84.5709 422.488 85.2351 423.544 92.9266ZM436.51 91.0872C435.525 83.9181 434.86 82.945 433.582 83.1203C432.712 83.2399 432.761 84.8892 432.761 84.8892L434.817 99.8658C434.817 99.8658 435.479 100.81 436.437 100.678C437.395 100.547 437.713 99.8526 436.51 91.0872ZM458.673 103.895L455.409 80.1235C449.662 80.9125 448.534 81.097 446.328 81.3999L445.491 75.3047C449.032 74.8185 462.206 72.9802 467.662 72.231C469.781 71.9401 471.306 71.849 471.841 71.8643L471.571 78.7324C471.571 78.7324 469.66 78.1668 467.193 78.5055L462.81 79.1073L466.074 102.878L458.673 103.895ZM486.775 90.3956C487.166 93.2401 489.288 93.8358 491.146 93.5808C494.339 93.1424 496.312 89.8551 496.611 88.158L496.424 86.7939C495.212 85.7183 493.103 85.0024 491.245 85.2575C489.329 85.5205 486.337 87.2029 486.775 90.3956ZM504.165 88.0376C504.532 90.7078 505.291 92.1414 507.124 93.2203L504.09 98.0431C502.421 97.0894 501.391 96.9056 499.885 94.9832C497.99 97.55 495.745 98.8636 490.463 99.5889C485.499 100.27 479.956 97.1576 479.231 91.8751C478.872 89.2629 479.396 86.6182 480.866 84.6126C483.236 81.4186 486.327 80.0185 490.448 79.4526C492.306 79.1975 494.305 79.544 495.511 80.1472C494.85 75.3291 491.36 74.8917 489.618 75.1308C486.28 75.5891 483.683 76.9215 481.846 79.4803L477.477 73.9294C482.088 70.0433 483.867 69.8582 489.021 69.0618C495.552 68.1651 501.866 71.2904 502.814 78.1982L504.165 88.0376Z" fill="black"/>
</svg>
