<svg width="145" height="283" viewBox="0 0 145 283" fill="none" xmlns="http://www.w3.org/2000/svg">
<g clip-path="url(#clip0_228_6666)">
<path d="M105.276 24.3849C102.973 18.0833 99.6354 13.0713 97.7329 10.4999C97.0736 8.54594 96.0897 6.93817 94.8109 5.79974C90.8978 2.32778 84.0533 1.09098 78.9759 2.64983C73.8985 4.20869 69.2104 9.82654 68.2025 12.8961L67.1993 15.9604L17.2241 215.094L18.6804 215.688C16.3085 225.532 10.1883 251.3 10.1599 254.61C10.128 258.71 8.44575 265.612 17.9257 273.237C27.4058 280.862 33.7166 282.567 43.0053 280.444C52.2939 278.321 56.2171 273.867 58.5269 268.115C60.8366 262.362 69.9439 226.079 69.9439 226.079C69.9439 226.079 64.6327 225.119 59.4264 226.688C54.2153 228.262 52.0963 233.809 50.5846 240.117C50.542 240.298 50.4946 240.483 50.4522 240.669C49.8182 237.844 48.2682 234.627 47.0753 233.017C45.2146 230.499 33.0456 226.836 29.845 227.166C26.6443 227.497 28.9521 222.953 30.7943 222.363L32.6365 221.773L24.879 218.204L70.0389 29.7777C72.217 31.6417 75.4264 33.9227 78.409 34.2426C83.5649 34.7949 94.3832 35.1234 97.1556 26.0989L135.924 221.515L143.091 241.236L142.209 218.914C142.209 218.914 108.668 33.6632 105.276 24.3849ZM28.9386 250.549C29.2644 248.974 46.2346 248.497 46.2346 248.497C46.2346 248.497 47.2353 248.139 48.3217 247.305C46.4963 251.467 43.5986 255.059 38.5122 255.633C30.5433 256.535 28.6126 252.119 28.9384 250.544L28.9386 250.549ZM83.8963 24.0511C79.4259 24.2278 75.6566 20.7452 75.4799 16.2748C75.3032 11.8045 78.7858 8.03515 83.2562 7.85842C87.7265 7.6817 91.4958 11.1643 91.6726 15.6347C91.8493 20.1051 88.3667 23.8744 83.8963 24.0511Z" fill="white"/>
</g>
<defs>
<clipPath id="clip0_228_6666">
<rect width="133.664" height="277.25" fill="white" transform="translate(0 5.27979) rotate(-2.26386)"/>
</clipPath>
</defs>
</svg>
