<svg width="293" height="171" viewBox="0 0 293 171" fill="none" xmlns="http://www.w3.org/2000/svg">
<g clip-path="url(#clip0_228_6674)">
<path d="M37.2517 32.1182C30.644 33.2825 25.1248 35.6902 22.2599 37.1128C20.2207 37.4197 18.4654 38.1067 17.1206 39.1663C13.0168 42.4107 10.6002 48.9328 11.2455 54.2047C11.8908 59.4766 16.6006 65.0763 19.4461 66.6064L22.2873 68.1309L209.587 152.216L210.427 150.887C219.704 154.946 244.001 165.486 247.255 166.093C251.286 166.843 257.787 169.708 266.954 161.711C276.122 153.713 278.906 147.798 278.443 138.282C277.98 128.765 274.282 124.122 269.023 120.84C263.764 117.558 229.637 102.236 229.637 102.236C229.637 102.236 227.763 107.297 228.395 112.698C229.032 118.104 234.121 121.162 240.067 123.755C240.238 123.829 240.412 123.908 240.588 123.982C237.695 124.111 234.256 125.074 232.463 125.966C229.657 127.357 223.919 138.696 223.684 141.905C223.449 145.115 219.379 142.046 219.121 140.129L218.863 138.212L213.99 145.225L36.3884 67.7556C38.6051 65.9377 41.413 63.1775 42.2504 60.297C43.6974 55.3177 45.9159 44.7242 37.5166 40.4137L236.702 36.4768L257.373 32.8749L235.242 29.8334C235.242 29.8334 46.9806 30.4045 37.2517 32.1182ZM246.546 146.894C245.053 146.297 247.556 129.506 247.556 129.506C247.556 129.506 247.379 128.458 246.748 127.242C250.526 129.768 253.554 133.25 253.229 138.359C252.721 146.363 248.035 147.49 246.541 146.893L246.546 146.894ZM33.1778 53.1093C32.5687 57.5415 28.4796 60.6425 24.0474 60.0334C19.6152 59.4243 16.5142 55.3352 17.1233 50.903C17.7324 46.4708 21.8215 43.3698 26.2537 43.9789C30.6859 44.588 33.7869 48.6771 33.1778 53.1093Z" fill="#FFF200"/>
</g>
<defs>
<clipPath id="clip0_228_6674">
<rect width="133.664" height="277.25" fill="white" transform="translate(0 132.42) rotate(-82.1751)"/>
</clipPath>
</defs>
</svg>
