<svg width="1200" height="197" viewBox="0 0 1200 197" fill="none" xmlns="http://www.w3.org/2000/svg">
<g clip-path="url(#clip0_172_28)">
<path d="M164.361 99.9509L113.636 93.8576C111.955 93.6683 110.97 93.5513 110.897 93.5457C110.864 93.5457 108.097 93.1002 105.18 91.1619C103.672 89.8307 96.88 83.9046 94.837 83.0357C94.1411 82.6235 93.4063 82.2726 92.7216 81.9997L93.4397 81.983V79.2427L93.4286 79.3263H93.4174L91.5024 77.7779C91.547 77.7779 91.5971 77.7612 91.636 77.7612L91.6527 77.75L91.6639 77.7333C91.6639 77.7333 91.9589 77.5217 91.9255 77.2432C91.8977 77.0037 91.6416 76.7976 91.1684 76.6249C90.5561 76.4022 67.192 73.6006 64.5032 73.4001C59.6156 73.0325 51.616 73.3667 50.703 74.7034C50.6529 74.7758 50.6251 74.8538 50.614 74.9317L47.9419 79.5268C47.9419 79.5268 47.9307 79.5379 47.9252 79.5546C47.7136 79.6437 47.5077 79.7384 47.3128 79.8387C44.3179 81.4149 36.8694 90.4267 36.207 91.2399C36.1958 91.2399 36.1791 91.2399 36.168 91.2399C36.1457 91.2454 36.1179 91.2622 36.0901 91.2789C35.8785 91.29 35.3664 91.3179 34.6204 91.3568C34.6204 91.3568 34.6093 91.3568 34.6037 91.3568C34.5926 91.3568 34.5814 91.3568 34.5759 91.3624C30.6679 91.5908 20.5641 92.248 13.8282 93.3508C13.8171 93.3229 13.7837 93.3007 13.7503 93.2951C13.7002 93.2951 13.6557 93.3285 13.6557 93.3786C11.017 93.8187 8.86818 94.3311 7.89398 94.9103L7.81605 94.927V96.5311H7.3039V94.8658C7.21483 94.8825 7.15359 94.9047 7.05339 94.927L7.19256 70.7545C7.25936 70.5094 7.19813 70.4815 7.17586 70.4704C7.10906 70.4426 7.02556 70.4704 6.64144 71.1221C6.06249 72.1023 5.47797 89.9755 5.31653 95.3726C5.16066 95.4227 5.02706 95.4673 4.93799 95.5063C4.42027 95.7291 0.601415 98.1408 0.02803 99.0263C0.0168963 99.0375 -0.00537109 99.0653 -0.00537109 99.0932C-0.00537109 99.121 0.0168963 99.1489 0.0224631 99.1544C0.601415 100.046 4.42027 102.457 4.93799 102.68C5.02706 102.719 5.16066 102.764 5.31653 102.814C5.48354 108.211 6.06806 126.084 6.64701 127.064C6.97545 127.621 7.08679 127.722 7.15359 127.722C7.16473 127.722 7.17586 127.722 7.18143 127.716C7.20369 127.705 7.2705 127.677 7.20369 127.432L7.07566 103.259C7.17586 103.282 7.20926 103.304 7.29276 103.321V103.332V101.371H7.80491V103.621L7.86058 103.644C8.20016 104.368 9.96485 105.977 11.4957 107.403C11.4957 107.403 14.4907 112.778 18.2149 115.44C21.9391 118.103 35.3719 121.428 44.8133 122.224C54.2547 123.021 74.6071 121.177 74.6071 121.177C74.6071 121.177 98.422 126.452 108.966 127.722C119.509 128.991 129.658 125.471 129.658 125.471L100.699 116.693C107.596 115.981 118.251 115.229 129.123 114.516C129.14 114.538 129.162 114.549 129.19 114.549C129.223 114.549 129.251 114.532 129.268 114.505C133.103 114.254 136.961 114.009 140.691 113.769C144.599 113.519 148.379 113.279 151.914 113.045C151.931 113.073 151.958 113.095 151.992 113.095C152.031 113.095 152.064 113.068 152.075 113.034C162.296 112.36 173.174 103.577 175.155 101.906C175.139 101.895 175.116 101.889 175.1 101.872L186.818 73.3555L188.989 69.0111H189V69L164.361 99.9509Z" fill="#F03971"/>
<path d="M175.512 101.711L175.462 101.689L175.489 101.644C175.489 101.644 175.378 101.744 175.167 101.917C175.406 102.04 175.523 101.722 175.506 101.711H175.512Z" fill="#F03971"/>
</g>
<path d="M291 167.649V23.3795C346.989 12.1008 417.093 -4.81669 526.719 1.29254C615.975 6.26658 782.669 65.2037 903.587 63.3239C1000.32 61.8202 1141.5 21.3431 1200 1.29254V130.995C1148.09 149.322 1020.93 187.763 927.582 194.906C810.899 203.834 731.856 182.217 654.694 167.649C577.533 153.081 488.138 136.634 407.683 147.442C343.319 156.089 303.076 164.517 291 167.649Z" fill="#F03971"/>
<path d="M294 164L168 103.746L294 26" stroke="#F03971" stroke-width="3"/>
<path d="M320.324 87.373C319.788 79.0935 319.151 71.4311 318.337 65.3773C322.107 64.8514 328.716 63.9067 334.002 63.5645L334.844 63.51C345.229 62.8376 352.942 66.6128 353.608 76.9037C354.044 83.6396 351.751 85.9489 348.367 88.0939C356.128 89.7052 363.179 94.1339 363.863 104.705C364.778 118.832 356.797 123.248 349.045 124.689C347.236 125.041 345.328 125.306 343.503 125.424C340.042 125.648 337.313 125.59 333.337 125.847L331.56 125.962L322.485 126.55C321.885 117.288 321.609 107.206 320.324 87.373ZM341.546 77.7787C341.219 72.7268 337.187 72.8469 336.111 72.9166L335.924 72.9287L335.175 72.9771C333.351 73.0952 332.562 73.2403 331.168 73.4715C331.414 75.0996 331.529 76.8771 331.653 78.795C331.817 81.3209 331.946 84.037 332.121 86.7501L333.899 86.635C337.314 86.4139 342.048 85.5437 341.57 78.1529L341.546 77.7787ZM340.246 95.4308C337.954 95.5792 338.1 95.6637 334.686 95.8848L332.627 96.018C333.267 107.344 333.577 112.867 333.767 116.518C336.068 116.51 337.901 116.533 339.679 116.418C341.082 116.327 342.48 116.142 344.105 115.849C345.589 115.565 352.31 113.439 351.759 104.926C351.238 96.8799 345.859 95.0674 340.246 95.4308Z" fill="white"/>
<path d="M378.086 33.9838C380.693 33.6271 383.968 33.4151 387.616 33.1789L392.2 32.8821L397.346 32.5489C404.316 32.0976 410.686 31.8261 414.148 31.6019L414.896 31.5535L415.508 41.0025L390.763 42.6046L391.578 55.1876L407.388 54.164L408.003 63.6597L392.193 64.6834L392.287 66.1335C392.913 75.8163 393.198 81.6695 393.438 85.3649L412.891 84.0114C415.51 83.8418 418.656 82.3699 418.656 82.3699L422.627 91.4604C420.421 92.2139 418.567 93.3204 413.983 93.6172L382.081 95.6828L378.086 33.9838Z" fill="white"/>
<path d="M448.185 113.997L449.551 103.134C450.575 103.94 451.506 104.605 453.897 104.627C457.272 104.658 457.978 99.274 459.256 52.315L478.427 52.4455L484.005 52.497C487.661 52.5308 490.942 52.5612 493.566 52.773L492.996 114.411L480.809 114.298C480.946 104.549 481.14 98.7381 481.272 84.4888L481.35 76.0516L481.477 62.3178L471.118 62.222C469.51 109.412 466.789 114.637 453.524 114.515C451.134 114.493 449.12 114.286 448.185 113.997Z" fill="white"/>
<path d="M552.977 36.6517L564.48 37.4643C564.315 39.9432 564.144 43.2203 563.966 45.8863C563.25 56.6437 562.272 68.5112 561.569 79.0816L561.202 84.6006C560.844 89.9794 560.529 94.7033 560.498 98.6944L549.227 97.9442C549.338 89.9183 549.739 83.8847 550.318 75.1852C550.655 70.1339 552.843 60.5549 552.843 60.5549C546.598 71.7901 537.776 89.2897 533.745 96.9138L520.693 96.0921L524.905 34.9243L536.373 35.5466C535.9 42.6559 534.555 62.1565 534.555 62.1565C533.948 71.277 531.414 81.8195 531.414 81.8195C537.902 68.3455 547.295 53.5617 552.977 36.6517Z" fill="white"/>
<path d="M613.418 92.2092C618.055 98.6324 628.021 120.764 629.321 127.537L617.441 131.554C616.165 126.068 609.446 107.563 604.424 100.601C604.424 100.601 601.359 103.038 599.419 106.138L596.045 126.485L584.114 124.506L594.352 62.7713L606.283 64.75L602.725 86.2069C608.6 80.2915 626.06 67.8397 628.055 66.4125L635.761 76.1007C626.309 80.9478 616.76 89.2473 613.418 92.2092Z" fill="white"/>
<path d="M680.765 60.4833C688.21 61.718 701.107 67.3255 696.506 96.4972L696.422 97.0059C695.141 104.729 692.504 111.751 689.555 115.776C684.96 121.999 677.364 124.825 669.734 123.56C664.092 122.624 657.516 119.585 654.553 114.247C651.25 108.378 650.966 100.919 652.377 92.4097C655.077 76.1321 659.071 69.2395 663.052 65.2907C666.809 61.5425 673.528 59.4256 680.765 60.4833ZM664.628 108.791C666.234 112.573 667.868 113.605 671.29 114.172C674.944 114.778 677.685 112.287 679.709 108.964C681.41 106.443 683.578 99.3897 684.383 94.8192L684.513 94.0331C685.334 89.0851 686.061 82.1258 685.132 77.4103C684.095 72.2018 681.936 70.3232 679.161 69.863C676.156 69.3645 674.207 70.2292 671.812 73.2057C669.002 76.6835 666.41 82.5731 664.547 93.8102C663.803 98.2958 663.23 105.471 664.628 108.791Z" fill="white"/>
<path d="M753.34 100.922L750.257 110.333C745.781 108.384 740.433 107.163 734.287 105.869C729.425 104.845 728.91 104.785 728.91 104.785C728.691 106.511 728.273 108.722 727.819 110.878C727.172 113.951 727.1 113.84 726.385 117.235C728.413 117.614 730.798 118.116 732.725 118.521C746.302 121.38 752.212 129.714 749.537 142.419C747.364 152.74 739.129 157.952 731.276 157.257C729.439 157.11 727.529 156.851 725.74 156.475C721.842 155.654 717.762 154.555 712.808 153.513L706.569 152.199C708.443 143.301 710.913 133.617 714.93 114.536C716.6 106.6 718.027 99.1403 718.841 93.2279C722.614 93.7349 724.939 93.8412 730.122 94.9324C742.966 97.6363 749.882 99.1404 753.34 100.922ZM730.376 128.086C728.679 127.729 725.972 127.159 724.256 126.894C721.875 137.746 721.047 141.451 720.268 144.928C722.11 145.507 722.814 145.799 726.255 146.524C733.594 148.069 736.522 144.853 737.72 139.165C738.763 134.211 737.486 129.583 730.376 128.086Z" fill="white"/>
<path d="M812.341 101.434C813.262 91.9164 807.821 91.2017 803.995 90.8317L803.575 90.7911C800.729 90.5158 798.658 90.5039 796.554 90.3474L796.233 93.6601C795.389 102.385 794.371 111.941 794.371 111.941C796.046 112.15 797.675 112.354 799.214 112.503C804.627 113.027 811.289 112.306 812.341 101.434ZM791.442 142.221L779.778 141.093L785.735 79.5055C791.24 80.038 793.049 79.8362 799.255 80.4364C809.753 81.4518 817.672 82.8301 822.402 89.9277C824.623 93.2508 825.048 97.6245 824.633 101.917C823.171 117.034 816.659 123.986 800.609 122.434C798.369 122.217 795.947 121.936 793.437 121.599L791.442 142.221Z" fill="white"/>
<path d="M867.959 108.894L879.49 108.75C879.531 111.234 879.632 114.515 879.676 117.186C879.853 127.966 879.862 139.874 880.037 150.466L880.128 155.996C880.217 161.386 880.295 166.12 880.595 170.1L869.299 170.286C868.745 162.279 868.646 156.232 868.502 147.515C868.419 142.453 869.805 132.726 869.805 132.726C864.513 144.44 857.171 162.61 853.786 170.542L840.71 170.804L839.84 109.498L851.321 109.168C851.438 116.292 851.714 135.837 851.714 135.837C851.864 144.976 850.212 155.692 850.212 155.692C855.561 141.727 863.697 126.216 867.959 108.894Z" fill="white"/>
<path d="M909.973 148.539L909.11 96.1396C899.83 96.2926 897.862 96.3719 894.3 96.4306L894.14 86.7288C899.858 86.6345 921.136 86.2369 929.947 86.0917C933.368 86.0353 936.656 86.4031 937.786 86.7126L935.131 96.2733C935.131 96.2733 932.685 95.751 929.872 95.7974L921.295 95.9388L922.159 148.338L909.973 148.539Z" fill="white"/>
<path d="M980.986 137.212C979.122 130.659 973.607 121.919 972.859 114.739C973.344 122.604 969.938 132.591 968.798 139.249C971.538 138.369 977.136 137.823 980.986 137.212ZM966.379 99.97L976.829 98.9505L997.331 147.863C998.82 151.533 1000.42 155.333 1000.77 159.019L987.898 160.275C987.63 157.522 986.913 155.002 985.972 152.598L983.96 147.425C976.882 148.256 972.899 148.457 967.437 150.402L966.447 154.738C965.791 157.675 965.262 160.458 965.318 162.478L953.188 163.661C953.097 160.797 953.844 156.862 954.692 153.012L966.379 99.97Z" fill="white"/>
<path d="M1016.1 75.2359L1019.17 100.22C1023.33 98.7091 1026.07 97.9888 1031.66 97.2923L1035.7 96.7873C1034.08 83.7633 1033.69 81.0713 1032.74 73.3964L1044.64 71.9106L1052.29 133.17L1040.43 134.65L1036.95 106.788L1035.46 106.974C1028.67 107.821 1025.76 108.326 1020.42 110.22C1022.45 126.5 1022.75 128.117 1023.82 136.722L1011.82 138.219L1004.16 76.8206L1016.1 75.2359Z" fill="white"/>
<path d="M1100.48 68.3675L1111.95 67.2356C1112.21 69.707 1112.59 72.9663 1112.86 75.6242C1113.96 86.3489 1114.99 98.212 1116.08 108.75L1116.64 114.253C1117.19 119.615 1117.68 124.325 1118.32 128.264L1107.08 129.419C1105.84 121.488 1105.22 115.473 1104.33 106.8C1103.81 101.764 1104.36 91.9535 1104.36 91.9535C1100.09 104.078 1094.34 122.811 1091.65 131.004L1078.64 132.388L1072.51 71.3819L1083.92 70.0683C1084.65 77.156 1086.6 96.6053 1086.6 96.6053C1087.54 105.698 1086.81 116.516 1086.81 116.516C1090.94 102.144 1097.72 85.9919 1100.48 68.3675Z" fill="white"/>
<path d="M1149.34 77.2474C1141.81 74.1689 1139.35 68.2991 1139.38 59.4867C1139.45 43.9712 1151.36 41.5368 1166.97 41.6023C1169.83 41.6143 1175.22 42.1526 1177.19 42.3484C1176.99 45.2069 1176.93 47.4098 1176.92 50.5504L1176.7 102.722L1164.65 102.671L1164.81 77.6873C1164.81 77.6873 1163.3 78.1029 1162.6 78.1468C1159.96 82.542 1151.66 94.4604 1147.09 99.4569C1144.6 101.931 1141.5 103.324 1139.29 103.877L1133.06 92.3667C1135.31 92.2355 1137.94 90.9809 1139.49 89.4406C1143.02 86.221 1145.66 82.9508 1149.34 77.2474ZM1151.61 60.1943C1151.59 64.9286 1153.74 68.3595 1157.72 68.3762C1160.72 68.3888 1162.17 68.2074 1164.85 67.2812L1165.01 51.4848C1163.65 51.4322 1163.28 51.4307 1162.06 51.4255C1154.04 51.3919 1151.64 53.8662 1151.61 60.1943Z" fill="white"/>
<defs>
<clipPath id="clip0_172_28">
<rect width="189" height="59" fill="white" transform="translate(0 69)"/>
</clipPath>
</defs>
</svg>
