<svg width="369" height="388" viewBox="0 0 369 388" fill="none" xmlns="http://www.w3.org/2000/svg">
<mask id="mask0_228_6673" style="mask-type:alpha" maskUnits="userSpaceOnUse" x="34" y="35" width="302" height="310">
<path d="M328.675 131.628L285.652 182.825L335.474 227.424L270.588 243.545L284.702 308.924L222.741 283.808L195.743 345L160.375 288.237L102.58 321.871L107.312 255.15L40.8053 248.372L83.8287 197.175L34 152.576L98.886 136.455L84.7725 71.0755L146.734 96.1924L173.731 35L209.105 91.7629L266.894 58.1289L262.163 124.85L328.675 131.628Z" fill="#FFF200"/>
</mask>
<g mask="url(#mask0_228_6673)">
<path d="M-0.979492 10.3525L317.561 -14.0339L346.069 358.345L27.5286 382.731L-0.979492 10.3525Z" fill="white"/>
<rect x="37.7158" y="180.731" width="293.825" height="43.0536" transform="rotate(-4.37784 37.7158 180.731)" fill="#C8102E"/>
<rect x="193.815" y="12.7783" width="349.549" height="42.8648" transform="rotate(85.6222 193.815 12.7783)" fill="#C8102E"/>
<path d="M241.429 152.55L217.829 154.357L217.611 151.508L324.36 75.7015L325.622 92.181L241.429 152.55Z" fill="#C8102E"/>
<path d="M217.058 142.955L212.564 84.2601L250.783 -12.9592L310.729 76.745L217.058 142.955Z" fill="#012169"/>
<path d="M329.726 145.79L282.017 149.442L327.491 116.595L329.726 145.79Z" fill="#012169"/>
<path d="M130.25 229.31L153.85 227.503L154.068 230.351L47.3182 306.158L46.0566 289.678L130.25 229.31Z" fill="#C8102E"/>
<path d="M154.621 238.903L159.114 297.599L112.879 355.889L60.9494 305.114L154.621 238.903Z" fill="#012169"/>
<path d="M41.9524 236.069L89.6614 232.417L44.1875 265.264L29.3125 272.625L41.9524 236.069Z" fill="#012169"/>
<path d="M125.055 161.459L148.655 159.652L148.437 156.804L31.392 98.13L32.6536 114.609L125.055 161.459Z" fill="#C8102E"/>
<path d="M147.682 148.267L143.188 89.5716L139.988 47.7764L66.9975 59.0647L45.0233 97.0867L147.682 148.267Z" fill="#012169"/>
<path d="M36.758 168.219L84.467 164.567L34.5229 139.024L19.2842 169.557L36.758 168.219Z" fill="#012169"/>
<path d="M246.624 220.401L223.023 222.207L223.241 225.056L340.287 283.729L339.025 267.25L246.624 220.401Z" fill="#C8102E"/>
<path d="M223.997 233.593L228.491 292.288L303.932 330.694L326.656 284.773L223.997 233.593Z" fill="#012169"/>
<path d="M334.921 213.64L287.212 217.293L337.156 242.835L334.921 213.64Z" fill="#012169"/>
</g>
<path d="M334.8 136.775L344.525 125.202L329.486 123.669L270.691 117.678L274.874 58.6947L275.944 43.6053L262.87 51.2147L211.789 80.9443L180.521 30.7689L172.519 17.9287L166.412 31.7708L142.547 85.8629L87.7778 63.6615L73.7612 57.9797L76.9526 72.7636L89.4294 130.561L32.071 144.812L17.4022 148.457L28.6646 158.537L72.7154 197.965L34.6807 243.225L24.9553 254.798L39.9942 256.331L98.7831 262.322L94.6005 321.305L93.5305 336.394L106.604 328.785L157.69 299.056L188.953 349.231L196.955 362.073L203.062 348.229L226.927 294.137L281.697 316.338L295.713 322.02L292.522 307.236L280.045 249.439L337.403 235.188L352.071 231.543L340.81 221.463L296.765 182.035L334.8 136.775Z" stroke="white" stroke-width="16"/>
</svg>
