<svg width="817" height="877" viewBox="0 0 817 877" fill="none" xmlns="http://www.w3.org/2000/svg">
<path d="M793.254 300.662L807.823 283.308L785.281 281.009L631.166 265.289L642.13 110.521L643.734 87.8768L624.119 99.3042L490.231 177.306L408.271 45.6578L396.265 26.3734L387.103 47.1602L324.548 189.087L180.991 130.837L159.965 122.305L164.749 144.486L197.455 296.145L47.1038 333.537L25.121 339.004L41.9925 354.12L157.466 457.576L57.7619 576.338L43.1925 593.692L65.7347 595.991L219.834 611.711L208.87 766.479L207.266 789.122L226.88 777.696L360.783 699.694L442.729 831.341L454.734 850.629L463.897 829.84L526.452 687.913L670.009 746.163L691.035 754.695L686.252 732.514L653.545 580.855L803.896 543.463L825.877 537.996L809.008 522.881L693.549 419.425L793.254 300.662Z" fill="#FFF200" stroke="#F03971" stroke-width="24"/>
<path d="M394.459 229.176C387.275 228.912 380.461 231.547 373.725 233.665C371.763 234.091 369.627 233.895 367.824 234.908C367.844 236.285 365.469 235.424 365.358 236.895C363.743 237.949 361.723 237.993 359.887 238.398C354.647 239.115 349.315 239.146 344.146 240.363C342.123 240.778 340.12 241.297 338.165 241.962C336.502 241.646 338.425 244.58 336.385 243.611C334.044 242.412 335.069 245.564 333.868 246.49C332.641 247.131 330.057 247.938 331.287 249.808C331.908 250.082 333.813 250.704 332.419 251.376C328.965 251.691 325.596 252.693 322.186 253.331C323.763 253.848 321.436 255.619 320.876 254.273C318.902 254.512 319.782 257.363 321.481 257.295C323.22 257.392 323.89 259.804 322.334 260.706C320.444 261.912 318.863 263.5 317.369 265.162C316.139 266.838 313.85 266.158 312.096 266.643C309.557 266.976 307.027 267.407 304.545 268.046C302.24 267.181 300.805 270.797 302.779 272.062C304.803 273.587 307.454 272.654 309.767 272.656C311.822 271.871 312.281 274.639 310.133 274.621C308.358 274.127 306.381 273.954 304.554 274.415C302.97 275.597 304.335 277.564 305.232 278.694C306.721 279.653 307.603 282.018 305.127 282.32C302.861 283.052 300.623 283.918 298.307 284.467C296.782 285.142 295.624 281.921 294.406 283.497C294.282 285.534 292.111 286.266 290.38 285.889C288.108 285.972 285.863 285.38 283.607 285.396C281.632 285.65 280.218 288.933 282.623 289.662C284.761 290.32 286.957 290.963 289.213 291.023C290.58 292.773 287.748 293.245 286.885 293.758C286.325 295.44 287.946 296.884 289.288 297.568C288.573 298.306 286.037 297.739 284.785 298.618C282.619 298.812 283.35 301.547 285.042 301.855C286.136 302.64 288.754 302.584 289.126 303.071C287.219 304.024 285.285 302.572 283.373 302.51C281.325 302.667 281.947 305.465 283.249 306.262C284.95 307.113 284.735 309.045 285.506 310.461C287.28 311.702 289.676 310.82 291.614 310.435C292.938 309.658 294.762 311.497 292.689 311.975C290.864 312.406 289.24 313.287 287.562 314.058C285.853 314.356 284.776 315.778 283.202 316.367C281.793 317.977 284.416 319.114 285.803 318.924C288.185 319.284 284.352 322.138 286.889 322.494C289.782 323.257 286.867 326.391 286.777 328.237C284.323 336.969 283.611 346.098 283.595 355.136C283.797 365.369 285.547 375.728 289.891 385.055C290.598 386.503 291.62 387.81 291.643 389.487C292.34 393.642 293.029 397.818 294.298 401.845C295.335 401.985 297.551 403.608 295.331 403.686C293.625 403.314 291.791 402.178 290.098 403.302C288.314 404.617 286.924 406.481 285.812 408.386C284.639 410.688 284.77 413.379 285.486 415.794C286.749 421.366 288.07 426.925 289.309 432.501C290.07 435.217 290.889 438.032 292.486 440.37C293.91 441.376 295.346 439.931 296.632 439.409C298.489 439.165 299.512 437.163 298.151 435.673C297.043 434.285 297.053 432.491 296.536 430.868C295.476 426.482 294.202 422.153 292.836 417.855C292.289 415.787 291.56 413.711 291.385 411.583C292.24 409.511 294.82 410.7 296.474 409.919C298.518 409.131 299.668 410.866 301.022 411.95C302.897 411.698 304.663 412.391 306.212 413.526C308.201 414.493 310.728 411.951 318.335 431.043C316.026 432.12 315.786 417.344 296.43 417.157C295.354 418.713 296.068 420.029 296.44 421.632C297.024 423.478 309.161 422.939 311.508 429.475C309.383 429.053 305.968 427.259 304.557 429.608C303.913 431.535 304.342 433.61 304.325 435.602C304.628 440.111 305.902 444.939 309.385 448.05C310.023 448.696 311.874 449.656 311.027 448.091C311.372 446.405 314.181 446.908 314.303 448.466C314.042 449.679 312.684 451.108 314.375 452.112C315.823 452.75 317.318 453.41 318.872 453.776C319.985 452.864 322.043 453.096 322.147 454.921C324.552 459.819 327.567 464.413 329.593 469.499C330.458 471.629 331.302 473.775 332.41 475.794C330.578 474.746 329.229 477.218 327.433 476.918C325.711 476.56 323.979 476.414 322.232 476.284C319.985 476.001 317.57 474.818 316.884 472.489C315.864 469.459 315.107 466.314 314.701 463.142C314.56 461.005 315.261 458.928 315.297 456.797C314.773 454.927 311.151 456.526 311.514 454.807C313.291 453.643 311.716 452.155 310.966 450.904C308.133 446.7 304.058 443.537 301.046 439.488C299.726 437.967 297.905 439.501 296.706 440.356C295.183 440.684 293.953 442.393 295.14 443.781C297.421 446.18 299.797 448.481 302.258 450.695C303.979 452.062 305.086 453.94 306.634 455.447C308.504 456.051 308.405 457.859 307.939 459.443C307.768 465.061 309.123 470.63 311.085 475.859C312.123 478.332 314.227 480.189 316.666 481.229C319.922 482.797 323.588 483.026 327.117 483.446C329.288 483.297 331.434 483.028 333.471 482.188C335.614 481.165 336.006 483.867 336.162 485.349C338.946 494.715 343.566 503.388 348.152 511.968C349.878 514.901 351.939 517.618 354.05 520.281C353.205 522.115 350.705 520.468 349.422 521.862C345.577 523.67 342.087 526.127 338.666 528.625C333.126 530.914 327.775 533.82 323.243 537.781C322.954 535.977 320.695 536.035 319.367 536.55C309.688 538.698 300.306 541.954 290.749 544.55C289.807 544.909 287.266 544.98 287.323 545.297C288.783 545.673 290.083 549.304 288.25 549.267C286.924 548.758 286.465 546.257 284.762 546.891C283.063 548.26 284.121 551.292 286.118 551.79C292.368 552.666 298.563 550.731 304.485 548.928C308.441 547.754 312.382 546.527 316.292 545.206C316.806 546.878 314.873 547.919 314.575 549.456C311.907 555.602 311.601 562.526 312.77 569.06C313.673 574.67 315.407 580.131 316.783 585.608C316.037 587.454 313.715 585.52 312.658 586.863C310.396 590.142 307.502 592.926 304.44 595.457C300.974 598.471 297.246 601.269 294.362 604.876C292.962 607.09 295.177 609.499 297.308 609.874C297.872 610.9 299.21 611.726 299.394 609.967C300.452 608.533 302.915 609.636 303.74 607.855C304.208 606.138 305.666 605.332 307.048 604.444C311.331 600.987 315.538 597.206 318.219 592.322C318.855 589.988 321.482 592.617 320.985 594.175C320.606 596.052 320.728 597.977 321.809 599.612C325.756 606.891 331.346 613.127 337.114 619.006C342.804 624.647 348.908 630.013 355.926 633.946C358.016 635.057 360.215 635.973 362.5 636.6C365.06 636.432 366.646 638.822 368.264 640.425C369.352 642.143 371.138 641.722 372.542 640.789C373.94 641.228 374.797 644.016 376.678 642.411C378.035 641.704 380.326 641.572 380.606 639.737C380.388 637.822 379.572 636.014 378.995 634.181C372.846 616.955 361.176 602.416 354.515 585.426C354.188 582.128 354.578 578.811 354.57 575.506C354.761 569.618 354.976 563.713 354.522 557.83C355.916 556.196 357.368 554.539 357.51 552.288C359.736 544.973 362.336 537.643 362.733 529.937C364.5 529.457 365.278 531.665 366.832 531.975C370.674 533.542 373.308 537.007 377.03 538.794C381.266 541.366 385.467 543.991 389.783 546.428C394.01 548.97 398.289 551.53 403.032 552.995C407.117 554.572 410.93 556.8 415.102 558.169C417.398 559.189 419.802 559.954 422.283 560.349C424.709 560.905 427.165 561.639 429.67 561.585C431.929 561.084 434.157 560.433 436.482 560.401C438.856 559.877 441.035 558.688 443.458 558.341C445.519 557.89 447.243 556.611 449.281 556.091C451.513 555.192 453.707 554.22 455.984 553.428C457.618 552.576 459.628 551.683 460.337 549.851C461.722 547.933 463.958 546.834 465.25 544.816C467.067 542.688 469.432 541.047 470.819 538.564C472.015 536.594 473.336 534.698 474.82 532.941C476.472 530.374 477.935 527.681 479.758 525.229C480.984 523.867 481.058 520.583 483.135 520.586C484.434 521.663 484.761 523.534 485.811 524.853C487.103 527.131 487.856 529.657 488.542 532.162C489.991 535.696 490.976 539.436 492.888 542.767C494.312 542.097 496.208 542.34 496.872 543.927C498.012 545.639 495.984 546.918 494.537 545.789C492.311 544.816 490.71 546.912 490.398 548.905C488.272 554.955 486 560.96 483.76 566.972C480.458 575.817 476.81 584.529 472.839 593.095C469.376 600.807 465.686 608.416 461.88 615.964C461.647 617.332 459.474 619.626 461.349 620.452C463.461 621.535 460.691 622.941 461.542 624.329C462.556 625.643 464.117 626.45 465.44 627.424C467.251 628.045 469.04 626.155 469.873 624.727C470.176 622.968 466.668 622.412 468.242 620.383C469.523 618.427 471.055 616.647 472.224 614.605C480.886 601.361 487.571 586.82 491.849 571.579C494.069 564.299 496.207 556.989 497.986 549.587C497.745 548.589 498.661 547.222 498.898 548.89C500.354 552.45 501.58 556.102 502.65 559.796C500.034 561.993 501.523 563.379 501.992 567.02C502.535 569.441 501.067 572.974 503.513 572.446C505.153 572.653 505.14 574.657 505.361 575.915C506.049 580.572 505.595 585.324 504.632 589.908C503.332 590.698 501.354 589.446 500.465 591.269C494.668 596.582 490.752 603.531 487.432 610.568C486.69 612.631 485.669 614.637 483.987 616.091C477.494 623.042 471.255 630.247 465.61 637.909C464.117 638.839 464.139 641.019 465.995 641.459C467.169 642.405 467.964 644.714 469.848 643.856C472.111 642.689 473.735 640.614 475.725 639.062C477.399 637.748 478.942 636.07 480.787 635.093C482.725 635.357 483.8 637.431 485.747 637.852C489.481 639.572 493.454 640.753 497.455 641.639C499.347 641.726 500.036 639.714 501.277 638.716C503.532 637.376 501.853 634.82 500.738 633.311C500.188 632.553 497.893 629.531 500.318 630.589C505.378 632.501 510.479 634.833 515.982 634.97C517.554 634.902 519.607 633.238 518.714 631.604C518.727 629.416 520.812 630.554 521.9 631.175C523.834 631.804 525.921 632.152 527.943 632.033C529.746 631.337 530.366 629.122 530.578 627.387C530.329 626.19 528.778 624.316 530.616 623.637C532.472 623.325 533.847 621.737 534.094 619.895C533.596 617.789 534.878 614.893 537.441 615.466C540.882 617.478 544.289 619.591 547.792 621.514C551.255 623.45 554.686 625.457 558.079 627.494C560.099 628.057 561.719 626.008 563.341 625.081C565.14 623.805 563.504 621.87 562.192 621.041C556.647 616.332 550.061 613.116 543.861 609.399C541.737 609.026 541.792 606.944 543.134 605.684C545.002 602.433 546.45 598.941 547.684 595.404C548.069 593.281 549.334 591.423 549.395 589.252C549.198 588.073 548.341 584.935 550.582 585.801C554.884 588.972 559.974 590.913 564.253 594.139C565.781 595.7 567.619 594.049 568.979 593.197C570.903 592.611 571.255 590.216 569.512 589.173C565.185 584.601 559.128 582.394 553.982 578.951C552.11 577.795 550.246 576.627 548.38 575.461C546.518 577.037 545.996 572.708 548.481 573.718C550.5 573.537 550.968 571.228 550.868 569.569C551.042 568.338 549.959 566.475 550.446 565.71C552.1 565.864 553.067 567.492 554.589 568.029C558.479 570.213 563.496 574.511 567.751 576.244C569.789 577.189 571.461 578.733 573.052 580.285C575.042 580.454 575.751 578.15 577.216 577.25C579.134 576.032 578.54 573.617 576.689 572.69C573.606 570.002 571.568 570.007 568.472 567.328C564.594 563.89 559.782 561.806 555.453 559.026C553.73 557.9 551.915 556.827 550.446 555.383C549.618 553.782 548.912 551.936 547.575 550.822C549.661 551.245 551.314 552.92 553.374 553.568C558.863 556.27 564.4 558.893 570.101 561.121C571.549 562.6 574.095 562.283 574.904 560.291C575.683 558.618 578.876 556.427 576.835 554.694C574.751 553.777 572.698 552.787 570.651 551.771C563.525 548.377 556.44 544.896 549.393 541.345C545.034 539.36 540.691 537.166 537.123 533.914C535.329 532.957 533.833 530.57 531.576 531.253C529.573 531.984 527.282 533.586 525.425 531.584C524.192 530.561 520.898 530.207 522.651 527.984C523.581 526.759 522.249 525.512 522.414 523.917C521.255 522.285 518.808 522.303 517.193 521.21C514.445 520.122 514.229 519.247 511.287 518.89C509.368 517.667 506.921 517.338 504.739 517.966C502.741 518.277 501.271 516.359 499.464 516.355C497.733 517.503 496.059 516.98 494.382 516.104C492.646 515.205 490.419 517.445 489.141 515.631C488.454 514.213 487.92 512.528 488.287 510.946C489.269 509.076 491.038 507.672 491.918 505.696C493.884 502.087 495.365 498.218 496.231 494.198C497.509 492.709 498.784 491.157 498.971 489.124C499.739 487.399 500.253 485.597 500.364 483.71C501.02 480.08 502.838 476.66 502.608 472.892C502.718 470.567 504.062 468.506 504.031 466.153C504.157 463.569 504.244 460.941 505.199 458.498C506.016 455.833 506.071 453.017 506.316 450.259C509.205 451.031 512.211 452.235 515.232 451.395C519.089 450.523 522.591 448.22 524.8 444.922C526.016 443.051 526.018 440.687 526.676 438.598C526.907 435.566 526.615 432.523 526.763 429.487C526.789 425.561 526.466 421.594 527.304 417.725C527.695 415.335 528.152 412.953 528.763 410.609C528.079 408.815 525.81 409.138 524.398 408.315C522.787 407.676 521.334 409.069 521.326 410.666C520.87 412.794 520.915 414.985 520.629 417.135C518.716 418.42 518.224 415.18 518.898 413.967C518.538 412.044 519.844 408.491 517.292 407.975C515.574 408.271 513.399 407.196 512.051 408.594C511.055 409.885 511.897 411.544 511.818 413.011C511.918 414.583 511.926 416.169 511.694 417.73C510.15 418.473 511.526 422.615 512.719 420.523C514.234 419.405 514.435 421.45 514.046 422.411C515.135 423.74 517.193 424.393 518.255 422.467C518.955 421.658 518.773 418.255 520.011 420.379C520.13 422.48 520.237 424.593 520.334 426.704C520.332 429.869 520.259 433.046 520.396 436.201C519.986 438.753 519.846 441.722 517.715 443.512C516.118 444.865 513.844 445.46 511.779 445.18C510.079 444.808 507.87 443.753 507.958 441.703C508.205 440.074 508.417 438.435 508.19 436.792C508.125 432.834 508.834 428.917 508.968 424.968C508.604 422.738 504.895 422.109 504.129 424.407C503.44 426.729 503.107 429.16 502.798 431.564C502.416 434.891 502.237 438.253 501.498 441.529C500.05 443.532 500.657 446.167 500.046 448.441C499.719 451.199 499.58 453.973 499.382 456.742C497.844 458.63 498.132 461.217 497.744 463.473C497.893 465.814 497.289 468.052 496.473 470.192C496.117 472.335 496.632 474.695 495.445 476.643C494.976 478.791 494.588 480.961 493.932 483.057C493.52 485.495 492.817 487.967 491.153 489.862C488.659 493.713 488.047 498.405 485.744 502.353C484.391 505.102 482.198 507.296 480.798 510.015C479.204 512.901 477.394 515.657 475.426 518.3C474.038 520.53 473.496 523.33 471.426 525.104C469.992 527.696 468.479 530.264 466.523 532.5C462.907 537.534 458.871 542.455 453.593 545.817C452.285 547.015 451.329 548.781 449.386 549.021C446.612 549.627 444.041 550.878 441.514 552.126C438.668 553.029 435.744 553.703 432.95 554.751C431.042 555.356 429.036 555.866 427.066 555.196C424.875 555.054 423.039 553.724 420.856 553.564C418.506 553.169 416.624 551.57 414.308 550.997C412.35 549.991 410.119 549.718 408.23 548.549C405.829 547.047 402.784 546.935 400.482 545.214C396.806 543.25 393.342 540.918 389.69 538.908C385.603 536.413 381.422 534.071 377.394 531.482C374.787 529.196 371.922 527.201 368.853 525.594C366.856 524.614 366.257 521.215 363.766 521.565C362.642 521.4 363.53 519.467 362.261 518.907C359.606 516.17 357.362 513.056 354.921 510.143C353.206 508.492 352.697 506.023 351.441 504.065C350.418 501.553 349.044 499.209 347.76 496.834C346.247 493.317 344.826 489.751 343.576 486.135C342.652 482.763 341.545 479.44 340.008 476.293C337.892 471.657 335.807 467.004 333.669 462.38C330.242 455.735 326.846 449.072 323.647 442.313C321.958 441.284 323.383 438.933 325.133 439.335C326.721 439.02 329.358 438.71 329.094 436.509C328.322 432.475 327.745 428.392 326.78 424.39C329.16 424.338 332.107 424.728 333.295 427.107C334.602 428.826 334.104 432.181 336.319 432.952C337.842 432.768 338.103 433.93 337.817 435.12C338.883 436.608 341.123 436.354 342.564 437.378C345.482 438.665 348.849 439.762 352.014 438.748C353.64 437.603 355.543 436.8 357.567 437.177C366.982 437.244 376.593 436.459 385.458 433.067C387.014 433.037 388.434 431.106 387.145 429.823C386.557 428.354 385.111 426.759 383.385 427.558C377.929 429.751 372.025 430.567 366.203 431.125C361.145 431.55 356.042 431.641 351.05 432.656C348.545 432.987 346.577 431.074 344.306 430.396C342.004 430.014 340.231 428.484 340.102 426.053C339.351 423.96 337.598 422.228 337.493 419.901C336.937 417.91 337.307 415.129 335.454 413.837C333.983 413.472 332.95 410.973 335.134 410.883C336.61 410.896 337.786 409.488 337.334 408.04C336.891 406.217 338.887 405.179 340.373 406.043C342.395 406.84 344.229 404.769 346.267 405.41C348.149 405.513 349.992 404.445 351.862 405.13C354.708 405.853 357.266 403.713 360.075 403.648C360.967 403.455 363.759 402.895 361.659 404.051C360.478 405.569 356.932 406.098 357.512 408.361C358.881 409.702 357.358 411.053 357.422 412.553C358.053 414.656 358.954 416.918 360.768 418.291C362.376 419.588 364.513 418.851 366.289 418.4C367.89 418.224 368.08 415.943 369.776 416.138C371.714 416.926 373.95 416.583 375.168 414.69C376.8 412.622 377.805 410.152 378.99 407.822C379.449 405.99 377.304 405.399 376.173 404.584C374.851 403.234 372.153 402.24 371.233 404.561C370.238 406.28 369.855 408.245 368.936 409.983C368.636 411.247 365.524 411.023 367.511 410.056C369.611 409.619 368.812 407.096 367.439 406.318C366.829 404.276 370.546 405.88 369.546 403.753C367.7 402.23 370.719 401.91 371.885 402.102C374.373 401.375 376.994 401.465 379.547 401.612C383.231 401.482 386.796 400.407 390.213 399.11C392.088 398.7 393.356 400.383 394.085 401.856C395.463 404.178 396.008 406.851 396.361 409.493C396.957 411.49 396.934 413.561 396.638 415.605C396.421 421.408 397.096 427.227 398.441 432.875C398.085 434.794 400.499 435.261 401.918 434.99C403.772 435.526 405.88 434.369 405.332 432.203C404.984 429.423 404.88 426.624 404.523 423.841C404.213 420.766 403.988 417.659 404.315 414.575C403.397 411.624 403.651 408.447 402.688 405.505C402.562 403.867 400.691 401.352 402.698 400.327C404.614 399.77 406.598 399.426 408.556 399.014C411.641 398.494 414.756 398.141 417.869 397.862C419.719 398.099 419.243 400.336 419.325 401.642C419.683 404.523 420.954 407.185 421.925 409.893C423.056 412.588 424.98 414.937 427.484 416.461C428.797 417.572 430.242 419.077 432.143 418.58C433.644 418.553 436.427 417.897 434.982 415.91C433.972 414.892 432.027 414.514 431.971 412.786C431.854 410.912 430.048 410.1 429.193 408.699C427.915 406.398 427.232 403.831 426.188 401.428C425.343 399.175 425.9 396.805 425.908 394.504C425.733 392.481 427.552 391.44 428.934 390.395C430.602 389.186 432.683 390.398 434.529 389.823C436.437 389.251 438.384 388.792 440.397 388.809C441.903 388.947 443.668 386.986 444.967 388.617C446.513 390.088 444.903 392.312 443.031 391.927C441.415 392.986 442.375 395.143 442.936 396.549C443.633 397.99 443.92 399.888 442.275 400.8C440.485 402.36 443.103 404.126 444.659 404.265C446.67 404.865 448.849 404.316 450.805 405.14C453.974 405.655 457.26 403.717 458.48 400.772C460.334 397.706 461.338 394.193 461.757 390.665C462.412 388.694 460.357 387.587 458.671 388.112C456.839 387.845 455.136 388.634 453.346 388.721C451.416 388.669 449.462 388.061 447.553 388.627C445.805 387.273 448.813 387.242 449.802 387.224C451.546 386.441 453.393 387.047 455.215 386.989C456.673 386.58 458.11 385.91 459.68 386.045C462.022 386.125 464.435 386.459 466.677 385.557C468.683 384.86 470.936 385.659 472.893 384.69C475.656 384.061 478.638 384.17 481.263 385.294C482.922 387.193 483.301 389.824 484.352 392.051C485.36 395.715 484.762 399.587 483.942 403.216C482.812 405.083 483.9 407.295 486.009 407.67C487.325 408.16 489.347 409.563 490.052 407.494C490.97 403.83 492.405 400.133 492.03 396.283C492.781 394.476 495.203 397.55 496.034 395.262C497.967 393.447 497.853 396.72 497.665 397.928C497.652 401.521 497.449 405.142 497.522 408.717C498.415 409.909 500.82 409.802 500.416 411.92C500.245 413.585 501.402 415.85 503.363 414.976C504.669 414.303 506.463 414.549 507.383 413.228C507.839 411.831 506.957 410.167 508.037 408.827C509.756 405.264 509.669 401.133 509.243 397.286C510.62 396.013 512.296 397.561 513.704 397.919C515.313 398.444 516.642 394.859 517.409 397.384C517.661 399.324 518.759 401.022 519.821 402.622C520.613 404.422 522.609 404.569 523.915 405.724C525.538 407.461 528.988 405.523 528.651 403.196C528.661 402.368 525.968 401.408 526.953 401.274C528.585 402.699 529.521 399.938 528.774 398.684C529.185 396.836 529.573 394.993 528.936 393.13C528.751 391.108 528.734 389.091 528.714 387.059C529.064 384.355 529.148 381.521 527.994 378.978C527.747 377.846 526.297 375.587 526.466 375.342C528.479 376.479 530.713 373.329 528.496 372.035C526.645 370.762 526.273 368.085 524.15 367.247C522.032 366.746 519.805 367.024 517.645 366.98C516.754 367.152 514.464 368.505 515.27 366.561C516.443 365.266 516.24 363.488 516.497 361.888C517.836 355.634 520.566 349.499 519.939 342.971C519.755 340.78 519.171 338.765 520.099 336.727C520.082 334.191 518.459 332.056 517.858 329.645C514.767 321.005 512.499 312.049 508.656 303.693C510.746 303.454 510.391 300.767 509.401 299.545C507.089 294.731 504.404 290.077 502.658 285.012C498.767 275.821 492.909 267.577 486.278 260.168C482.438 256.157 478.431 252.24 473.877 249.041C468.823 245.644 462.922 243.935 457.145 242.229C451.564 240.578 446.043 238.737 440.555 236.807C438.368 236.054 436.106 235.661 433.81 235.676C431.004 235.132 428.56 233.436 425.7 233.052C422.312 232.353 418.804 232.3 415.383 232.788C414.676 234.383 412.68 234.139 412.807 232.295C411.739 231.155 409.98 231.449 408.572 231.162C406.526 231.006 404.477 231.219 402.43 231.225C400.374 230.488 398.411 229.362 396.166 229.334C395.599 229.273 395.025 229.229 394.461 229.173L394.459 229.176ZM526.936 401.338C526.539 401.408 527.161 400.831 526.936 401.338V401.338ZM431.524 419.094C431.717 419.278 431.741 419.301 431.524 419.094V419.094ZM404.322 546.917C404.601 547.753 405.054 546.286 404.322 546.917V546.917ZM451.665 547.54C450.787 547.345 451.928 548.421 451.665 547.54V547.54ZM369.646 246.413C368.961 246.101 369.328 247.063 369.646 246.413V246.413ZM338.291 249.528C337.963 250.312 335.27 251.334 335.997 250.044C336.72 249.699 337.569 249.875 338.291 249.528ZM426.125 249.528C427.78 251.129 423.34 252.522 424.676 250.101C425.06 249.729 425.605 249.575 426.125 249.528ZM352.93 252.436C353.99 253.878 353.169 255.971 351.362 256.195C350.486 256.569 348.267 257.768 348.288 257.664C349.309 256.326 348.672 253.895 350.947 253.588C351.621 253.228 352.313 252.892 352.93 252.436ZM452.496 255.239C453.897 255.151 455.731 258.056 453.544 257.911C452.622 257.385 452.788 256.115 452.496 255.239ZM344.728 258.354C346.58 259.838 342.908 260.82 342.134 261.864C341.468 262.41 339.862 263.962 339.607 263.635C340.671 261.84 342.477 260.691 344.091 259.451C344.397 259.153 344.636 258.776 344.728 258.354ZM397.262 258.77C396.377 259.511 397.505 259.609 397.262 258.77V258.77ZM436.507 261.885C436.85 264.142 434.465 265.243 433.096 266.536C432.339 267.351 431.311 269.69 430.231 269.013C430.626 267.165 433.134 266.851 433.929 265.127C434.813 264.066 435.613 262.937 436.507 261.885ZM396.847 262.923C398.608 262.204 397.85 266.011 396.867 264.066C396.767 263.694 396.773 263.299 396.847 262.923ZM423.841 265.727C425.388 266.334 424.503 269.56 422.951 268.04C422.374 267.23 422.974 266.028 423.841 265.727ZM460.801 267.388C459.998 268.486 462.203 267.619 460.801 267.388V267.388ZM452.703 268.738C452.331 269.879 453.546 272.737 451.511 272.409C450.225 271.179 451.893 269.664 452.703 268.738ZM398.612 272.58C398.269 272.704 398.963 272.73 398.612 272.58V272.58ZM344.832 274.864C345.357 276.154 343.059 278.035 342.243 276.897C342.615 275.791 344.196 275.786 344.832 274.864ZM420.518 295.009C422.178 295.993 421.084 298.464 419.379 298.602C418.795 299.317 416.192 300.942 417.725 299.082C418.731 297.783 419.946 296.584 420.518 295.009ZM309.948 297.605C309.824 298.291 308.291 300.764 308.589 298.971C308.852 298.371 309.326 297.841 309.948 297.605ZM355.214 298.539C355.269 299.567 357.12 301.359 354.879 301.188C354.154 301.511 351.358 302.828 352.695 301.314C353.546 300.399 354.476 299.553 355.214 298.539ZM500.565 300.201C501.716 302.183 502.711 304.251 503.68 306.327C502 306.839 501.459 304.655 501.357 303.412C501.164 302.327 500.995 301.224 500.565 300.201ZM393.421 303.627C392.467 303.316 393.879 304.653 393.421 303.627V303.627ZM392.383 303.939C390.689 304.018 392.973 305.056 392.383 303.939V303.939ZM428.097 329.379C432.571 327.545 435.058 323.116 437.467 319.192C437.795 318.126 438.904 316.352 439.681 318.199C440.293 321.092 444.307 322.479 446.515 320.474C448.084 318.963 447.857 316.492 449.287 314.872C450.571 313.211 451.395 311.022 453.318 309.989C454.933 308.528 457.687 309.904 456.229 312.014C454.984 314.233 456.255 317.599 458.957 317.843C460.863 318.589 462.453 316.827 463.918 316.563C465.197 318.058 464.853 320.766 467.288 321.433C469.248 322.494 471.558 321.888 473.454 321.009C475.239 320.239 475.69 322.456 475.815 323.731C476.497 325.995 477.201 328.293 478.283 330.399C479.434 331.609 481.542 330.037 482.534 331.636C484.262 333.44 485.485 335.651 487.113 337.541C488.525 339.443 489.84 341.435 490.806 343.604C489.977 345.175 489.508 347.964 490.616 349.15C492.867 349.136 493.9 351.375 493.988 353.316C494.565 356.476 494.902 359.83 496.789 362.543C498.205 364.313 495.868 364.951 495.401 366.325C495.036 367.973 496.628 369.124 496.796 370.695C497.38 373.102 496.786 375.569 496.942 378.001C496.767 379.91 494.401 379.737 493.142 380.579C492.072 381.472 490.243 381.83 489.906 383.352C490.396 384.521 491.284 385.676 491.158 386.935C492.398 387.681 491.999 390.369 490.594 388.685C490.112 387.017 489.858 385.284 489.005 383.724C488.268 381.966 487.129 380.433 486.286 378.735C484.91 377.359 482.88 378.917 481.216 378.702C479.024 378.362 476.797 377.522 474.558 378.117C471.873 378.446 469.231 379.259 466.502 379.08C464.183 379.306 461.916 380.251 459.557 379.814C457.199 379.491 454.967 380.45 452.654 380.583C450.408 380.304 448.288 380.987 446.121 381.347C444.232 381.357 442.288 381.196 440.504 381.964C438.184 382.548 435.779 382.746 433.489 383.456C431.119 383.915 428.607 382.756 426.341 383.939C424.553 384.868 422.659 385.985 421.58 387.717C421.517 388.718 424.242 390.105 422.182 390.465C420.166 390.143 418.344 391.535 416.344 390.711C413.987 390.727 411.605 390.994 409.254 391.285C404.622 391.925 400.086 393.354 395.978 395.599C394.654 397.03 393.111 395.13 392.892 393.799C391.518 392.107 389.159 392.82 387.396 393.334C384.193 394.271 380.916 395.173 377.545 394.962C374.915 394.963 372.311 395.363 369.719 395.733C366.991 395.833 364.269 396.068 361.605 396.69C359.282 397.142 356.876 397.326 354.694 398.295C352.552 399.178 350.354 397.858 348.18 398.456C344.961 398.962 341.664 399.706 338.407 399.101C336.403 399.034 334.609 400.141 333.053 401.286C332.14 403.024 331.451 405.049 330.057 406.429C328.411 406.901 326.623 406.432 324.926 406.577C322.859 406.359 323.057 404.02 322.873 402.493C321.732 391.42 321.427 380.102 317.924 369.439C316.663 367.815 317.683 366.196 318.805 364.889C319.573 363.06 319.117 361.012 319.609 359.116C320.083 355.354 320.58 351.594 321.261 347.863C323.189 348.932 324.712 346.665 325.029 345.005C326.291 341.942 327.978 339.084 329.463 336.13C332.01 335.802 334.534 335.323 337.042 334.78C336.323 336.465 338.567 337.635 339.973 337.044C341.673 336.231 343.742 337.547 342.52 339.427C341.777 341.258 341.753 343.257 341.529 345.195C341.021 347.534 343.109 349.28 345.298 349.34C347.571 349.923 348.844 347.596 349.082 345.696C349.975 343.065 351.2 340.551 352.172 337.949C352.421 339.052 352.178 340.842 352.682 342.153C353.224 344.46 355.244 346.504 357.73 346.382C360.335 346.405 362.468 344.57 363.834 342.506C368.28 336.449 370.977 329.188 376.272 323.738C377.49 322.981 378.284 320.851 379.753 321.131C379.431 323.197 378.138 325.377 377.632 327.557C376.992 329.859 376.238 332.23 376.356 334.639C376.591 336.947 379.176 339.178 381.434 337.819C383.802 336.987 382.987 334.343 383.886 332.547C384.311 330.604 386.358 330.837 387.798 330.314C389.316 328.982 390.277 327.067 391.568 325.504C394.434 321.592 397.017 317.479 399.961 313.623C398.086 316.791 396.279 320.172 395.961 323.907C396.094 326.037 397.857 327.993 400.12 327.45C402.518 327.557 404.24 325.771 405.321 323.84C406.907 321.461 408.66 319.137 410.999 317.45C414.916 313.902 418.6 310.103 422.592 306.638C420.233 310.394 417.908 314.668 418.371 319.253C418.736 321.437 421.537 322.954 423.337 321.344C425.797 319.62 427.013 316.736 428.482 314.237C430.042 312.459 431.682 315.449 430.152 316.603C428.698 318.366 427.502 320.364 426.045 322.144C424.464 323.871 423.546 326.767 425.101 328.793C425.892 329.553 427.088 329.543 428.097 329.379ZM393.732 307.885C393.003 307.928 394.109 308.528 393.732 307.885V307.885ZM473.364 311.934C472.861 312.051 473.884 312.199 473.364 311.934V311.934ZM471.495 316.815C471.354 317.252 471.928 316.663 471.495 316.815V316.815ZM367.05 317.957C368.711 318.218 369.855 320.171 368.063 321.218C365.906 323.92 364.226 326.968 362.793 330.106C364.088 326.013 365.653 322.014 367.05 317.957ZM325.936 321.176C327.703 320.841 328.678 323.028 327.067 323.979C326.751 324.957 324.936 326.972 325.566 324.735C325.729 323.553 325.944 322.373 325.936 321.176ZM505.445 321.383C505.057 322.024 506.126 321.54 505.445 321.383V321.383ZM428.305 323.356C427.436 322.792 428.44 324.442 428.305 323.356V323.356ZM336.734 323.46C335.883 324.681 337.586 324.169 336.734 323.46V323.46ZM295.101 325.848C295.174 326.617 294.489 329.389 294.71 327.291C294.838 326.81 295.011 326.34 295.101 325.848ZM511.882 331.663C512.119 332.178 512.827 334.454 511.992 333.732C511.917 333.045 512.192 332.32 511.882 331.663ZM379.405 331.975C380.551 330.659 382.444 334.248 380.304 333.14C380.018 332.918 378.439 332.362 379.405 331.975ZM359.679 340.905C358.888 341.36 360.408 341.438 359.679 340.905V340.905ZM296.139 342.047C295.545 342.706 297.011 342.229 296.139 342.047V342.047ZM344.105 344.227C345.165 344.267 347.677 344.537 347.235 345.783C345.943 345.958 345.358 344.248 344.105 344.227ZM302.992 345.785C304.667 345.741 306.305 347.297 305.341 348.993C304.56 352.376 304.192 355.874 303.695 359.278C303.107 355.05 303.727 350.717 302.856 346.517C302.866 346.268 302.915 346.021 302.992 345.785ZM491.948 347.031C491.172 348.746 493.185 347.192 491.948 347.031V347.031ZM291.571 347.862C291.792 349.986 292.65 352.212 291.792 354.302C291.666 352.158 291.636 350.009 291.571 347.862ZM466.304 365.306C463.176 365.211 460.556 367.187 457.662 368.041C455.935 369.152 454.057 370.004 452.033 370.356C449.62 371.243 447.225 372.193 444.701 372.722C442.591 373.391 440.399 373.828 438.177 373.707C436.108 373.663 434.408 375.035 432.368 375.137C430.6 375.391 428.003 375.619 427.79 377.867C427.339 379.762 428.629 381.992 430.7 382.035C433.331 382.459 435.506 380.639 437.956 380.153C440.256 379.772 442.648 380.108 444.87 379.255C447.85 378.342 450.989 377.838 453.767 376.366C455.92 375.672 458.502 375.565 460 373.624C461.487 373.004 463.277 373.366 464.543 372.082C466.343 370.702 468.437 371.63 470.298 372.268C472.382 372.649 474.514 373.704 476.65 373.094C477.546 371.432 476.047 369.739 475.901 368.062C474.979 366.203 472.611 366.897 471.078 365.982C469.554 365.314 467.935 365.256 466.304 365.306ZM467.031 371.433C466.516 370.913 466.789 372.145 467.031 371.433V371.433ZM460.49 373.509C459.73 373.358 460.698 374.108 460.49 373.509V373.509ZM456.026 368.941C455.819 368.057 456.896 369.275 456.026 368.941V368.941ZM462.255 366.656C461.631 366.401 462.426 367.312 462.255 366.656V366.656ZM459.14 367.695C459.117 367.208 459.383 368.019 459.14 367.695V367.695ZM459.659 367.798C459.231 367.728 459.871 368.171 459.659 367.798V367.798ZM508.975 370.602C510.957 369.93 509.721 374.123 508.917 371.554C508.897 371.231 509.084 370.925 508.975 370.602ZM467.55 371.121C467.407 371.762 468.158 370.771 467.55 371.121V371.121ZM470.457 371.848C470.419 372.288 470.815 371.54 470.457 371.848V371.848ZM520.707 371.848C522.483 371.988 524.304 373.936 525.217 374.755C523.999 376.086 521.742 375.745 520.662 377.326C519.482 379.092 521.418 380.565 522.07 382.076C523.009 383.113 522.655 385.863 520.962 384.32C520.232 383.526 518.749 382.457 520.321 381.607C517.801 381.225 515.711 383.2 514.218 384.997C511.813 387.784 509.928 391.066 509.004 394.644C508.419 392.204 508.057 389.719 507.593 387.255C508.358 385.944 510.036 384.836 508.864 383.175C509.713 381.411 511.999 380.778 512.997 378.973C514.807 377.754 515.279 375.426 517.066 374.214C518.008 372.91 521.106 373.945 521.04 372.204L520.901 372.034L520.707 371.848ZM507.937 374.132C507.331 374.307 505.68 376.561 506.042 374.797C506.527 374.288 507.27 374.182 507.937 374.132ZM483.123 379.428C482.831 380.398 484.097 379.038 483.123 379.428V379.428ZM434.638 379.74C433.87 379.988 435.03 380.398 434.638 379.74V379.74ZM475.44 383.685C475.318 384.109 475.847 383.578 475.44 383.685V383.685ZM377.951 385.762C375.438 385.937 372.944 386.243 370.5 386.791C366.903 387.006 363.201 386.333 359.705 387.479C356.619 387.79 353.512 387.201 350.428 387.638C345.682 388.006 341.104 389.403 336.437 390.224C333.036 390.957 331.286 394.599 327.894 395.364C326.219 396.037 326.618 398.036 327.86 398.919C328.688 400.237 329.766 402.45 331.675 401.422C334.428 400.046 336.9 398.169 339.157 396.086C338.93 394.222 341.788 395.914 342.845 395.306C345.393 394.868 347.89 394.128 350.478 393.943C353.451 393.435 356.463 393.84 359.45 393.736C361.579 393.613 363.566 392.618 365.729 392.84C368.831 392.866 372.076 393.505 375.044 392.298C377.05 391.681 379.132 392.933 381.128 392.411C382.477 391.441 381.583 389.644 381.207 388.4C380.951 386.767 379.831 385.186 377.951 385.762ZM339.952 395.834C340.031 395.391 340.266 396.123 339.952 395.834V395.834ZM370.995 386.904C370.55 387.29 371.687 386.787 370.995 386.904V386.904ZM521.849 387.216C521.455 388.439 525.846 397.289 523.521 397.145C522.17 393.591 518.087 390.065 519.67 388.665C520.102 387.809 520.878 387.211 521.849 387.216ZM520.811 387.424C519.996 387.672 521.5 387.632 520.811 387.424V387.424ZM429.862 389.501C430.147 390.001 430.363 388.894 429.862 389.501V389.501ZM338.603 390.124C337.952 389.837 338.825 390.839 338.603 390.124V390.124ZM454.468 390.124C454.072 392.428 454.305 395.079 452.713 396.976C450.785 397.701 450.754 394.585 452.247 393.962C453.143 392.782 453.924 391.504 454.468 390.124ZM451.665 395.316C451.685 396.898 452.609 394.588 451.665 395.316V395.316ZM469.003 390.539C465.731 391.499 463.351 394.1 461.083 396.499C460.533 398.182 462.497 399.036 463.369 400.119C464.544 401.828 466.873 401.617 467.934 399.905C469.76 397.887 471.846 395.385 471.311 392.457C471.14 391.331 470.285 390.161 469.003 390.539ZM347.22 393.239C347.38 394.185 348.05 392.984 347.22 393.239V393.239ZM349.919 393.239C349.575 393.209 350.418 393.514 349.919 393.239V393.239ZM517.385 393.239C517.92 394.46 518.321 392.53 517.385 393.239V393.239ZM439.206 394.069C436.937 394.647 435.809 396.915 433.971 398.157C432.81 399.564 434.494 401.119 435.692 401.769C437.431 402.865 439.089 401.296 439.781 399.76C441.117 397.925 440.113 395.829 439.206 394.069ZM440.556 398.431C440.159 397.992 441.148 398.444 440.556 398.431V398.431ZM343.067 394.9C342.607 394.641 343.027 395.387 343.067 394.9V394.9ZM300.085 397.496C302.529 398.118 303.005 400.786 304.326 402.315C306.219 403.419 307.417 401.467 308.449 400.373C310.323 399.571 312.232 401.961 311.255 403.652C310.095 404.841 308.816 406.116 307.251 406.744C305.288 406.996 303.761 405.159 302.172 404.244C300.23 402.851 301.974 400.434 301.185 398.624C301.105 397.967 300.011 398.176 300.085 397.496ZM353.138 398.95C353.563 399.821 353.853 398.415 353.138 398.95V398.95ZM341.094 399.78C341.104 400.645 341.888 399.516 341.094 399.78V399.78ZM522.335 397.072C527.317 396.396 520.454 405.164 520.369 403.395C518.801 401.957 522.116 397.114 522.335 397.072ZM527.144 402.792C526.504 402.098 526.973 403.739 527.144 402.792V402.792ZM526.106 402.896C525.702 403.458 527.192 402.936 526.106 402.896V402.896ZM527.04 404.038C526.872 404.895 527.89 403.688 527.04 404.038V404.038ZM381.377 404.557C380.583 406.903 381.083 409.397 381.038 411.813C379.989 413.785 383.218 415.859 384.257 413.556C385.553 411.826 386.596 409.921 387.707 408.075C388.329 405.907 385.287 405.689 383.859 405.232C383.044 404.969 382.201 404.792 381.377 404.557ZM381.377 414.421C380.953 414.366 381.993 414.748 381.377 414.421V414.421ZM370.684 409.229C371.558 410.13 368.788 410.142 370.475 409.368L370.684 409.229ZM486.861 409.229C484.252 411.466 480.303 411.283 477.92 413.863C476.36 414.638 474.657 413.464 473.017 413.924C467.283 414.427 461.803 416.592 456.02 416.714C451.894 417.356 447.821 418.829 443.589 418.319C441.772 418.581 439.043 417.489 438.132 419.627C437.28 421.209 437.072 423.987 439.646 423.589C441.869 423.328 444.092 423.443 446.323 423.536C449.213 423.659 452.096 423.244 454.848 422.371C458.524 421.56 462.316 421.465 465.971 420.534C470.093 419.635 474.317 418.854 478.547 419.278C480.632 419.045 481.623 416.767 483.654 416.381C485.774 415.886 487.65 414.767 489.384 413.489C491.389 412.161 489.798 410.08 487.897 409.993C487.496 409.831 487.107 409.593 486.861 409.229ZM350.646 411.306C348.845 411.266 345.145 412.495 346.086 414.693C347.093 416.437 349.186 417.137 351.007 416.415C352.704 416.494 354.366 418.728 355.808 416.586C357.685 414.528 355.572 412.018 353.259 411.873C352.392 411.667 351.522 411.472 350.646 411.306ZM478.659 414.733C480.396 415.611 476.641 416.504 477.993 414.906C478.195 414.788 478.43 414.748 478.659 414.733ZM330.608 415.979C331.801 416.03 331.688 418.115 330.683 416.809C330.543 416.561 330.495 416.248 330.608 415.979ZM325.521 416.186C325.384 416.566 325.873 416.3 325.521 416.186V416.186ZM325.002 416.913C325.424 417.293 328.089 417.896 326.348 417.984C325.772 417.854 325.223 417.476 325.002 416.913ZM311.609 429.893C312.85 433.475 313.705 437.182 315.046 440.731C316.641 441.459 316.201 445.031 314.199 443.487C312.751 442.076 312.304 439.947 311.877 438.039C311.414 435.349 311.546 432.606 311.609 429.893ZM396.743 436.85C393.752 440.488 391.65 444.817 388.272 448.142C387.344 449.767 388.73 451.5 388.542 453.206C388.613 457.083 390.677 461.373 394.56 462.665C396.471 462.699 397.121 460.504 398.465 459.531C399.772 457.806 397.674 456.984 396.551 456.191C395.523 454.541 395.237 452.306 395.903 450.463C396.864 448.762 398.472 447.506 399.452 445.784C400.467 444.176 401.619 442.562 402.269 440.789C402.102 439.102 400.102 438.775 398.973 437.892C398.286 437.444 397.564 436.98 396.743 436.85ZM511.259 445.884C511.348 446.386 511.587 445.49 511.259 445.884V445.884ZM441.698 446.922C438.429 448.374 434.433 448.016 431.619 450.495C429.965 451.842 427.135 452.917 426.922 455.268C427.349 456.923 429.332 456.977 430.524 457.82C432.28 459.091 433.981 457.593 434.725 455.987C436.145 454.169 438.775 454.796 440.691 453.926C441.961 453.759 444.31 453.431 443.617 451.547C443.004 449.996 442.339 448.448 441.698 446.922ZM407.748 452.425C406.061 452.804 402.511 451.814 402.407 454.214C402.949 455.985 403.294 458.417 405.109 459.303C406.973 459.665 408.976 459.166 410.786 458.905C410.83 456.436 413.623 458.599 414.992 458.142C417.435 457.611 415.964 454.394 414.359 453.693C412.417 452.37 410.013 452.256 407.748 452.425ZM410.24 458.448C409.824 459.229 411.199 458.288 410.24 458.448V458.448ZM402.765 460.525C401.038 461.888 399.226 463.409 398.516 465.572C399.577 467.195 402.098 467.867 403.418 466.165C404.421 465.24 406.708 464.164 405.726 462.519C404.944 461.633 403.817 461.022 402.765 460.525ZM414.497 462.809C412.69 463.811 409.074 464.05 409.107 466.623C409.929 468.48 411.386 470.082 411.475 472.235C412.069 475.665 411.281 479.183 411.78 482.6C412.787 484.489 415.202 483.831 416.912 483.684C419.323 483.691 419.388 481.231 419.068 479.467C419.311 474.36 419.031 468.875 416.136 464.471C415.675 463.856 415.293 463.039 414.497 462.809ZM423.529 463.64C422.193 463.505 419.872 463.416 419.986 465.353C419.999 470.828 422.294 476.153 425.774 480.32C427.366 481.149 429.336 480.431 430.958 480.159C431.986 478.281 429.687 476.621 429.33 474.818C428.067 471.775 427.278 468.506 427.226 465.209C427.002 463.242 424.919 463.618 423.529 463.64ZM436.611 482.33C435.531 483.71 433.292 482.55 432.287 484.278C430.425 485.658 428.281 486.586 426.309 487.792C423.955 488.372 422.195 485.466 419.817 486.349C417.853 486.641 416.98 486.722 415.023 486.967C413.131 486.736 409.733 488.106 407.948 488.931C404.449 490.099 401.091 491.656 397.882 493.472C396.244 493.414 394.477 492.051 393.062 493.616C391.92 494.875 389.417 494.805 389.063 496.621C389.274 498.381 391.067 499.328 392.055 500.675C393.864 501.83 396.221 501.294 398.132 502.44C399.816 502.427 401.536 502.381 403.185 502.904C404.772 503.37 406.424 503.379 408.051 503.214C416.296 503.155 424.57 504.333 432.792 503.35C436.175 502.734 439.751 501.953 442.417 499.638C443.96 498.399 446.475 499.2 447.692 497.409C448.906 495.355 450.986 495.511 452.459 494.175C454.341 492.508 455.387 492.827 458.003 492.041C460.223 491.206 461.814 489.484 463.488 487.9C465.126 486.63 463.552 484.929 463.006 483.543C461.739 482.407 459.29 482.117 458.328 483.813C457.313 485.369 455.423 485.301 453.915 484.616C448.803 483.346 443.536 482.855 438.314 482.284C437.746 482.271 437.175 482.29 436.611 482.33ZM464.331 484.2C464.485 483.228 464.992 484.738 464.331 484.2V484.2ZM465.162 484.511C464.468 485.257 466.129 484.688 465.162 484.511V484.511ZM436.11 490.314C438.893 490.852 441.993 490.242 444.813 490.534C441.926 490.827 439.999 493.653 437.057 493.754C434.731 494.582 432.118 492.715 429.942 494.416C425.643 496.268 420.852 495.65 416.303 496.041C413.886 496.237 411.464 496.343 409.045 496.509C407.691 497.005 408.827 495.192 409.678 495.709C411.749 495.152 413.891 493.771 416.067 494.693C417.974 495.503 419.454 493.44 421.402 493.984C423.251 494.695 424.436 490.918 425.895 493.118C426.497 494.924 428.987 494.932 430.177 493.718C432.381 492.444 434.424 492.276 436.11 490.314ZM445.851 490.638C447.285 489.366 448.626 492.874 446.452 491.831C446.076 491.558 445.864 491.095 445.851 490.638ZM438.895 512.132C434.37 512.599 429.898 513.531 425.352 513.803C423.2 514.926 420.13 513.379 418.446 515.176C418.001 516.915 416.632 518.999 417.405 520.692C419.03 521.848 421.137 520.979 422.98 521.298C428.306 521.474 433.597 520.422 438.655 518.823C440.559 519.301 441.386 516.651 440.211 515.416C439.789 514.317 439.672 513.066 438.895 512.132ZM497.97 529.992C499.126 530.698 496.379 530.709 497.909 530.028L497.97 529.992ZM472.845 533.834C472.1 534.586 473.481 534.378 472.845 533.834V533.834ZM342.029 537.779C340.415 540.876 339.185 544.166 338.291 547.54C337.12 546.281 334.419 546.231 333.889 544.771C335.016 543.037 336.978 542.07 338.402 540.598C339.591 539.633 340.802 538.695 342.029 537.779ZM461.321 539.337C460.595 539.505 461.426 539.985 461.321 539.337V539.337ZM508.456 539.96C507.69 539.963 505.651 541.94 505.955 540.486C506.707 539.988 507.693 540.432 508.456 539.96ZM301.434 550.24C293.456 555.543 286.005 561.613 277.853 566.657C276.011 568.077 273.497 569.352 273.022 571.843C272.489 573.647 274.022 575.203 275.75 575.331C277.716 575.709 279.557 574.765 281.248 573.913C283.896 572.93 286.096 571.134 288.574 569.823C295.259 565.885 301.754 561.344 306.699 555.287C307.321 553.439 304.756 552.711 303.755 551.566C303.025 551.052 302.241 550.619 301.434 550.24ZM345.04 550.863C344.675 552.624 345.867 555.154 343.652 556.095C341.932 557.357 340.439 555.623 341.706 554.041C341.913 552.65 342.246 550.89 344.137 551.477C344.526 551.474 344.912 551.237 345.04 550.863ZM509.702 552.732C511.269 552.278 510.487 555.733 509.924 553.599C509.898 553.303 509.891 552.981 509.702 552.732ZM513.335 553.77C512.359 553.707 512.95 554.555 513.335 553.77V553.77ZM321.368 556.055C323.084 556.19 320.526 558.844 321.188 556.682C321.283 556.487 321.379 556.279 321.368 556.055ZM360.613 560.935C358.809 561.454 355.765 560.501 355.04 562.778C354.961 564.638 355.821 566.4 356.241 568.189C358.287 574.219 361.901 579.524 364.971 585.054C370.095 593.757 375.422 602.346 380.239 611.226C383.584 616.851 387.228 622.34 389.894 628.333C390.916 630.267 390.879 632.595 391.727 634.498C392.986 635.792 394.902 635.092 396.485 635.24C398.854 635.199 398.518 632.358 398.048 630.774C397.451 625.875 395.512 621.009 391.978 617.485C389.859 616.312 390.059 613.525 388.889 611.659C386.214 605.745 383.505 599.841 380.625 594.024C375.594 584.319 369.529 575.207 363.979 565.803C362.716 564.419 362.66 561.369 360.869 560.936L360.613 560.935ZM335.592 562.285C336.959 563.374 339.984 562.522 340.067 564.945C340.209 565.884 340.89 569.328 339.203 567.605C338.018 565.814 336.553 564.228 335.592 562.285ZM515.931 569.242C515.794 571.897 515.911 574.569 516.349 577.193C514.664 578.289 515.391 574.474 514.715 573.522C514.203 571.798 513.321 569.611 515.931 569.242ZM306.882 569.389C299.995 573.925 293.282 582.39 285.756 585.943C284.53 586.778 281.722 587.147 282.669 589.27C283.802 590.681 284.111 592.625 285.425 593.836C296.164 589.778 302.427 587.132 305.687 582.588C307.928 580.634 310.832 576.088 312.604 573.7C311.037 571.874 309.074 570.386 306.882 569.389ZM326.975 574.122C328.295 575.964 329.72 577.73 331.231 579.418C329.82 579.003 327.753 582.076 327.089 579.641C327.005 578.014 327.277 576.378 326.995 574.75L326.979 574.437L326.975 574.122ZM534.411 576.303C535.592 578.142 531.025 578.819 532.487 576.916C533.103 576.635 533.912 576.841 534.411 576.303ZM515.62 580.976C516.42 581.455 515.776 583.563 515.393 581.974C515.422 581.631 515.559 581.312 515.62 580.976ZM513.647 584.195C512.875 584.815 514.478 584.474 513.647 584.195V584.195ZM343.794 586.375C344.877 587.697 344.226 590.556 342.213 589.024C341.313 588.144 338.733 588.006 338.75 586.82C340.406 586.548 342.135 586.739 343.794 586.375ZM513.439 587.102C512.79 587.423 514.13 587.35 513.439 587.102V587.102ZM326.455 587.413C325.665 587.919 327.31 587.784 326.455 587.413V587.413ZM326.04 590.009C327.617 591.443 323.866 594.237 324.228 591.835C324.737 591.131 325.824 590.936 326.04 590.009ZM513.024 591.255C513.632 593.187 516.655 594.835 516.934 596.02C515.424 595.834 512.623 595.839 512.488 593.885C512.542 592.984 513.05 592.167 513.024 591.255ZM518.007 591.359C517.124 591.75 518.626 591.967 518.007 591.359V591.359ZM527.871 593.643C530.113 593.858 532.368 593.868 534.619 593.851C534.319 595.551 532.33 597.735 530.717 595.981C529.767 595.205 528.959 594.24 527.871 593.643ZM552.568 595.775C550.672 596.927 548.78 598.309 547.732 600.323C548.877 602.456 552.811 604.144 554.615 605.59C559.236 608.421 564.23 610.558 569.028 613.06C571.254 613.058 572.505 610.902 574.049 609.651C575.037 607.876 572.922 606.737 571.664 605.987C566.315 602.581 559.214 598.744 553.437 596.138C553.148 596.015 552.859 595.894 552.568 595.775ZM440.868 601.224C436.754 604.422 434.352 609.286 430.24 612.487C427.894 613.543 425.623 611.734 423.389 611.191C420.397 610.172 417.354 609.272 414.235 608.735C412.345 609.812 411.189 612.059 410.289 613.875C410.585 615.575 412.591 615.762 413.909 616.286C418.197 617.698 422.616 618.651 426.945 619.92C428.448 621.199 430.167 619.491 431.779 619.749C433.5 620.335 434.809 619.295 435.313 617.726C436.717 616.38 438.362 615.285 439.56 613.718C441.552 611.436 443.303 608.943 445.351 606.716C446.689 604.945 444.341 603.838 443.27 602.82C442.55 602.181 441.783 601.557 440.868 601.224ZM317.631 601.535C312.583 607.232 308.506 613.731 303.222 619.227C302.588 620.965 304.488 622.121 305.107 623.544C306.019 625.362 308.135 624.897 309.334 623.673C314.423 620.14 318.13 615.024 321.442 609.875C322.445 608.182 323.315 606.405 323.964 604.546C322.139 603.043 319.92 602.072 317.631 601.535ZM508.352 606.727C507.917 607.532 509.434 606.552 508.352 606.727V606.727ZM524.341 607.143C524.207 608.02 525.186 606.687 524.341 607.143V607.143ZM327.701 614.203C321.743 620.122 316.459 626.956 313.377 634.825C312.713 636.893 313.054 639.95 315.548 640.543C318.02 641.325 320.606 640.563 322.849 639.466C324.5 639.151 327.304 638.244 325.66 636.113C324.493 635.188 323.292 633.424 324.397 631.996C327.022 629.013 329.198 625.659 331.323 622.31C332.245 620.764 333.092 619.17 333.827 617.526C332.093 615.941 329.945 614.86 327.701 614.203ZM495.893 618.461C497.973 619.239 494.3 621.931 494.8 619.433C495.075 619.013 495.623 618.885 495.893 618.461ZM489.041 630.61C488.131 630.642 489.859 631.206 489.041 630.61V630.61ZM340.575 633.413C338.993 633.247 336.657 633.376 336.666 635.517C335.944 639.794 335.207 644.502 337.192 648.561C338.294 650.267 340.451 649.304 341.253 647.84C343.184 646.416 344.056 644.153 343.861 641.806C344.03 639.137 344.256 636.453 343.984 633.783C342.899 633.357 341.714 633.471 340.575 633.413ZM343.586 645.354C343.279 645.647 344.026 645.435 343.586 645.354V645.354Z" fill="black"/>
</svg>
