<svg width="736" height="895" viewBox="0 0 736 895" fill="none" xmlns="http://www.w3.org/2000/svg">
<g clip-path="url(#clip0_177_51)">
<path d="M663.308 312.691L677.901 295.33L655.339 293.032L540.939 281.377L549.077 166.645L550.682 144.013L531.072 155.424L431.679 213.257L370.838 115.652L358.836 96.398L349.676 117.155L303.241 222.378L196.671 179.189L175.647 170.669L180.435 192.844L204.71 305.269L93.1072 332.99L71.0987 338.457L87.998 353.579L173.705 430.271L99.7035 518.309L85.1105 535.669L107.673 537.968L222.061 549.623L213.923 664.355L212.318 686.986L231.928 675.577L331.331 617.743L392.161 715.347L404.163 734.604L413.324 713.845L459.759 608.622L566.329 651.811L587.353 660.331L582.565 638.156L558.29 525.731L669.893 498.01L691.9 492.543L675.003 477.421L589.306 400.729L663.308 312.691Z" fill="#FFF200" stroke="white" stroke-width="24"/>
<g filter="url(#filter0_d_177_51)">
<path d="M712.182 139.825L666.768 184.11L709.621 230.873L646.856 240.005L654.051 303.032L597.912 273.518L566.69 328.739L538.623 271.851L480.91 298.176L491.631 235.649L429.482 223.016L474.896 178.731L432.037 131.967L494.802 122.836L487.607 59.8081L543.746 89.3225L574.968 34.1011L603.041 90.9899L660.748 64.6647L650.027 127.192L712.182 139.825Z" fill="#F03971"/>
<path d="M716.378 144.128L724.511 136.198L713.379 133.935L656.936 122.463L666.672 65.6804L668.593 54.4798L658.254 59.1963L605.851 83.1017L580.358 31.4413L575.329 21.2505L569.736 31.1429L541.383 81.2897L490.404 54.488L480.347 49.2004L481.635 60.4898L488.169 117.727L431.172 126.019L419.932 127.655L427.606 136.028L466.528 178.496L425.286 218.713L417.153 226.644L428.285 228.906L484.721 240.378L474.986 297.16L473.065 308.36L483.404 303.644L535.812 279.739L561.3 331.399L566.328 341.591L571.922 331.698L600.275 281.551L651.254 308.353L661.311 313.64L660.023 302.351L653.489 245.114L710.486 236.821L721.726 235.186L714.052 226.813L675.136 184.345L716.378 144.128Z" stroke="white" stroke-width="12.021"/>
</g>
<g filter="url(#filter1_d_177_51)">
<path d="M252.444 536.132L217.059 612.913L292.662 650.718L218.933 691.997L257.929 767.046L174.021 757.048L161.504 840.684L99.4682 783.226L40.2206 843.504L23.7503 760.542L-59.5867 774.428L-24.2008 697.647L-99.8117 659.843L-26.0826 618.565L-65.0794 543.516L18.8292 553.514L31.3464 469.878L93.3895 527.334L152.63 467.057L169.1 550.02L252.444 536.132Z" fill="#F03971"/>
<path d="M257.903 538.647L262.655 528.337L251.456 530.203L173.86 543.134L158.525 465.887L156.311 454.736L148.343 462.844L93.1925 518.96L35.4303 465.468L27.0855 457.74L25.4021 468.988L13.7483 546.855L-64.3682 537.548L-75.6528 536.203L-70.4128 546.287L-34.1024 616.166L-102.748 654.599L-112.652 660.144L-102.5 665.219L-32.0965 700.419L-65.0454 771.912L-69.7972 782.223L-58.5988 780.357L18.9897 767.428L34.3251 844.675L36.5387 855.825L44.5072 847.718L99.6647 791.6L157.42 845.093L165.764 852.823L167.448 841.573L179.102 763.707L257.218 773.014L268.503 774.359L263.263 764.274L226.953 694.396L295.598 655.963L305.501 650.419L295.35 645.343L224.954 610.141L257.903 538.647Z" stroke="white" stroke-width="12.021"/>
</g>
<path d="M547.074 175.342L559.864 178.381C557.413 190.207 550.271 198.925 542.546 206.311C552.395 205.89 562.898 205.727 570.039 205.727H579.795C586.517 205.727 596.133 205.82 604.908 205.89H606.379V218.465H604.908C593.822 218.208 580.122 218.208 569.876 218.208C564.881 218.208 552.885 218.465 541.332 218.956C549.127 226.856 555.452 235.317 558.393 246.559L545.93 251C542.803 238.753 532.977 229.38 520 217.811V208.368C531.81 197.687 545.183 186.842 547.074 175.342ZM611 149.468C598.047 161.061 588.197 170.41 585.07 182.658L572.607 178.217C575.571 166.951 581.803 158.49 589.598 150.614C578.022 150.123 566.142 149.959 561.124 149.959C550.878 149.959 537.154 149.959 526.092 150.216H524.621V137.642H526.092C534.867 137.548 544.483 137.478 551.205 137.478H560.96C568.102 137.478 578.605 137.572 588.454 137.969C580.752 130.583 573.61 121.865 571.136 110.038L583.926 107C585.817 118.499 599.19 129.344 611 140.026V149.468Z" fill="black"/>
<path d="M118.206 610.437C118.206 599.17 118.318 593.676 118.793 583.777L134.619 583.888C134.227 589.967 134.115 594.178 134.115 599.561C134.115 604.162 134.227 609.656 134.227 618.078V706.703C142.28 697.974 140.91 693.066 148.767 682.106L159 691.225C150.165 703.468 146.027 717.495 132.158 733H120.862C108.168 718.973 98.5502 698.978 87.2543 690.946V699.563C87.2543 710.83 87.1425 716.324 86.6672 726.223H70.8417C71.2332 720.144 71.345 715.933 71.345 710.551C71.345 705.95 71.2332 700.344 71.2332 691.922V603.27C62.0063 612.193 65.4454 617.882 57.5607 628.87L44 620.811C52.8354 608.568 59.434 592.477 73.3022 577H84.5981C97.292 591.027 106.91 611.106 118.206 619.165V610.437ZM108.364 631.408C96.8726 622.595 95.894 613.169 86.9468 603.855C86.9468 629.455 87.2543 653.857 87.2543 684.839V690.612L97.0963 678.648C108.588 687.46 109.566 696.775 118.514 706.089C118.514 680.489 118.206 656.088 118.206 625.105V619.332L108.364 631.38V631.408Z" fill="black"/>
</g>
<defs>
<filter id="filter0_d_177_51" x="388.224" y="2.7999" width="351.217" height="365.243" filterUnits="userSpaceOnUse" color-interpolation-filters="sRGB">
<feFlood flood-opacity="0" result="BackgroundImageFix"/>
<feColorMatrix in="SourceAlpha" type="matrix" values="0 0 0 0 0 0 0 0 0 0 0 0 0 0 0 0 0 0 127 0" result="hardAlpha"/>
<feOffset dx="-7" dy="4"/>
<feGaussianBlur stdDeviation="4.8"/>
<feComposite in2="hardAlpha" operator="out"/>
<feColorMatrix type="matrix" values="0 0 0 0 0 0 0 0 0 0 0 0 0 0 0 0 0 0 0.25 0"/>
<feBlend mode="normal" in2="BackgroundImageFix" result="effect1_dropShadow_177_51"/>
<feBlend mode="normal" in="SourceGraphic" in2="effect1_dropShadow_177_51" result="shape"/>
</filter>
<filter id="filter1_d_177_51" x="-142.092" y="436.815" width="463.032" height="444.93" filterUnits="userSpaceOnUse" color-interpolation-filters="sRGB">
<feFlood flood-opacity="0" result="BackgroundImageFix"/>
<feColorMatrix in="SourceAlpha" type="matrix" values="0 0 0 0 0 0 0 0 0 0 0 0 0 0 0 0 0 0 127 0" result="hardAlpha"/>
<feOffset dx="-7" dy="4"/>
<feGaussianBlur stdDeviation="4.8"/>
<feComposite in2="hardAlpha" operator="out"/>
<feColorMatrix type="matrix" values="0 0 0 0 0 0 0 0 0 0 0 0 0 0 0 0 0 0 0.25 0"/>
<feBlend mode="normal" in2="BackgroundImageFix" result="effect1_dropShadow_177_51"/>
<feBlend mode="normal" in="SourceGraphic" in2="effect1_dropShadow_177_51" result="shape"/>
</filter>
<clipPath id="clip0_177_51">
<rect width="736" height="895" fill="white"/>
</clipPath>
</defs>
</svg>
