<svg width="361" height="469" viewBox="0 0 361 469" fill="none" xmlns="http://www.w3.org/2000/svg">
<path d="M418.397 164.187L428.122 152.614L413.083 151.082L335.419 143.168L340.944 65.2562L342.014 50.1667L328.94 57.7761L261.465 97.0474L220.161 30.7689L212.16 17.9287L206.053 31.7708L174.529 103.223L102.182 73.8958L88.1649 68.214L91.3563 82.9979L107.837 159.343L32.071 178.168L17.4022 181.812L28.6646 191.893L86.8514 243.973L36.6113 303.757L26.8859 315.33L41.9248 316.862L119.581 324.776L114.056 402.688L112.986 417.777L126.06 410.168L193.542 370.897L234.838 437.175L242.84 450.017L248.947 436.173L280.471 364.722L352.818 394.048L366.835 399.73L363.644 384.946L347.163 308.601L422.929 289.776L437.597 286.132L426.336 276.052L368.156 223.972L418.397 164.187Z" fill="#FFF200" stroke="white" stroke-width="16"/>
</svg>
