<svg width="594" height="946" viewBox="0 0 594 946" fill="none" xmlns="http://www.w3.org/2000/svg">
<path d="M860.688 322.181L875.303 304.814L852.722 302.516L683.389 285.285L695.433 115.671L697.04 93.051L677.434 104.446L530.304 189.957L440.245 45.6469L428.247 26.421L419.088 47.1505L350.355 202.72L192.602 138.863L171.578 130.352L176.37 152.521L212.299 318.722L47.1104 359.706L25.0778 365.172L42.0032 380.3L168.851 493.674L59.3286 623.819L44.7136 641.186L67.2952 643.484L236.611 660.715L224.566 830.329L222.96 852.948L242.566 841.554L389.712 756.043L479.755 900.352L491.752 919.581L500.912 898.85L569.644 743.28L727.398 807.137L748.422 815.648L743.63 793.479L707.701 627.278L872.89 586.294L894.921 580.828L877.997 565.701L751.165 452.326L860.688 322.181Z" fill="#FFF200" stroke="white" stroke-width="24"/>
</svg>
